<svg width="97" height="42" viewBox="0 0 97 42" fill="none" xmlns="http://www.w3.org/2000/svg">
<path d="M43.5245 34.0513C42.2913 33.6267 41.012 32.7173 40.1281 31.7984C39.4419 31.085 39.0344 30.1173 38.7765 29.1646C38.518 28.2093 38.7156 27.3302 39.0411 26.4168C39.6194 24.7938 40.843 23.1686 42.5895 22.8096C43.2932 22.665 44.1472 22.4759 44.7922 22.8505C45.0302 22.9888 44.6031 22.3274 44.5219 22.0613C44.3186 21.3953 44.0963 20.731 43.9842 20.0414C43.6677 18.0941 44.2679 15.8106 45.2523 14.1337C47.0805 11.0195 50.5612 9.05775 54.1436 9.24612C54.6516 9.27283 55.1383 9.34771 55.6274 9.48582C55.7658 9.52492 56.2038 9.693 56.2169 9.47998C56.2886 8.31309 56.3773 7.16677 57.0048 6.13295C59.0828 2.70932 63.242 0.5 67.1584 0.5C68.8416 0.5 70.1944 0.920586 71.6443 1.76281C72.9156 2.50133 74.0947 3.62458 75.0863 4.71521C75.4718 5.13918 75.9436 5.55818 76.2711 6.03064C76.5541 6.43903 76.7375 6.96921 76.9123 7.43376C77.1026 7.93924 77.2804 8.48349 77.2804 9.02981C77.2804 9.30932 77.2471 9.58991 77.2056 9.86583C77.1898 9.97144 77.1688 10.0593 77.1423 10.1358C77.4577 9.84565 77.8573 9.67974 78.3014 9.45405C79.038 9.07966 79.7723 8.69327 80.5875 8.53033C83.0074 8.04661 85.3532 8.90114 87.5751 9.74052C90.8094 10.9624 92.8597 13.4376 94.4132 16.493C95.1148 17.873 95.6173 19.3227 95.8912 20.8544C96.1849 22.4964 95.8529 24.2132 95.2701 25.7536C94.1059 28.8308 91.5285 30.8052 88.4608 31.6994C86.7735 32.1911 84.9155 32.2967 83.1697 32.208L83.0224 32.2005L83.0223 32.2005C81.6081 32.1288 80.176 32.0562 78.7758 31.8455C77.4443 31.6452 76.2214 31.1811 74.9398 30.7903C73.9606 30.4916 73.1601 29.959 72.2426 29.5362C71.7758 29.3212 71.3684 29.0843 70.9486 28.7879C70.7687 28.6609 70.4908 28.3962 70.2555 28.3962C70.1911 28.3962 70.0624 28.5105 70.0226 28.5657C69.7873 28.8931 69.4612 29.1583 69.1398 29.3959C68.6096 29.7879 68.1759 30.2693 67.6186 30.6295C66.892 31.0991 66.1735 31.6393 65.3642 31.9478L65.362 31.9487C63.7436 32.5656 62.0037 33.2289 60.2428 33.0499C59.2234 32.9462 58.2752 32.5553 57.2695 32.398C57.1169 32.3741 57.071 32.6291 57.0193 32.7342C56.8626 33.0528 56.6726 33.2917 56.3838 33.5C55.8307 33.8991 55.387 34.3575 54.7649 34.6576C54.0431 35.0058 53.3155 35.37 52.5478 35.6018C50.6326 36.1801 48.6163 36.1778 46.7564 35.4176C46.076 35.1396 45.395 34.875 44.7119 34.605C44.4945 34.5191 43.8337 34.2012 43.5245 34.0513Z" fill="#E3E3E3"/>
<path d="M43.7455 34.1223C42.446 33.7357 41.0649 32.7724 40.1281 31.7984C39.4419 31.085 39.0344 30.1173 38.7765 29.1646C38.518 28.2093 38.7156 27.3302 39.0411 26.4168C39.6194 24.7938 40.843 23.1686 42.5895 22.8096C43.2932 22.665 44.1472 22.4759 44.7922 22.8506C45.0302 22.9888 44.6031 22.3274 44.5219 22.0613C44.3186 21.3953 44.0963 20.731 43.9842 20.0414C43.6677 18.0941 44.2679 15.8106 45.2523 14.1337C47.0805 11.0195 50.5612 9.05775 54.1436 9.24612C54.6516 9.27284 55.1383 9.34771 55.6274 9.48582C55.7658 9.52492 56.2038 9.693 56.2169 9.47998C56.2886 8.31309 56.3773 7.16677 57.0048 6.13295C59.0828 2.70932 63.242 0.5 67.1584 0.5C68.8416 0.5 70.1944 0.920586 71.6443 1.76281C72.9156 2.50133 74.0947 3.62458 75.0863 4.71521C75.4718 5.13918 75.9436 5.55818 76.2711 6.03064C76.5541 6.43903 76.7375 6.96921 76.9123 7.43376C77.1026 7.93924 77.2804 8.48349 77.2804 9.02981C77.2804 9.30932 77.2471 9.58991 77.2056 9.86583C77.1363 10.3272 76.9699 10.4504 76.665 10.7603M43.3616 33.9721C43.3616 33.9721 44.4245 34.4914 44.7119 34.605C45.395 34.875 46.076 35.1396 46.7564 35.4176C48.6163 36.1778 50.6326 36.1801 52.5478 35.6018C53.3155 35.37 54.0431 35.0058 54.7649 34.6576C55.387 34.3575 55.8307 33.8991 56.3838 33.5C56.6726 33.2917 56.8626 33.0528 57.0193 32.7342C57.071 32.6291 57.1169 32.3741 57.2695 32.398C58.2752 32.5553 59.2234 32.9462 60.2428 33.0499C62.0037 33.2289 63.7436 32.5656 65.362 31.9487L65.3642 31.9478C66.1735 31.6393 66.892 31.0991 67.6186 30.6295C68.1759 30.2693 68.6096 29.7879 69.1398 29.3959C69.4612 29.1583 69.7873 28.8931 70.0226 28.5657C70.0624 28.5104 70.1911 28.3962 70.2555 28.3962C70.4908 28.3962 70.7687 28.6609 70.9486 28.7879C71.3684 29.0843 71.7758 29.3212 72.2426 29.5362C73.1601 29.959 73.9606 30.4916 74.9398 30.7903C76.2214 31.1811 77.4443 31.6452 78.7758 31.8455C80.1761 32.0562 81.6082 32.1288 83.0224 32.2005L83.1697 32.208C84.9155 32.2967 86.7735 32.1911 88.4608 31.6994C91.5285 30.8052 94.1059 28.8308 95.2701 25.7536C95.8529 24.2132 96.1849 22.4964 95.8912 20.8544C95.6173 19.3227 95.1148 17.873 94.4132 16.493C92.8597 13.4376 90.8094 10.9624 87.5751 9.74052C85.3532 8.90114 83.0074 8.04661 80.5875 8.53033C79.7723 8.69327 79.038 9.07966 78.3014 9.45405C77.6096 9.80567 77.0256 10.0122 76.6997 10.7695" stroke="black" stroke-opacity="0.15" stroke-linecap="round"/>
<path d="M9.14703 14.5844C9.90174 14.207 10.6803 13.8857 11.5339 13.8585C11.7956 12.5528 12.4894 11.2876 13.1011 10.1178C13.9193 8.55296 15.1343 7.11793 16.6025 6.08779C17.7341 5.29384 18.9718 4.9882 20.3122 4.6704C21.7421 4.3314 23.1392 4.19564 24.6068 4.27583C25.8451 4.34349 26.972 4.67093 28.1643 4.96154L28.2369 4.97924C29.2783 5.23288 30.2497 5.46949 31.1729 6.0265C32.1479 6.61471 32.9784 7.0501 33.6087 7.99552C34.1314 8.7796 34.5604 9.59599 34.6382 10.5392C34.6766 11.0038 34.6173 11.605 34.3819 12.0178C34.26 12.2315 34.5253 12.0892 34.6583 12.0638C35.6966 11.8652 36.6508 11.524 37.731 11.5122C38.9353 11.4989 39.955 11.6067 41.0826 12.0178C41.8642 12.3028 42.6536 12.6711 43.3649 13.0598C43.9133 13.3594 44.735 13.9691 45.2192 14.3591C45.6471 14.7036 46.3604 15.6583 46.4965 17.102C46.4965 17.6795 46.5586 18.9004 46.4965 19.5108C46.4772 19.7008 46.4788 20.1832 46.7329 19.8862C47.3993 19.1073 48.4949 18.8759 49.5011 18.8289C51.769 18.7232 53.8459 19.2085 55.7748 20.3613C57.7343 21.5323 59.1116 23.4135 60.0133 25.4179C60.8595 27.2989 61.138 29.4529 60.7144 31.4782C60.5014 32.4963 59.7113 33.4087 58.9877 34.152C58.1301 35.0331 57.1659 35.7932 56.0913 36.416C54.9623 37.0703 53.9688 37.7308 52.646 37.9254C51.5797 38.0822 50.5595 38.1757 49.4851 38.0594C48.6507 37.9691 47.8423 37.8057 47.0894 37.4389C46.8275 37.3112 46.6012 37.1437 46.3803 36.96C46.3727 36.9537 46.2067 36.7847 46.192 36.7953C46.0302 36.9113 46.0763 37.456 46.0158 37.6381C45.905 37.9708 45.7972 38.248 45.6151 38.5574C45.1324 39.378 44.317 40.2908 43.4278 40.7257C42.1246 41.3629 40.407 41.583 38.9529 41.4727C38.0348 41.403 37.0875 41.3779 36.1926 41.1547C35.3351 40.9408 34.6468 40.5717 33.8931 40.1434C33.2905 39.8009 32.3408 39.1241 32.1304 38.9252C31.92 38.7263 31.6667 38.1678 31.3772 38.0671C30.9388 38.4425 30.0979 38.7768 29.907 38.9137C29.2005 39.4203 28.2872 39.5091 27.4352 39.6109C26.435 39.7304 25.432 39.8263 24.4225 39.8216C22.0331 39.8105 19.7081 39.5682 17.6 38.4425C16.0552 37.6176 14.512 36.6564 13.686 35.0944C13.2516 34.2728 13.2313 34.3529 12.3399 34.6807C11.6077 34.95 10.8774 35.1262 10.1045 35.2476C8.91058 35.4353 7.96961 35.1519 6.83147 34.8339C3.22583 33.8267 1.72276 30.3447 1.12269 27.0613C0.567725 24.0247 1.95758 20.5325 4.03918 18.2313C5.42559 16.6987 7.28386 15.5164 9.14703 14.5844Z" fill="#D9D9D9"/>
<path d="M11.6509 13.8566C10.7512 13.8566 9.93609 14.1898 9.14703 14.5844C7.28386 15.5164 5.42559 16.6987 4.03918 18.2313C1.95758 20.5325 0.567725 24.0247 1.12269 27.0613C1.72276 30.3447 3.22583 33.8267 6.83147 34.8339C7.96961 35.1519 8.91058 35.4353 10.1045 35.2476C10.8774 35.1262 11.6077 34.95 12.3399 34.6807C13.2313 34.3529 13.2516 34.2728 13.686 35.0944C14.512 36.6564 16.0552 37.6176 17.6 38.4425C19.7081 39.5682 22.0331 39.8105 24.4225 39.8216C25.432 39.8263 26.435 39.7304 27.4352 39.6109C28.2872 39.5091 29.2005 39.4203 29.907 38.9137C30.0979 38.7768 30.9388 38.4425 31.3772 38.0671C31.6667 38.1678 31.92 38.7263 32.1304 38.9252C32.3408 39.1241 33.2905 39.8009 33.8931 40.1434C34.6468 40.5717 35.3351 40.9408 36.1926 41.1547C37.0875 41.3779 38.0348 41.403 38.9529 41.4727C40.407 41.583 42.1246 41.3629 43.4278 40.7257C44.317 40.2908 45.1324 39.378 45.6151 38.5574C45.7972 38.248 45.905 37.9708 46.0158 37.6381C46.0763 37.456 46.0302 36.9113 46.192 36.7953C46.2067 36.7847 46.3727 36.9537 46.3803 36.96C46.6012 37.1436 46.8275 37.3112 47.0894 37.4389C47.8423 37.8057 48.6507 37.9691 49.4851 38.0594C50.5595 38.1757 51.5797 38.0822 52.646 37.9254C53.9688 37.7308 54.9623 37.0703 56.0913 36.416C57.1659 35.7932 58.1301 35.0331 58.9877 34.152C59.7113 33.4087 60.5014 32.4963 60.7144 31.4782C61.138 29.4529 60.8595 27.2989 60.0133 25.4179C59.1116 23.4135 57.7343 21.5323 55.7748 20.3613C53.8459 19.2085 51.769 18.7232 49.5011 18.8289C48.4949 18.8759 47.3993 19.1073 46.7329 19.8862C46.4788 20.1832 46.4772 19.7008 46.4965 19.5108C46.5586 18.9004 46.4965 17.6795 46.4965 17.102C46.3604 15.6583 45.6471 14.7036 45.2192 14.3591C44.735 13.9691 43.9133 13.3594 43.3649 13.0598C42.6536 12.6711 41.8642 12.3028 41.0826 12.0178C39.955 11.6067 38.9353 11.4989 37.731 11.5122C36.6508 11.524 35.6966 11.8652 34.6583 12.0638C34.5253 12.0892 34.26 12.2315 34.3819 12.0178C34.6173 11.605 34.6766 11.0038 34.6382 10.5392C34.5604 9.59599 34.1314 8.7796 33.6087 7.99552C32.9784 7.0501 32.1479 6.61471 31.1729 6.0265C30.2283 5.45656 29.2332 5.22207 28.1643 4.96154C26.972 4.67093 25.8451 4.34349 24.6068 4.27583C23.1392 4.19564 21.7421 4.3314 20.3122 4.6704C18.9717 4.9882 17.7341 5.29384 16.6025 6.08779C15.1343 7.11793 13.9193 8.55296 13.1011 10.1178C12.3719 11.5124 11.5259 13.0425 11.4346 14.6151" stroke="black" stroke-opacity="0.15" stroke-linecap="round"/>
</svg>
