<svg width="91" height="59" viewBox="0 0 91 59" fill="none" xmlns="http://www.w3.org/2000/svg">
<path d="M20.8725 16.9896C21.2491 17.3622 22.0494 18.6975 22.4025 19.3186C21.6179 18.7751 19.9781 17.6417 19.6956 17.4554C19.3426 17.2225 16.7534 15.7086 17.1065 14.6606C17.4595 13.6125 20.4018 16.5238 20.8725 16.9896L20.8725 16.9896Z" fill="#EFC700"/>
<path d="M17.8243 28.8629C18.3079 28.9025 19.9967 29.0737 20.5099 29.1649C19.8278 29.3528 18.4874 29.9024 18.2469 29.9744C17.9464 30.0644 15.7643 30.6596 15.3633 29.9716C14.9623 29.2836 17.3378 28.8231 17.8243 28.8629Z" fill="#EFC700"/>
<path d="M29.8169 9.53649C29.9917 9.96899 30.9153 11.982 31.4645 12.9136C31.4253 12.0596 31.3468 10.1886 31.3468 9.53649C31.3468 8.72134 30.7584 6.04297 29.8169 6.04297C28.8754 6.04297 29.5816 8.95424 29.8169 9.53649Z" fill="#EFC700"/>
<path d="M22.1899 11.9053C22.6401 12.4389 24.8702 14.8716 26.051 15.9414C25.5355 14.7468 24.4151 12.126 24.058 11.2C23.6116 10.0424 21.4264 6.51019 20.2768 6.94423C19.1272 7.37826 21.5837 11.1869 22.1899 11.9053Z" fill="#EFC700"/>
<path d="M14.6351 23.5107C15.5782 23.4399 18.6365 23.5107 20.2842 23.3942C18.9897 22.8119 17.0166 22.0144 16.0474 21.7639C14.8359 21.4507 9.33661 21.017 9.0256 22.195C8.71459 23.3729 13.692 23.5814 14.6351 23.5107Z" fill="#EFC700"/>
<path d="M20.8165 37.9996C21.5481 37.0689 23.2697 33.9529 23.8503 32.6199C22.8573 33.3919 20.3671 35.2777 19.7714 35.9314C19.0268 36.7485 15.9291 40.6882 16.7405 41.4122C17.552 42.1363 20.3009 38.6556 20.8165 37.9996Z" fill="#EFC700"/>
<path d="M36.8784 10.4683C36.5959 11.7725 36.7607 13.496 36.8784 14.1947L37.9376 11.3999L40.2913 7.44056C40.919 6.3925 41.9861 4.29639 41.2329 4.29639C40.4796 4.29639 39.2714 5.9267 38.7614 6.74185C38.2514 7.44056 37.1608 9.16403 36.8784 10.4683Z" fill="#EFC700"/>
<path d="M42.6007 15.0951C42.1097 15.8262 41.7815 16.9192 41.6787 17.3744L43.0011 15.9147L45.3826 14.0482C46.0157 13.5552 47.1698 12.5247 46.7212 12.3471C46.2726 12.1694 45.1496 12.8816 44.6441 13.2599C44.1675 13.567 43.0916 14.3639 42.6007 15.0951Z" fill="#EFC700"/>
<path d="M48.1723 19.8035C46.8727 20.4409 45.504 21.7224 44.9821 22.2834L48.0612 21.288L52.9761 20.5743C54.2801 20.3891 56.7661 19.8651 56.278 19.2504C55.7899 18.6356 53.6111 18.7343 52.5828 18.8605C51.6541 18.9093 49.4719 19.1661 48.1723 19.8035Z" fill="#EFC700"/>
<path d="M47.3525 26.6549C46.5749 26.4945 45.5329 26.6779 45.1164 26.7449L46.764 27.47L49.1178 28.751C49.7426 29.1076 51.0176 29.6464 51.0175 29.2183C51.0174 28.7902 50.1922 27.9927 49.7062 27.7029C49.2897 27.4132 48.13 26.8152 47.3525 26.6549Z" fill="#EFC700"/>
<path d="M26.0187 38.552C26.2339 38.1988 26.9216 37.2921 27.2386 36.8828C27.1759 37.7054 27.0256 39.4582 26.9252 39.8888C26.7997 40.4269 26.2885 41.4317 25.5079 41.2174C24.7272 41.0031 25.7496 38.9935 26.0187 38.552Z" fill="#EFC700"/>
<path d="M38.6304 38.1307C38.451 37.7584 38.0649 36.691 37.8943 36.2038C38.5537 36.7086 39.9494 37.7982 40.2572 38.1183C40.642 38.5183 41.2081 39.4939 40.5973 40.0206C39.9866 40.5473 38.8545 38.596 38.6304 38.1307Z" fill="#EFC700"/>
<path d="M32.0117 39.7964C32.125 38.9441 32.4571 37.6144 32.609 37.0562C32.7917 38.0193 33.1715 40.0123 33.2291 40.2799C33.3012 40.6145 33.8197 42.8496 33.8068 43.8233C33.7939 44.7971 33.4386 46.5933 33.0242 47.0813C32.6098 47.5692 32.3215 46.2312 32.1491 45.7752C31.9767 45.3192 32.1312 43.2801 32.0733 42.839C32.0154 42.398 31.8701 40.8617 32.0117 39.7964Z" fill="#EFC700"/>
<path d="M43.475 34.2043C43.0386 33.5654 42.4502 32.4853 42.2106 32.025C42.8884 32.58 44.2923 33.7276 44.4847 33.8781C44.7253 34.0663 46.3547 35.3035 46.9226 35.9708C47.4904 36.6382 48.3409 38.0473 48.3829 38.6009C48.4249 39.1545 47.2946 38.6329 46.9226 38.4163C46.5505 38.1997 45.2343 37.0189 44.9989 36.5531C44.8198 36.1986 44.0205 35.003 43.475 34.2043Z" fill="#EFC700"/>
<path d="M42.0567 25.7233C41.2328 31.1965 37.9159 35.0393 32.8081 35.0393C27.7002 35.0393 24.168 30.8684 24.168 25.7233C25.0198 20.6418 27.5809 17.4553 32.8081 16.4072C37.9159 16.4072 42.0567 20.5782 42.0567 25.7233Z" fill="#EFC700"/>
<path d="M40.7864 51.073C39.6181 50.6781 38.4061 49.8324 37.5687 48.9778C36.9187 48.3144 36.5326 47.4144 36.2884 46.5284C36.0434 45.64 36.2307 44.8225 36.539 43.973C37.0868 42.4637 38.246 40.9522 39.9007 40.6184C40.5673 40.4839 41.3763 40.308 41.9874 40.6564C42.2128 40.7849 41.8083 40.1698 41.7313 39.9224C41.5387 39.303 41.3281 38.6852 41.2219 38.0439C40.9221 36.233 41.4907 34.1093 42.4233 32.5498C44.1552 29.6537 47.4527 27.8292 50.8466 28.0044C51.3279 28.0293 51.7889 28.0989 52.2523 28.2273C52.3835 28.2637 52.7984 28.42 52.8108 28.2219C52.8787 27.1367 52.9627 26.0706 53.5572 25.1092C55.5259 21.9253 59.4662 19.8706 63.1764 19.8706C64.771 19.8706 66.0526 20.2617 67.4262 21.045C68.6307 21.7318 69.7477 22.7764 70.6871 23.7907C71.0523 24.185 71.4993 24.5747 71.8095 25.014C72.0776 25.3938 72.2513 25.8869 72.417 26.3189C72.5972 26.789 72.7657 27.2952 72.7657 27.8032C72.7657 28.0632 72.7341 28.3241 72.6949 28.5807C72.6798 28.679 72.66 28.7607 72.6348 28.8318C72.9337 28.562 73.3123 28.4077 73.7329 28.1978C74.4308 27.8496 75.1264 27.4903 75.8987 27.3387C78.1913 26.8889 80.4136 27.6836 82.5186 28.4642C85.5827 29.6005 87.525 31.9025 88.9967 34.744C89.6615 36.0274 90.1375 37.3756 90.397 38.8C90.6752 40.327 90.3607 41.9237 89.8086 43.3563C88.7056 46.2179 86.2639 48.0542 83.3576 48.8857C81.7592 49.3431 79.999 49.4413 78.345 49.3588L78.2055 49.3518L78.2054 49.3518C76.8657 49.2851 75.5089 49.2176 74.1824 49.0217C72.9209 48.8354 71.7624 48.4037 70.5483 48.0403C69.6207 47.7626 68.8623 47.2672 67.993 46.874C67.5508 46.6741 67.1649 46.4537 66.7671 46.1781C66.5967 46.06 66.3334 45.8138 66.1106 45.8138C66.0496 45.8138 65.9275 45.9201 65.8899 45.9715C65.667 46.2759 65.3581 46.5226 65.0536 46.7435C64.5512 47.1081 64.1404 47.5558 63.6124 47.8908C62.9241 48.3275 62.2434 48.8299 61.4767 49.1168L61.4746 49.1176C59.9413 49.6914 58.293 50.3082 56.6248 50.1417C55.659 50.0453 54.7608 49.6817 53.808 49.5355C53.6634 49.5133 53.6199 49.7504 53.571 49.8481C53.4225 50.1444 53.2425 50.3666 52.9689 50.5603C52.4449 50.9314 52.0246 51.3577 51.4352 51.6369C50.7514 51.9607 50.0621 52.2994 49.3348 52.515C47.5204 53.0527 45.6103 53.0507 43.8482 52.3437C43.2037 52.0851 42.5584 51.8391 41.9113 51.5879C41.7054 51.508 41.0794 51.2124 40.7864 51.073Z" fill="#BFBDBD"/>
<path d="M40.9958 51.139C39.7647 50.7795 38.4563 49.8836 37.5687 48.9778C36.9187 48.3144 36.5326 47.4144 36.2884 46.5284C36.0434 45.64 36.2307 44.8225 36.539 43.973C37.0868 42.4637 38.246 40.9522 39.9007 40.6184C40.5673 40.4839 41.3763 40.308 41.9874 40.6564C42.2128 40.7849 41.8083 40.1698 41.7313 39.9224C41.5387 39.303 41.3281 38.6852 41.2219 38.0439C40.9221 36.233 41.4907 34.1093 42.4233 32.5498C44.1552 29.6537 47.4527 27.8292 50.8466 28.0044C51.3279 28.0293 51.7889 28.0989 52.2523 28.2273C52.3835 28.2637 52.7984 28.42 52.8108 28.2219C52.8787 27.1367 52.9627 26.0706 53.5572 25.1092C55.5259 21.9253 59.4662 19.8706 63.1764 19.8706C64.771 19.8706 66.0526 20.2617 67.4262 21.045C68.6307 21.7318 69.7477 22.7764 70.6871 23.7907C71.0523 24.185 71.4993 24.5747 71.8095 25.014C72.0776 25.3938 72.2513 25.8869 72.417 26.3189C72.5972 26.789 72.7657 27.2952 72.7657 27.8032C72.7657 28.0632 72.7341 28.3241 72.6949 28.5807C72.6292 29.0098 72.4715 29.1244 72.1827 29.4126M40.6321 50.9994C40.6321 50.9994 41.639 51.4823 41.9113 51.5879C42.5584 51.8391 43.2037 52.0851 43.8482 52.3437C45.6103 53.0507 47.5204 53.0528 49.3348 52.515C50.0621 52.2994 50.7514 51.9607 51.4352 51.6369C52.0246 51.3577 52.4449 50.9314 52.9689 50.5603C53.2425 50.3666 53.4225 50.1444 53.571 49.8481C53.6199 49.7504 53.6634 49.5133 53.808 49.5355C54.7608 49.6817 55.659 50.0453 56.6248 50.1417C58.293 50.3082 59.9413 49.6914 61.4746 49.1176L61.4767 49.1168C62.2434 48.8299 62.9241 48.3275 63.6124 47.8908C64.1404 47.5558 64.5512 47.1081 65.0536 46.7435C65.3581 46.5226 65.667 46.2759 65.8899 45.9715C65.9275 45.9201 66.0496 45.8138 66.1106 45.8138C66.3334 45.8138 66.5967 46.06 66.7671 46.1781C67.1649 46.4537 67.5508 46.6741 67.993 46.874C68.8623 47.2672 69.6207 47.7626 70.5483 48.0403C71.7624 48.4037 72.9209 48.8354 74.1824 49.0217C75.509 49.2176 76.8657 49.2851 78.2055 49.3518L78.345 49.3588C79.999 49.4413 81.7592 49.3431 83.3576 48.8857C86.2639 48.0542 88.7056 46.2179 89.8086 43.3563C90.3607 41.9237 90.6752 40.327 90.397 38.8C90.1375 37.3756 89.6615 36.0274 88.9968 34.744C87.525 31.9025 85.5827 29.6005 82.5186 28.4642C80.4136 27.6836 78.1913 26.8889 75.8987 27.3387C75.1264 27.4903 74.4308 27.8496 73.7329 28.1978C73.0776 28.5248 72.5243 28.7168 72.2155 29.4211" stroke="black" stroke-opacity="0.15" stroke-linecap="round"/>
<path d="M8.21824 32.9691C8.93323 32.618 9.67077 32.3193 10.4795 32.2939C10.7274 31.0797 11.3847 29.9031 11.9642 28.8151C12.7394 27.3599 13.8904 26.0253 15.2813 25.0673C16.3533 24.3289 17.5259 24.0447 18.7958 23.7491C20.1504 23.4338 21.474 23.3076 22.8644 23.3822C24.0374 23.4451 25.105 23.7496 26.2346 24.0199L26.3034 24.0363C27.2899 24.2722 28.2102 24.4923 29.0849 25.0103C30.0085 25.5573 30.7953 25.9622 31.3924 26.8414C31.8876 27.5706 32.294 28.3299 32.3678 29.207C32.4042 29.6391 32.348 30.1982 32.1249 30.5822C32.0094 30.7809 32.2608 30.6486 32.3868 30.6249C33.3704 30.4402 34.2745 30.1229 35.2978 30.1119C36.4387 30.0996 37.4048 30.1998 38.473 30.5822C39.2135 30.8472 39.9613 31.1897 40.6351 31.5511C41.1547 31.8298 41.9331 32.3968 42.3919 32.7595C42.7973 33.0799 43.473 33.9678 43.6019 35.3104C43.6019 35.8474 43.6607 36.9828 43.6019 37.5506C43.5836 37.7272 43.5852 38.1759 43.8259 37.8997C44.4573 37.1753 45.4951 36.9601 46.4484 36.9164C48.5969 36.8181 50.5645 37.2694 52.3919 38.3415C54.2483 39.4306 55.5531 41.18 56.4073 43.0441C57.209 44.7934 57.4728 46.7966 57.0715 48.6801C56.8698 49.627 56.1212 50.4755 55.4357 51.1668C54.6233 51.9861 53.7098 52.6931 52.6917 53.2723C51.6222 53.8807 50.681 54.4949 49.4277 54.6759C48.4176 54.8218 47.4511 54.9088 46.4332 54.8006C45.6428 54.7166 44.8769 54.5647 44.1636 54.2235C43.9155 54.1048 43.7011 53.9489 43.4919 53.7782C43.4846 53.7722 43.3274 53.6151 43.3135 53.625C43.1602 53.7329 43.2039 54.2394 43.1465 54.4087C43.0416 54.7182 42.9394 54.976 42.767 55.2638C42.3097 56.0269 41.5372 56.8758 40.6947 57.2802C39.4602 57.8728 37.833 58.0775 36.4554 57.9749C35.5856 57.9101 34.6881 57.8868 33.8404 57.6792C33.028 57.4803 32.3759 57.137 31.6619 56.7387C31.091 56.4202 30.1913 55.7907 29.9919 55.6058C29.7926 55.4208 29.5527 54.9014 29.2784 54.8077C28.8631 55.1569 28.0664 55.4677 27.8856 55.5951C27.2163 56.0662 26.351 56.1487 25.5438 56.2435C24.5964 56.3546 23.6461 56.4438 22.6898 56.4394C20.4261 56.4291 18.2235 56.2038 16.2264 55.1569C14.7628 54.3897 13.3008 53.4958 12.5183 52.0432C12.1068 51.2791 12.0875 51.3535 11.2431 51.6584C10.5494 51.9089 9.85749 52.0727 9.12532 52.1857C7.99424 52.3602 7.10279 52.0966 6.02455 51.8009C2.60868 50.8642 1.18472 47.626 0.61623 44.5724C0.0904768 41.7484 1.40718 38.5007 3.37922 36.3607C4.69266 34.9353 6.45313 33.8358 8.21824 32.9691Z" fill="#D9D9D9"/>
<path d="M10.5903 32.2922C9.73794 32.2922 8.96577 32.6021 8.21824 32.9691C6.45313 33.8358 4.69266 34.9353 3.37922 36.3607C1.40718 38.5007 0.0904768 41.7484 0.61623 44.5724C1.18472 47.626 2.60868 50.8642 6.02455 51.8009C7.10279 52.0966 7.99424 52.3602 9.12532 52.1857C9.85749 52.0727 10.5494 51.9089 11.2431 51.6584C12.0875 51.3535 12.1068 51.2791 12.5183 52.0432C13.3008 53.4958 14.7628 54.3897 16.2264 55.1569C18.2235 56.2038 20.4261 56.4291 22.6898 56.4394C23.6461 56.4438 24.5964 56.3546 25.5438 56.2435C26.351 56.1487 27.2163 56.0662 27.8856 55.5951C28.0664 55.4677 28.8631 55.1569 29.2784 54.8077C29.5527 54.9014 29.7926 55.4208 29.9919 55.6058C30.1913 55.7907 31.091 56.4202 31.6619 56.7387C32.3759 57.137 33.028 57.4803 33.8404 57.6792C34.6881 57.8868 35.5856 57.9101 36.4554 57.9749C37.833 58.0775 39.4602 57.8728 40.6947 57.2802C41.5372 56.8758 42.3097 56.0269 42.767 55.2638C42.9394 54.976 43.0416 54.7182 43.1465 54.4087C43.2039 54.2394 43.1602 53.7329 43.3135 53.625C43.3274 53.6151 43.4846 53.7722 43.4919 53.7782C43.7011 53.9489 43.9155 54.1048 44.1636 54.2235C44.8769 54.5647 45.6428 54.7166 46.4332 54.8006C47.4511 54.9088 48.4176 54.8218 49.4277 54.6759C50.681 54.4949 51.6222 53.8807 52.6917 53.2723C53.7098 52.6931 54.6233 51.9861 55.4357 51.1668C56.1212 50.4755 56.8698 49.627 57.0715 48.6801C57.4728 46.7966 57.209 44.7934 56.4073 43.0441C55.5531 41.18 54.2483 39.4306 52.3919 38.3415C50.5645 37.2694 48.5969 36.8181 46.4484 36.9164C45.4951 36.9601 44.4573 37.1753 43.8259 37.8997C43.5852 38.1759 43.5836 37.7272 43.6019 37.5506C43.6607 36.9828 43.6019 35.8474 43.6019 35.3104C43.473 33.9678 42.7973 33.0799 42.3919 32.7595C41.9331 32.3968 41.1547 31.8298 40.6351 31.5511C39.9614 31.1897 39.2135 30.8472 38.473 30.5822C37.4048 30.1998 36.4387 30.0996 35.2978 30.1119C34.2745 30.1229 33.3704 30.4402 32.3868 30.6249C32.2608 30.6486 32.0094 30.7809 32.1249 30.5822C32.348 30.1982 32.4042 29.6391 32.3678 29.207C32.294 28.3299 31.8876 27.5706 31.3924 26.8414C30.7953 25.9622 30.0085 25.5573 29.0849 25.0103C28.1899 24.4802 27.2472 24.2622 26.2346 24.0199C25.105 23.7496 24.0374 23.4451 22.8644 23.3822C21.474 23.3076 20.1504 23.4338 18.7958 23.7491C17.5259 24.0447 16.3533 24.3289 15.2813 25.0673C13.8904 26.0253 12.7394 27.3599 11.9642 28.8151C11.2734 30.1121 10.4719 31.5351 10.3854 32.9976" stroke="black" stroke-opacity="0.15" stroke-linecap="round"/>
</svg>
