<svg width="68" height="40" viewBox="0 0 68 40" fill="none" xmlns="http://www.w3.org/2000/svg">
<path d="M29.3503 23.704C28.4806 23.4065 27.5783 22.7692 26.9549 22.1252C26.471 21.6252 26.1836 20.9471 26.0018 20.2794C25.8194 19.61 25.9588 18.9939 26.1884 18.3538C26.5962 17.2164 27.4592 16.0775 28.6909 15.8259C29.1872 15.7246 29.7895 15.592 30.2444 15.8546C30.4122 15.9514 30.1111 15.4879 30.0538 15.3015C29.9104 14.8348 29.7536 14.3692 29.6745 13.8859C29.4513 12.5213 29.8746 10.921 30.5689 9.74582C31.8582 7.56346 34.313 6.18865 36.8396 6.32065C37.1979 6.33938 37.5411 6.39185 37.886 6.48863C37.9837 6.51604 38.2926 6.63383 38.3018 6.48454C38.3524 5.66679 38.4149 4.86345 38.8575 4.13895C40.323 1.73969 43.2564 0.191406 46.0184 0.191406C47.2055 0.191406 48.1596 0.486151 49.1822 1.07638C50.0788 1.59393 50.9104 2.3811 51.6097 3.14541C51.8816 3.44253 52.2143 3.73616 52.4453 4.06726C52.6449 4.35345 52.7742 4.725 52.8975 5.05056C53.0317 5.4048 53.1571 5.78621 53.1571 6.16906C53.1571 6.36494 53.1336 6.56158 53.1044 6.75495C53.0932 6.82895 53.0784 6.89055 53.0597 6.94414C53.2822 6.7408 53.564 6.62454 53.8772 6.46637C54.3967 6.204 54.9145 5.93322 55.4895 5.81903C57.1962 5.48004 58.8506 6.07889 60.4176 6.66713C62.6987 7.5234 64.1446 9.25802 65.2402 11.3993C65.7351 12.3664 66.0894 13.3823 66.2827 14.4557C66.4898 15.6064 66.2556 16.8095 65.8446 17.8891C65.0235 20.0455 63.2058 21.4292 61.0422 22.0558C59.8523 22.4004 58.5419 22.4744 57.3106 22.4122L57.2068 22.407L57.2067 22.407C56.2093 22.3567 55.1993 22.3059 54.2118 22.1582C53.2727 22.0178 52.4103 21.6926 51.5064 21.4187C50.8158 21.2094 50.2513 20.8362 49.6041 20.5399C49.275 20.3892 48.9876 20.2232 48.6915 20.0154C48.5646 19.9265 48.3687 19.7409 48.2028 19.7409C48.1573 19.7409 48.0665 19.821 48.0385 19.8598C47.8725 20.0892 47.6426 20.275 47.4159 20.4415C47.0419 20.7163 46.7361 21.0536 46.343 21.306C45.8306 21.6351 45.3239 22.0137 44.7531 22.2299L44.7515 22.2305C43.6101 22.6629 42.383 23.1277 41.1411 23.0022C40.4222 22.9296 39.7535 22.6556 39.0442 22.5454C38.9365 22.5287 38.9042 22.7074 38.8677 22.781C38.7572 23.0043 38.6232 23.1717 38.4195 23.3177C38.0294 23.5973 37.7165 23.9186 37.2777 24.1289C36.7687 24.373 36.2555 24.6282 35.7141 24.7906C34.3634 25.1959 32.9414 25.1943 31.6297 24.6616C31.1498 24.4667 30.6695 24.2813 30.1877 24.0921C30.0345 24.0318 29.5684 23.8091 29.3503 23.704Z" fill="#DBDADA"/>
<path d="M7.72041 10.0617C8.25268 9.79718 8.80173 9.57206 9.40377 9.55296C9.58832 8.63797 10.0777 7.75131 10.5091 6.93149C11.0861 5.83488 11.943 4.82921 12.9785 4.1073C13.7765 3.5509 14.6494 3.33671 15.5948 3.114C16.6033 2.87643 17.5886 2.78129 18.6236 2.83749C19.4969 2.8849 20.2917 3.11437 21.1326 3.31803L21.1838 3.33043C21.9182 3.50818 22.6033 3.674 23.2545 4.06434C23.942 4.47656 24.5278 4.78168 24.9723 5.44422C25.341 5.99371 25.6435 6.56583 25.6984 7.22679C25.7255 7.5524 25.6837 7.97373 25.5176 8.26305C25.4316 8.4128 25.6188 8.31308 25.7126 8.29526C26.4448 8.15611 27.1178 7.917 27.8796 7.90868C28.729 7.8994 29.4482 7.97495 30.2434 8.26305C30.7946 8.46277 31.3514 8.72089 31.853 8.99322C32.2398 9.20324 32.8193 9.6305 33.1608 9.90377C33.4626 10.1452 33.9656 10.8143 34.0616 11.826C34.0616 12.2307 34.1054 13.0863 34.0616 13.5141C34.048 13.6472 34.0491 13.9853 34.2283 13.7772C34.6983 13.2313 35.471 13.0691 36.1807 13.0363C37.7801 12.9621 39.2449 13.3022 40.6052 14.1101C41.9872 14.9308 42.9586 16.2491 43.5945 17.6537C44.1913 18.9719 44.3877 20.4815 44.089 21.9008C43.9388 22.6143 43.3815 23.2537 42.8712 23.7746C42.2664 24.392 41.5864 24.9248 40.8284 25.3612C40.0322 25.8197 39.3315 26.2826 38.3986 26.4189C37.6466 26.5289 36.9271 26.5944 36.1694 26.5129C35.5809 26.4496 35.0108 26.3351 34.4798 26.078C34.295 25.9885 34.1354 25.8711 33.9797 25.7424C33.9743 25.738 33.8573 25.6196 33.8469 25.627C33.7328 25.7083 33.7653 26.09 33.7226 26.2176C33.6445 26.4508 33.5684 26.645 33.44 26.8619C33.0996 27.437 32.5245 28.0767 31.8974 28.3814C30.9783 28.8279 29.7669 28.9822 28.7414 28.9049C28.0939 28.856 27.4258 28.8385 26.7947 28.6821C26.1899 28.5321 25.7045 28.2735 25.1729 27.9733C24.7479 27.7333 24.0781 27.259 23.9297 27.1196C23.7813 26.9802 23.6027 26.5888 23.3986 26.5183C23.0893 26.7814 22.4963 27.0156 22.3616 27.1116C21.8634 27.4666 21.2193 27.5288 20.6184 27.6002C19.913 27.6839 19.2056 27.7511 18.4937 27.7478C16.8085 27.74 15.1687 27.5702 13.682 26.7814C12.5925 26.2032 11.5041 25.5297 10.9216 24.435C10.6152 23.8593 10.6009 23.9154 9.97226 24.1451C9.4558 24.3338 8.94074 24.4573 8.39568 24.5424C7.55365 24.6739 6.89002 24.4753 6.08733 24.2525C3.5444 23.5466 2.48434 21.1064 2.06114 18.8054C1.66974 16.6774 2.64995 14.2301 4.11803 12.6175C5.09581 11.5434 6.40639 10.7148 7.72041 10.0617Z" fill="#C0BDBD"/>
<path d="M7.81777 31.7746C8.24924 30.8606 9.65372 28.3372 10.3671 27.1248C10.0953 28.66 9.4938 31.4324 9.23726 32.2074C9.05751 32.7505 8.26099 34.9876 7.60941 34.8109C6.80844 34.5937 7.53013 32.3839 7.81777 31.7746Z" fill="#07BBE5"/>
<path d="M13.8608 33.2988C14.058 32.539 14.7648 30.4099 15.1339 29.3813C15.1481 30.5916 15.0894 32.7934 15.0056 33.4218C14.9469 33.862 14.6623 35.6841 14.14 35.6444C13.4979 35.5957 13.7294 33.8054 13.8608 33.2988Z" fill="#07BBE5"/>
<path d="M23.5009 33.8452C23.4435 33.1531 23.4117 31.1685 23.4193 30.2016C23.7844 31.2069 24.3782 33.0608 24.4917 33.6097C24.5713 33.9943 24.8657 35.5982 24.4184 35.7193C23.8686 35.8682 23.5391 34.3065 23.5009 33.8452Z" fill="#07BBE5"/>
<path d="M28.897 35.4914C28.8017 34.6414 28.6918 32.1986 28.6667 31.0076C29.1521 32.2325 29.9494 34.494 30.1087 35.1658C30.2204 35.6366 30.6401 37.601 30.0937 37.7663C29.4219 37.9694 28.9605 36.0582 28.897 35.4914Z" fill="#07BBE5"/>
<path d="M38.9878 31.4838C38.7843 30.7091 38.3513 28.4605 38.1666 27.3603C38.7825 28.4288 39.8279 30.4152 40.0666 31.016C40.2339 31.4369 40.8892 33.1997 40.4052 33.4278C39.8102 33.7082 39.1235 32.0003 38.9878 31.4838Z" fill="#07BBE5"/>
<path d="M43.2808 27.4545C43.4466 26.896 44.0258 25.335 44.326 24.5817C44.3054 25.4798 44.2052 27.1116 44.1268 27.5756C44.0719 27.9006 43.8139 29.2448 43.4275 29.2018C42.9524 29.1489 43.1702 27.8269 43.2808 27.4545Z" fill="#07BBE5"/>
<path d="M49.5986 27.4173C49.4844 26.6579 49.3031 24.4704 49.2402 23.403C49.7172 24.4851 50.5089 26.4865 50.6746 27.0837C50.7907 27.5021 51.2337 29.2499 50.7491 29.4169C50.1534 29.6221 49.6748 27.9235 49.5986 27.4173Z" fill="#07BBE5"/>
<path d="M56.4973 28.5124C56.1894 27.6756 55.4703 25.2298 55.1486 24.0303C55.9449 25.1483 57.3148 27.2377 57.6433 27.8778C57.8735 28.3264 58.7872 30.2098 58.275 30.5147C57.6454 30.8894 56.7027 29.0703 56.4973 28.5124Z" fill="#07BBE5"/>
<path d="M63.6256 27.4018C63.3838 26.8187 62.8052 25.1094 62.5434 24.2701C63.1386 25.038 64.1674 26.4764 64.4181 26.9198C64.5937 27.2304 65.2939 28.5364 64.9403 28.7668C64.5056 29.0501 63.7867 27.7905 63.6256 27.4018Z" fill="#07BBE5"/>
</svg>
