<svg width="64" height="41" viewBox="0 0 64 41" fill="none" xmlns="http://www.w3.org/2000/svg">
<path d="M14.6618 12.0097C14.9254 12.2732 15.4856 13.2171 15.7327 13.6561C15.1835 13.272 14.0357 12.4707 13.8379 12.339C13.5908 12.1744 11.7784 11.1042 12.0255 10.3634C12.2727 9.6225 14.3322 11.6805 14.6618 12.0097Z" fill="#EFC700"/>
<path d="M12.5279 20.4031C12.8665 20.4311 14.0486 20.5521 14.4079 20.6165C13.9304 20.7494 12.9921 21.1379 12.8238 21.1888C12.6133 21.2524 11.0859 21.6732 10.8052 21.1868C10.5245 20.7004 12.1874 20.3749 12.5279 20.4031Z" fill="#EFC700"/>
<path d="M20.9224 6.74153C21.0448 7.04727 21.6913 8.47022 22.0758 9.12877C22.0483 8.5251 21.9934 7.20252 21.9934 6.74153C21.9934 6.1653 21.5815 4.27197 20.9224 4.27197C20.2634 4.27197 20.7577 6.32994 20.9224 6.74153Z" fill="#EFC700"/>
<path d="M15.5837 8.41585C15.8989 8.79306 17.46 10.5128 18.2865 11.269C17.9256 10.4245 17.1414 8.5719 16.8914 7.91727C16.5789 7.09899 15.0493 4.60209 14.2446 4.90891C13.4399 5.21573 15.1594 7.90805 15.5837 8.41585Z" fill="#EFC700"/>
<path d="M10.2953 16.6195C10.9555 16.5695 13.0963 16.6195 14.2497 16.5371C13.3435 16.1256 11.9624 15.5618 11.2839 15.3847C10.4359 15.1633 6.58636 14.8567 6.36866 15.6894C6.15095 16.5221 9.63515 16.6695 10.2953 16.6195Z" fill="#EFC700"/>
<path d="M14.6222 26.862C15.1343 26.204 16.3394 24.0014 16.7458 23.0591C16.0507 23.6048 14.3076 24.9378 13.8906 25.3999C13.3693 25.9775 11.2009 28.7625 11.769 29.2743C12.337 29.7861 14.2612 27.3257 14.6222 26.862Z" fill="#EFC700"/>
<path d="M25.8655 7.4C25.6678 8.32196 25.7831 9.54028 25.8655 10.0342L26.607 8.05854L28.2546 5.25971C28.694 4.51884 29.4409 3.03711 28.9137 3.03711C28.3864 3.03711 27.5406 4.18957 27.1836 4.7658C26.8266 5.25971 26.0632 6.47803 25.8655 7.4Z" fill="#EFC700"/>
<path d="M29.8712 10.6707C29.5276 11.1875 29.2978 11.9602 29.2259 12.2819L30.1515 11.2501L31.8185 9.93062C32.2617 9.58212 33.0696 8.85372 32.7556 8.72813C32.4415 8.60254 31.6554 9.10599 31.3016 9.37341C30.968 9.59048 30.2148 10.1538 29.8712 10.6707Z" fill="#EFC700"/>
<path d="M33.7715 13.9988C32.8618 14.4494 31.9037 15.3553 31.5384 15.7519L33.6937 15.0482L37.1342 14.5437C38.047 14.4128 39.7872 14.0424 39.4455 13.6078C39.1038 13.1732 37.5787 13.243 36.8589 13.3323C36.2088 13.3667 34.6813 13.5482 33.7715 13.9988Z" fill="#EFC700"/>
<path d="M33.1976 18.8424C32.6534 18.729 31.9239 18.8586 31.6324 18.906L32.7857 19.4186L34.4334 20.3241C34.8707 20.5762 35.7632 20.9571 35.7631 20.6544C35.7631 20.3518 35.1855 19.788 34.8453 19.5832C34.5537 19.3784 33.7419 18.9557 33.1976 18.8424Z" fill="#EFC700"/>
<path d="M18.2636 27.252C18.4143 27.0023 18.8957 26.3613 19.1175 26.072C19.0737 26.6535 18.9685 27.8926 18.8982 28.1969C18.8104 28.5773 18.4525 29.2876 17.9061 29.1361C17.3596 28.9847 18.0753 27.564 18.2636 27.252Z" fill="#EFC700"/>
<path d="M27.0923 26.9542C26.9667 26.6911 26.6965 25.9365 26.577 25.5922C27.0386 25.949 28.0156 26.7193 28.2311 26.9455C28.5004 27.2283 28.8966 27.9179 28.4691 28.2903C28.0416 28.6626 27.2492 27.2832 27.0923 26.9542Z" fill="#EFC700"/>
<path d="M22.4591 28.1319C22.5384 27.5294 22.7708 26.5895 22.8771 26.1949C23.005 26.8757 23.2709 28.2846 23.3113 28.4738C23.3617 28.7102 23.7247 30.2902 23.7156 30.9786C23.7066 31.6669 23.4579 32.9367 23.1678 33.2816C22.8777 33.6265 22.676 32.6807 22.5553 32.3583C22.4346 32.036 22.5427 30.5946 22.5022 30.2828C22.4617 29.971 22.3599 28.885 22.4591 28.1319Z" fill="#EFC700"/>
<path d="M30.483 24.1791C30.1776 23.7274 29.7657 22.9638 29.5979 22.6385C30.0724 23.0308 31.0551 23.842 31.1898 23.9485C31.3582 24.0815 32.4988 24.956 32.8963 25.4278C33.2938 25.8995 33.8891 26.8956 33.9185 27.287C33.9479 27.6783 33.1567 27.3096 32.8963 27.1565C32.6359 27.0034 31.7145 26.1686 31.5497 25.8394C31.4243 25.5888 30.8649 24.7436 30.483 24.1791Z" fill="#EFC700"/>
<path d="M29.4903 18.1836C28.9137 22.0526 26.5918 24.7691 23.0163 24.7691C19.4408 24.7691 16.9683 21.8207 16.9683 18.1836C17.5646 14.5915 19.3573 12.339 23.0163 11.5981C26.5918 11.5981 29.4903 14.5466 29.4903 18.1836Z" fill="#EFC700"/>
<path d="M28.6014 36.1033C27.7836 35.8241 26.9353 35.2263 26.3491 34.6222C25.894 34.1532 25.6238 33.517 25.4528 32.8907C25.2814 32.2627 25.4124 31.6848 25.6283 31.0843C26.0118 30.0173 26.8232 28.9489 27.9814 28.7129C28.4481 28.6178 29.0144 28.4935 29.4422 28.7398C29.6 28.8307 29.3168 28.3959 29.2629 28.2209C29.1281 27.7831 28.9806 27.3464 28.9063 26.893C28.6964 25.6129 29.0944 24.1117 29.7473 23.0093C30.9596 20.962 33.2679 19.6723 35.6436 19.7962C35.9805 19.8137 36.3032 19.8629 36.6276 19.9537C36.7194 19.9794 37.0098 20.0899 37.0185 19.9499C37.0661 19.1828 37.1249 18.4292 37.541 17.7495C38.9191 15.4988 41.6773 14.0464 44.2745 14.0464C45.3907 14.0464 46.2878 14.3229 47.2493 14.8766C48.0924 15.3621 48.8744 16.1005 49.5319 16.8175C49.7876 17.0962 50.1005 17.3717 50.3176 17.6823C50.5053 17.9507 50.6269 18.2993 50.7429 18.6047C50.869 18.937 50.987 19.2948 50.987 19.6539C50.987 19.8377 50.9649 20.0222 50.9374 20.2036C50.9269 20.273 50.913 20.3308 50.8953 20.381C51.1046 20.1903 51.3696 20.0812 51.664 19.9328C52.1525 19.6867 52.6395 19.4327 53.1801 19.3256C54.7849 19.0076 56.3405 19.5694 57.814 20.1212C59.9588 20.9244 61.3185 22.5517 62.3487 24.5603C62.814 25.4676 63.1472 26.4206 63.3289 27.4275C63.5236 28.507 63.3035 29.6356 62.917 30.6483C62.1449 32.6712 60.4357 33.9693 58.4013 34.5571C57.2824 34.8804 56.0503 34.9498 54.8925 34.8915L54.7948 34.8865L54.7947 34.8865C53.8569 34.8394 52.9072 34.7917 51.9787 34.6532C51.0956 34.5215 50.2847 34.2164 49.4348 33.9594C48.7854 33.7631 48.2546 33.4129 47.6461 33.135C47.3366 32.9937 47.0664 32.8379 46.7879 32.6431C46.6687 32.5596 46.4844 32.3855 46.3284 32.3855C46.2857 32.3855 46.2003 32.4607 46.1739 32.497C46.0179 32.7122 45.8016 32.8866 45.5885 33.0428C45.2368 33.3005 44.9493 33.617 44.5797 33.8537C44.0978 34.1624 43.6213 34.5176 43.0846 34.7204L43.0832 34.721C42.0099 35.1266 40.8561 35.5626 39.6884 35.4449C39.0123 35.3768 38.3835 35.1198 37.7166 35.0164C37.6154 35.0007 37.5849 35.1683 37.5507 35.2374C37.4467 35.4468 37.3207 35.6039 37.1292 35.7409C36.7624 36.0032 36.4682 36.3045 36.0556 36.5019C35.5769 36.7308 35.0944 36.9702 34.5853 37.1226C33.3153 37.5027 31.9782 37.5013 30.7447 37.0015C30.2935 36.8187 29.8419 36.6448 29.3889 36.4673C29.2448 36.4108 28.8065 36.2018 28.6014 36.1033Z" fill="#BFBDBD"/>
<path d="M5.80365 23.3054C6.30414 23.0572 6.82042 22.846 7.3865 22.8281C7.56004 21.9698 8.02018 21.138 8.42583 20.3689C8.96844 19.3402 9.77416 18.3968 10.7478 17.7196C11.4982 17.1977 12.319 16.9967 13.2079 16.7878C14.1562 16.5649 15.0826 16.4757 16.0559 16.5284C16.8771 16.5729 17.6244 16.7881 18.4151 16.9792L18.4633 16.9908C19.1538 17.1576 19.798 17.3131 20.4103 17.6793C21.0568 18.066 21.6076 18.3522 22.0256 18.9738C22.3722 19.4892 22.6567 20.0259 22.7083 20.646C22.7338 20.9514 22.6945 21.3466 22.5383 21.6181C22.4575 21.7585 22.6335 21.665 22.7216 21.6483C23.4102 21.5177 24.043 21.2934 24.7593 21.2856C25.558 21.2769 26.2342 21.3478 26.982 21.6181C27.5003 21.8054 28.0238 22.0475 28.4955 22.303C28.8592 22.5 29.4041 22.9008 29.7252 23.1572C30.009 23.3837 30.482 24.0114 30.5722 24.9604C30.5722 25.3401 30.6134 26.1427 30.5722 26.544C30.5594 26.6689 30.5605 26.986 30.729 26.7908C31.171 26.2787 31.8975 26.1266 32.5648 26.0957C34.0687 26.0262 35.446 26.3452 36.7252 27.1031C38.0247 27.873 38.938 29.1096 39.536 30.4273C40.0972 31.6639 40.2818 33.08 40.0009 34.4114C39.8597 35.0808 39.3357 35.6806 38.8559 36.1692C38.2872 36.7484 37.6477 37.2482 36.9351 37.6576C36.1864 38.0877 35.5275 38.5219 34.6503 38.6499C33.9432 38.753 33.2667 38.8145 32.5541 38.738C32.0008 38.6786 31.4647 38.5712 30.9654 38.33C30.7917 38.2461 30.6417 38.136 30.4952 38.0152C30.4901 38.011 30.3801 37.9 30.3703 37.9069C30.263 37.9832 30.2936 38.3413 30.2534 38.461C30.18 38.6798 30.1085 38.862 29.9878 39.0654C29.6676 39.6049 29.1269 40.2049 28.5372 40.4908C27.673 40.9097 26.534 41.0544 25.5696 40.9819C24.9608 40.9361 24.3326 40.9196 23.7392 40.7728C23.1705 40.6322 22.714 40.3896 22.2142 40.108C21.8146 39.8829 21.1848 39.4379 21.0452 39.3071C20.9057 39.1764 20.7378 38.8092 20.5458 38.743C20.255 38.9898 19.6974 39.2096 19.5708 39.2996C19.1023 39.6327 18.4966 39.691 17.9316 39.7579C17.2683 39.8365 16.6032 39.8995 15.9337 39.8965C14.3491 39.8892 12.8073 39.7299 11.4093 38.9898C10.3848 38.4475 9.36144 37.8157 8.81371 36.7888C8.52561 36.2486 8.51216 36.3013 7.92105 36.5168C7.43543 36.6938 6.95112 36.8096 6.4386 36.8895C5.64684 37.0129 5.02283 36.8265 4.26806 36.6175C1.87695 35.9554 0.880181 33.6663 0.48224 31.5077C0.114213 29.5114 1.0359 27.2157 2.41633 25.7029C3.33574 24.6953 4.56807 23.918 5.80365 23.3054Z" fill="#E3E3E3"/>
</svg>
