<svg width="49" height="46" viewBox="0 0 49 46" fill="none" xmlns="http://www.w3.org/2000/svg">
<path d="M12.6033 13.7948C12.9834 14.1851 13.7909 15.5837 14.1472 16.2342C13.3555 15.665 11.7008 14.4778 11.4158 14.2827C11.0595 14.0387 8.44679 12.4531 8.80307 11.3554C9.15934 10.2576 12.1283 13.3069 12.6033 13.7948Z" fill="#EFC700"/>
<path d="M9.52726 26.2314C10.0153 26.2729 11.7194 26.4522 12.2373 26.5477C11.5489 26.7446 10.1964 27.3202 9.95371 27.3956C9.65039 27.4899 7.44854 28.1133 7.04388 27.3927C6.63922 26.6721 9.0363 26.1897 9.52726 26.2314Z" fill="#EFC700"/>
<path d="M21.6288 5.98875C21.8052 6.44176 22.7372 8.55017 23.2914 9.52594C23.2519 8.63148 23.1727 6.6718 23.1727 5.98875C23.1727 5.13495 22.5789 2.32959 21.6288 2.32959C20.6787 2.32959 21.3914 5.37889 21.6288 5.98875Z" fill="#EFC700"/>
<path d="M13.9323 8.46994C14.3866 9.02884 16.637 11.5769 17.8285 12.6974C17.3083 11.4462 16.1777 8.70115 15.8174 7.73119C15.3669 6.51872 13.1618 2.81906 12.0018 3.27367C10.8417 3.72828 13.3206 7.71752 13.9323 8.46994Z" fill="#EFC700"/>
<path d="M6.30903 20.6252C7.26069 20.5511 10.3468 20.6252 12.0095 20.5032C10.7032 19.8934 8.71221 19.058 7.7342 18.7956C6.51169 18.4676 0.962361 18.0133 0.648524 19.2472C0.334688 20.481 5.35737 20.6994 6.30903 20.6252Z" fill="#EFC700"/>
<path d="M12.5466 35.8013C13.2849 34.8264 15.0221 31.5627 15.6079 30.1665C14.6059 30.975 12.0931 32.9502 11.492 33.6349C10.7406 34.4908 7.61472 38.6173 8.43358 39.3757C9.25244 40.134 12.0263 36.4884 12.5466 35.8013Z" fill="#EFC700"/>
<path d="M28.7543 6.96452C28.4693 8.33061 28.6355 10.1358 28.7543 10.8676L29.8231 7.9403L32.1983 3.79325C32.8317 2.6955 33.9084 0.5 33.1484 0.5C32.3883 0.5 31.1691 2.20761 30.6544 3.06141C30.1398 3.79325 29.0393 5.59843 28.7543 6.96452Z" fill="#EFC700"/>
<path d="M34.5288 11.811C34.0334 12.5768 33.7022 13.7216 33.5985 14.1983L34.9328 12.6695L37.336 10.7144C37.9749 10.198 39.1395 9.11877 38.6868 8.93269C38.2341 8.7466 37.1009 9.49256 36.5908 9.88881C36.1099 10.2104 35.0241 11.0452 34.5288 11.811Z" fill="#EFC700"/>
<path d="M40.1513 16.7426C38.8399 17.4102 37.4587 18.7524 36.9321 19.3401L40.0391 18.2975L44.9988 17.5499C46.3146 17.356 48.8232 16.8071 48.3307 16.1632C47.8381 15.5193 45.6396 15.6227 44.6019 15.7549C43.6648 15.8059 41.4627 16.0749 40.1513 16.7426Z" fill="#EFC700"/>
<path d="M39.324 23.9187C38.5395 23.7508 37.4879 23.9428 37.0677 24.013L38.7302 24.7725L41.1054 26.1142C41.7359 26.4877 43.0225 27.0521 43.0224 26.6037C43.0223 26.1553 42.1896 25.3199 41.6992 25.0165C41.2788 24.713 40.1086 24.0867 39.324 23.9187Z" fill="#EFC700"/>
<path d="M17.7961 36.3797C18.0133 36.0098 18.7072 35.06 19.0271 34.6314C18.9639 35.493 18.8122 37.3289 18.7109 37.7798C18.5842 38.3435 18.0684 39.3959 17.2806 39.1715C16.4929 38.9471 17.5246 36.8421 17.7961 36.3797Z" fill="#EFC700"/>
<path d="M30.5225 35.9387C30.3415 35.5488 29.9519 34.4308 29.7798 33.9205C30.4451 34.4493 31.8535 35.5905 32.1642 35.9257C32.5525 36.3447 33.1236 37.3666 32.5073 37.9183C31.891 38.47 30.7487 36.4262 30.5225 35.9387Z" fill="#EFC700"/>
<path d="M23.8438 37.6831C23.9581 36.7903 24.2932 35.3977 24.4465 34.813C24.6308 35.8217 25.0141 37.9093 25.0723 38.1896C25.145 38.5399 25.6682 40.881 25.6552 41.9009C25.6422 42.9209 25.2837 44.8023 24.8655 45.3134C24.4473 45.8245 24.1565 44.423 23.9825 43.9454C23.8085 43.4678 23.9644 41.332 23.906 40.87C23.8476 40.408 23.7009 38.799 23.8438 37.6831Z" fill="#EFC700"/>
<path d="M35.4111 31.8262C34.9707 31.157 34.377 30.0256 34.1351 29.5436C34.8192 30.1249 36.2358 31.3269 36.43 31.4846C36.6727 31.6816 38.3169 32.9775 38.89 33.6765C39.463 34.3754 40.3212 35.8514 40.3635 36.4312C40.4059 37.0111 39.2654 36.4647 38.89 36.2379C38.5146 36.0111 37.1863 34.7742 36.9488 34.2863C36.768 33.915 35.9615 32.6627 35.4111 31.8262Z" fill="#EFC700"/>
<path d="M33.9798 22.9428C33.1485 28.6755 29.8014 32.7006 24.6471 32.7006C19.4928 32.7006 15.9285 28.3319 15.9285 22.9428C16.7881 17.6204 19.3725 14.2828 24.6471 13.1851C29.8014 13.1851 33.9798 17.5538 33.9798 22.9428Z" fill="#EFC700"/>
</svg>
