<svg width="73" height="49" viewBox="0 0 73 49" fill="none" xmlns="http://www.w3.org/2000/svg">
<path d="M9.04063 33.1376L12.5001 26.1333L17.6893 27.9874L15.8514 31.3865L18.7704 30.8715L8.71631 40.7599L12.5001 31.3865L9.04063 33.1376Z" fill="#F6A107"/>
<path d="M21.9055 38.3909L23.9596 26.3394L31.419 28.1934L29.7974 33.0346L34.0136 30.7685L25.365 49.0003L26.3379 33.8587L21.9055 38.3909Z" fill="#FED301"/>
<path d="M6.67459 11.0493C7.24658 10.78 7.83661 10.5508 8.48357 10.5314C8.6819 9.5998 9.20777 8.69707 9.67137 7.86239C10.2915 6.74592 11.2123 5.72203 12.3251 4.98703C13.1827 4.42056 14.1207 4.20248 15.1366 3.97574C16.2203 3.73386 17.2792 3.637 18.3915 3.69422C19.3299 3.74249 20.184 3.97611 21.0877 4.18346L21.1427 4.19609C21.932 4.37706 22.6682 4.54588 23.3679 4.9433C24.1068 5.36299 24.7362 5.67364 25.2139 6.34818C25.6101 6.90762 25.9352 7.49011 25.9943 8.16305C26.0233 8.49455 25.9784 8.92352 25.7999 9.21808C25.7076 9.37054 25.9087 9.26902 26.0094 9.25088C26.7963 9.1092 27.5196 8.86576 28.3382 8.85729C29.251 8.84784 30.0238 8.92476 30.8784 9.21808C31.4708 9.42141 32.0691 9.68421 32.6081 9.96148C33.0238 10.1753 33.6465 10.6103 34.0135 10.8885C34.3378 11.1344 34.8784 11.8156 34.9816 12.8456C34.9816 13.2576 35.0286 14.1287 34.9816 14.5643C34.9669 14.6998 34.9681 15.044 35.1607 14.8321C35.6658 14.2764 36.4961 14.1113 37.2587 14.0778C38.9775 14.0023 40.5516 14.3486 42.0135 15.1711C43.4986 16.0066 44.5425 17.3488 45.2259 18.7789C45.8672 20.121 46.0783 21.6579 45.7572 23.1029C45.5958 23.8293 44.997 24.4803 44.4486 25.0107C43.7986 25.6393 43.0679 26.1817 42.2534 26.626C41.3978 27.0928 40.6448 27.5641 39.6422 27.7029C38.8341 27.8148 38.0609 27.8816 37.2466 27.7986C36.6142 27.7341 36.0015 27.6176 35.4309 27.3558C35.2324 27.2647 35.0609 27.1452 34.8935 27.0141C34.8877 27.0096 34.762 26.8891 34.7508 26.8966C34.6282 26.9794 34.6631 27.3681 34.6172 27.4979C34.5333 27.7354 34.4515 27.9331 34.3136 28.1539C33.9477 28.7394 33.3298 29.3907 32.6558 29.7009C31.6681 30.1556 30.3664 30.3126 29.2643 30.2339C28.5685 30.1842 27.8505 30.1663 27.1723 30.007C26.5224 29.8544 26.0007 29.5911 25.4295 29.2855C24.9728 29.0411 24.253 28.5582 24.0936 28.4163C23.9341 28.2744 23.7422 27.8759 23.5227 27.8041C23.1905 28.0719 22.5531 28.3104 22.4084 28.4081C21.873 28.7696 21.1808 28.8329 20.5351 28.9055C19.7771 28.9908 19.0169 29.0592 18.2518 29.0559C16.4409 29.048 14.6788 28.8751 13.0811 28.0719C11.9102 27.4833 10.7406 26.7976 10.1147 25.6831C9.78541 25.0969 9.77003 25.154 9.09449 25.3879C8.53948 25.58 7.986 25.7057 7.40026 25.7924C6.49539 25.9263 5.78223 25.724 4.91964 25.4972C2.18694 24.7786 1.04777 22.2942 0.592984 19.9515C0.172381 17.7849 1.22574 15.2932 2.80338 13.6514C3.85413 12.5578 5.26251 11.7143 6.67459 11.0493Z" fill="#D9D9D9"/>
<path d="M8.57225 10.53C7.89035 10.53 7.27261 10.7677 6.67459 11.0493C5.26251 11.7143 3.85413 12.5578 2.80338 13.6514C1.22574 15.2932 0.172381 17.7849 0.592984 19.9515C1.04777 22.2942 2.18694 24.7786 4.91964 25.4972C5.78223 25.724 6.49539 25.9263 7.40026 25.7924C7.986 25.7057 8.53948 25.58 9.09449 25.3879C9.77003 25.154 9.78541 25.0969 10.1147 25.6831C10.7406 26.7976 11.9102 27.4833 13.0811 28.0719C14.6788 28.8751 16.4409 29.048 18.2518 29.0559C19.0169 29.0592 19.7771 28.9908 20.5351 28.9055C21.1808 28.8329 21.873 28.7696 22.4084 28.4081C22.5531 28.3104 23.1905 28.0719 23.5227 27.8041C23.7422 27.8759 23.9341 28.2744 24.0936 28.4163C24.253 28.5582 24.9728 29.0411 25.4295 29.2855C26.0007 29.5911 26.5224 29.8544 27.1723 30.007C27.8505 30.1663 28.5685 30.1842 29.2643 30.2339C30.3664 30.3126 31.6681 30.1556 32.6558 29.7009C33.3297 29.3907 33.9477 28.7394 34.3136 28.1539C34.4515 27.9331 34.5333 27.7354 34.6172 27.4979C34.6631 27.3681 34.6282 26.9794 34.7508 26.8966C34.762 26.8891 34.8877 27.0096 34.8935 27.0141C35.0609 27.1452 35.2324 27.2647 35.4309 27.3558C36.0015 27.6176 36.6142 27.7341 37.2466 27.7986C38.0609 27.8816 38.8341 27.8148 39.6422 27.7029C40.6448 27.5641 41.3978 27.0928 42.2534 26.626C43.0679 26.1817 43.7986 25.6393 44.4486 25.0107C44.997 24.4803 45.5958 23.8293 45.7572 23.1029C46.0783 21.6579 45.8672 20.121 45.2259 18.7789C44.5425 17.3488 43.4986 16.0066 42.0135 15.1711C40.5516 14.3486 38.9775 14.0023 37.2587 14.0778C36.4961 14.1113 35.6658 14.2764 35.1607 14.8321C34.9681 15.044 34.9669 14.6998 34.9816 14.5643C35.0286 14.1287 34.9816 13.2576 34.9816 12.8456C34.8784 11.8156 34.3378 11.1344 34.0135 10.8885C33.6465 10.6103 33.0238 10.1753 32.6081 9.96148C32.0691 9.68421 31.4708 9.42141 30.8784 9.21808C30.0238 8.92476 29.251 8.84784 28.3382 8.85729C27.5196 8.86576 26.7963 9.1092 26.0094 9.25088C25.9087 9.26902 25.7076 9.37054 25.7999 9.21808C25.9784 8.92352 26.0233 8.49455 25.9943 8.16305C25.9352 7.49011 25.6101 6.90762 25.2139 6.34818C24.7362 5.67364 24.1068 5.36299 23.3679 4.9433C22.652 4.53666 21.8978 4.36935 21.0877 4.18346C20.184 3.97611 19.3299 3.74249 18.3915 3.69422C17.2792 3.637 16.2203 3.73386 15.1366 3.97574C14.1207 4.20248 13.1827 4.42056 12.3251 4.98703C11.2123 5.72203 10.2915 6.74592 9.67137 7.86239C9.1187 8.85743 8.47754 9.94918 8.40829 11.0712" stroke="black" stroke-opacity="0.15" stroke-linecap="round"/>
<path d="M41.0979 21.2132C41.4643 20.8621 41.689 20.3838 41.957 19.9707C41.957 20.3981 41.5681 21.5237 41.2568 22.2627C40.9026 23.1033 40.3325 24.0572 39.6114 24.6662C39.136 25.0676 38.4052 25.466 37.7483 25.3372C37.2895 25.2472 36.9596 24.9338 36.882 24.4967C36.7777 23.9088 37.148 23.3487 37.637 23.0141C37.843 22.8731 38.0654 22.8213 38.3031 22.7513C38.5763 22.6709 38.8445 22.5629 39.1083 22.4582C39.8302 22.1717 40.5447 21.7435 41.0979 21.2132Z" fill="#C2C2C2"/>
<path d="M42.6621 28.296L46.1216 22.7338L53.6891 20.1587L50.1216 24.9999L52.9324 24.6909L43.6351 33.7553L46.6621 26.545L42.6621 28.296Z" fill="#F6A107"/>
<path d="M53.9053 28.6053C54.8422 27.0602 56.9539 23.5993 57.9053 22.116L67.2026 21.189L63.635 25.3091L67.2026 24.1761L56.0674 34.5795L59.7431 26.5452L53.9053 28.6053Z" fill="#FED301"/>
<path d="M32.729 24.9386C31.7944 24.6357 30.8248 23.9868 30.1549 23.3312C29.6348 22.8222 29.326 22.1317 29.1306 21.452C28.9346 20.7704 29.0844 20.1432 29.3311 19.4915C29.7694 18.3335 30.6967 17.1739 32.0204 16.9178C32.5538 16.8146 33.201 16.6796 33.6898 16.947C33.8702 17.0456 33.5465 16.5737 33.485 16.3838C33.3309 15.9087 33.1624 15.4347 33.0774 14.9426C32.8376 13.5533 33.2924 11.924 34.0385 10.7275C35.4241 8.50562 38.0621 7.1059 40.7772 7.2403C41.1622 7.25936 41.5311 7.31278 41.9017 7.41132C42.0067 7.43922 42.3386 7.55914 42.3485 7.40715C42.4029 6.57458 42.4701 5.7567 42.9457 5.01907C44.5206 2.57633 47.6729 1 50.641 1C51.9167 1 52.942 1.30009 54.0409 1.90101C55.0044 2.42793 55.8981 3.22937 56.6496 4.00752C56.9417 4.31002 57.2993 4.60898 57.5475 4.94607C57.762 5.23745 57.901 5.61574 58.0335 5.94719C58.1777 6.30785 58.3125 6.69617 58.3125 7.08596C58.3125 7.28539 58.2872 7.48559 58.2558 7.68246C58.2438 7.75781 58.2279 7.82051 58.2078 7.87507C58.4468 7.66806 58.7497 7.54968 59.0863 7.38865C59.6445 7.12153 60.201 6.84584 60.8189 6.72958C62.653 6.38445 64.4308 6.99416 66.1147 7.59305C68.566 8.46483 70.1199 10.2309 71.2973 12.4109C71.8291 13.3955 72.2099 14.4299 72.4175 15.5227C72.6401 16.6943 72.3885 17.9192 71.9468 19.0183C71.0644 21.2138 69.111 22.6226 66.786 23.2605C65.5072 23.6114 64.0991 23.6868 62.7759 23.6234L62.6643 23.6181L62.6642 23.6181C61.5924 23.5669 60.507 23.5151 59.4458 23.3648C58.4367 23.2219 57.5099 22.8908 56.5386 22.6119C55.7964 22.3988 55.1897 22.0188 54.4943 21.7171C54.1406 21.5637 53.8318 21.3947 53.5136 21.1832C53.3772 21.0926 53.1666 20.9037 52.9884 20.9037C52.9395 20.9037 52.8419 20.9853 52.8118 21.0247C52.6335 21.2583 52.3864 21.4475 52.1428 21.617C51.7409 21.8967 51.4122 22.2402 50.9899 22.4972C50.4391 22.8322 49.8946 23.2177 49.2812 23.4378L49.2796 23.4384C48.0529 23.8786 46.7343 24.3518 45.3998 24.2241C44.6271 24.1502 43.9085 23.8712 43.1463 23.759C43.0306 23.742 42.9958 23.9239 42.9567 23.9989C42.8379 24.2262 42.6939 24.3966 42.475 24.5453C42.0558 24.83 41.7196 25.1571 41.248 25.3712C40.701 25.6197 40.1496 25.8795 39.5677 26.0449C38.1163 26.4575 36.5881 26.4559 35.1785 25.9135C34.6628 25.7151 34.1466 25.5264 33.6289 25.3337C33.4642 25.2724 32.9634 25.0456 32.729 24.9386Z" fill="#BFBDBD"/>
<path d="M32.8965 24.9893C31.9116 24.7134 30.8649 24.0261 30.1549 23.3312C29.6348 22.8222 29.326 22.1317 29.1306 21.452C28.9346 20.7704 29.0844 20.1432 29.3311 19.4915C29.7694 18.3335 30.6967 17.1739 32.0204 16.9178C32.5538 16.8146 33.201 16.6796 33.6898 16.947C33.8702 17.0456 33.5465 16.5737 33.485 16.3838C33.3309 15.9087 33.1624 15.4347 33.0774 14.9426C32.8376 13.5533 33.2924 11.924 34.0385 10.7275C35.4241 8.50562 38.0621 7.1059 40.7772 7.2403C41.1622 7.25936 41.5311 7.31278 41.9017 7.41132C42.0067 7.43922 42.3386 7.55914 42.3485 7.40715C42.4029 6.57458 42.4701 5.7567 42.9457 5.01907C44.5206 2.57633 47.6729 1 50.641 1C51.9167 1 52.942 1.30009 54.0409 1.90101C55.0044 2.42793 55.8981 3.22937 56.6496 4.00752C56.9417 4.31002 57.2993 4.60898 57.5475 4.94607C57.762 5.23746 57.901 5.61574 58.0335 5.94719C58.1777 6.30785 58.3125 6.69617 58.3125 7.08596C58.3125 7.28539 58.2872 7.48559 58.2558 7.68246C58.2032 8.01161 58.0771 8.09957 57.8461 8.32067M32.6056 24.8821C32.6056 24.8821 33.4111 25.2526 33.6289 25.3337C34.1466 25.5264 34.6628 25.7151 35.1785 25.9135C36.5881 26.4559 38.1163 26.4575 39.5677 26.0449C40.1496 25.8795 40.701 25.6197 41.248 25.3712C41.7196 25.1571 42.0558 24.83 42.475 24.5453C42.6939 24.3966 42.8379 24.2262 42.9567 23.9989C42.9958 23.9239 43.0306 23.742 43.1463 23.759C43.9085 23.8712 44.6271 24.1502 45.3998 24.2241C46.7343 24.3518 48.0529 23.8786 49.2796 23.4384L49.2812 23.4378C49.8946 23.2177 50.4391 22.8322 50.9899 22.4972C51.4122 22.2402 51.7409 21.8967 52.1428 21.617C52.3864 21.4475 52.6335 21.2583 52.8118 21.0247C52.8419 20.9853 52.9395 20.9037 52.9884 20.9037C53.1666 20.9037 53.3772 21.0926 53.5136 21.1832C53.8318 21.3947 54.1406 21.5637 54.4943 21.7171C55.1897 22.0188 55.7964 22.3988 56.5386 22.6119C57.5099 22.8908 58.4367 23.2219 59.4458 23.3648C60.5071 23.5151 61.5925 23.5669 62.6643 23.6181L62.7759 23.6234C64.0991 23.6867 65.5072 23.6114 66.786 23.2605C69.111 22.6226 71.0644 21.2138 71.9468 19.0183C72.3885 17.9192 72.6401 16.6943 72.4175 15.5227C72.2099 14.4299 71.8291 13.3955 71.2973 12.4109C70.1199 10.2309 68.566 8.46483 66.1147 7.59305C64.4308 6.99416 62.653 6.38445 60.8189 6.72958C60.201 6.84584 59.6445 7.12153 59.0863 7.38865C58.5619 7.63953 58.1194 7.78687 57.8723 8.3272" stroke="black" stroke-opacity="0.15" stroke-linecap="round"/>
</svg>
