<svg width="79" height="45" viewBox="0 0 79 45" fill="none" xmlns="http://www.w3.org/2000/svg">
<path d="M7.16989 35.7574C7.51169 34.8832 8.65603 32.4545 9.24216 31.285C9.09426 32.7219 8.72314 35.3245 8.53619 36.0582C8.40521 36.5723 7.81289 38.694 7.18726 38.5763C6.41821 38.4316 6.94203 36.3402 7.16989 35.7574Z" fill="#07BBE5"/>
<path d="M33.9698 39.2583C33.533 38.4686 32.4404 36.1338 31.9361 34.9842C32.9108 35.9829 34.6124 37.8665 35.041 38.457C35.3413 38.8708 36.5487 40.616 36.0731 40.9953C35.4883 41.4616 34.261 39.7848 33.9698 39.2583Z" fill="#07BBE5"/>
<path d="M18.8863 42.1661C19.073 41.2694 19.7795 38.7471 20.1535 37.5269C20.2454 38.9351 20.3124 41.5021 20.252 42.2388C20.2096 42.755 19.985 44.8938 19.3629 44.8798C18.5982 44.8626 18.7618 42.764 18.8863 42.1661Z" fill="#07BBE5"/>
<path d="M45.6092 34.5407C45.9245 33.6797 46.9908 31.2838 47.5385 30.1293C47.4245 31.5359 47.1172 34.0857 46.9501 34.8063C46.8331 35.3111 46.2995 37.3959 45.6859 37.2938C44.9316 37.1683 45.399 35.1147 45.6092 34.5407Z" fill="#07BBE5"/>
<path d="M58.462 33.6801C58.4209 32.663 58.5009 29.7546 58.5744 28.3391C59.0546 29.8347 59.8215 32.5875 59.9556 33.3985C60.0496 33.9668 60.3859 36.3344 59.7107 36.4832C58.8807 36.6662 58.4894 34.3581 58.462 33.6801Z" fill="#07BBE5"/>
<path d="M72.7409 30.7018C72.4595 30.0357 71.7859 28.0827 71.4811 27.1237C72.1741 28.0011 73.3717 29.6445 73.6636 30.1511C73.868 30.506 74.6832 31.9982 74.2715 32.2615C73.7655 32.5851 72.9286 31.1459 72.7409 30.7018Z" fill="#07BBE5"/>
<path d="M63.0405 31.2624L65.0981 25.1151L69.5991 22.269L67.4772 27.6195L69.149 27.278L63.6192 37.296L65.4196 29.3271L63.0405 31.2624Z" fill="#F6A107"/>
<path d="M50.6262 30.3424C51.0058 29.142 51.8614 26.4532 52.2468 25.3008L56.0136 24.5806L54.5682 27.7816L56.0136 26.9013L51.5022 34.9838L52.9914 28.7419L50.6262 30.3424Z" fill="#FED301"/>
<path d="M13.33 35.2024L15.2643 29.667L18.1658 31.1322L17.1382 33.8185L18.7703 33.4115L13.1487 41.2262L15.2643 33.8185L13.33 35.2024Z" fill="#F6A107"/>
<path d="M23.2301 37.6215L23.8677 30.7333L27.9921 31.5045L27.3035 34.3011L29.5033 32.8638L25.5295 43.49L25.4574 34.8953L23.2301 37.6215Z" fill="#FED301"/>
<path d="M35.4148 27.864C34.4023 27.524 33.3519 26.7959 32.6262 26.0601C32.0628 25.4889 31.7282 24.7141 31.5165 23.9513C31.3042 23.1864 31.4665 22.4825 31.7337 21.7512C32.2085 20.4517 33.2132 19.1504 34.6472 18.863C35.2249 18.7472 35.9261 18.5957 36.4557 18.8957C36.6511 19.0064 36.3005 18.4768 36.2338 18.2638C36.0668 17.7305 35.8843 17.1986 35.7923 16.6465C35.5324 15.0873 36.0252 13.259 36.8335 11.9163C38.3345 9.42283 41.1923 7.85206 44.1337 8.00288C44.5508 8.02427 44.9503 8.08422 45.3519 8.19481C45.4656 8.22611 45.8252 8.36069 45.8359 8.19013C45.8948 7.25582 45.9676 6.33798 46.4828 5.51021C48.189 2.76897 51.604 1 54.8195 1C56.2015 1 57.3122 1.33676 58.5027 2.01111C59.5465 2.60243 60.5146 3.5018 61.3288 4.37505C61.6453 4.71452 62.0326 5.05001 62.3015 5.42829C62.5339 5.75529 62.6844 6.17979 62.828 6.55175C62.9842 6.95648 63.1302 7.39226 63.1302 7.82968C63.1302 8.05348 63.1029 8.27815 63.0688 8.49908C63.0558 8.58363 63.0386 8.654 63.0168 8.71523C63.2758 8.48292 63.6039 8.35008 63.9685 8.16937C64.5733 7.8696 65.1761 7.56023 65.8455 7.42976C67.8324 7.04245 69.7584 7.72666 71.5827 8.39874C74.2383 9.37706 75.9216 11.3589 77.1971 13.8054C77.7732 14.9103 78.1857 16.0711 78.4107 17.2975C78.6518 18.6122 78.3792 19.9868 77.9007 21.2202C76.9448 23.684 74.8287 25.2649 72.3099 25.9808C70.9246 26.3746 69.399 26.4591 67.9656 26.3881L67.8447 26.3821L67.8446 26.3821C66.6835 26.3247 65.5077 26.2665 64.358 26.0979C63.2647 25.9375 62.2607 25.5659 61.2085 25.2529C60.4045 25.0138 59.7473 24.5874 58.9939 24.2488C58.6107 24.0767 58.2762 23.887 57.9314 23.6497C57.7837 23.548 57.5556 23.336 57.3624 23.336C57.3095 23.336 57.2038 23.4275 57.1712 23.4718C56.978 23.7339 56.7103 23.9462 56.4464 24.1365C56.011 24.4504 55.655 24.8358 55.1974 25.1242C54.6008 25.5002 54.0109 25.9328 53.3464 26.1798L53.3446 26.1805C52.0157 26.6744 50.5872 27.2055 49.1414 27.0622C48.3044 26.9792 47.5259 26.6662 46.7002 26.5402C46.5749 26.5211 46.5372 26.7253 46.4948 26.8094C46.3661 27.0645 46.2101 27.2558 45.973 27.4226C45.5189 27.7421 45.1546 28.1091 44.6438 28.3495C44.0511 28.6283 43.4537 28.9199 42.8234 29.1055C41.251 29.5685 39.5955 29.5667 38.0684 28.958C37.5098 28.7354 36.9506 28.5236 36.3897 28.3073C36.2113 28.2385 35.6687 27.984 35.4148 27.864Z" fill="#BFBDBD"/>
<path d="M35.5963 27.9208C34.5293 27.6113 33.3954 26.84 32.6262 26.0601C32.0628 25.4889 31.7282 24.7141 31.5165 23.9513C31.3042 23.1864 31.4665 22.4826 31.7337 21.7512C32.2085 20.4517 33.2132 19.1504 34.6472 18.863C35.2249 18.7472 35.9261 18.5957 36.4557 18.8957C36.6511 19.0064 36.3005 18.4768 36.2338 18.2638C36.0668 17.7305 35.8843 17.1986 35.7923 16.6465C35.5324 15.0873 36.0252 13.259 36.8335 11.9163C38.3345 9.42283 41.1923 7.85206 44.1337 8.00288C44.5508 8.02427 44.9503 8.08422 45.3519 8.19481C45.4656 8.22611 45.8252 8.36069 45.8359 8.19013C45.8948 7.25582 45.9676 6.33798 46.4828 5.51021C48.189 2.76897 51.604 1 54.8195 1C56.2015 1 57.3122 1.33676 58.5027 2.01111C59.5465 2.60243 60.5146 3.5018 61.3288 4.37505C61.6452 4.71452 62.0326 5.05001 62.3015 5.42829C62.5339 5.75529 62.6844 6.17979 62.828 6.55175C62.9842 6.95648 63.1302 7.39226 63.1302 7.82968C63.1302 8.05348 63.1029 8.27815 63.0688 8.49908C63.0119 8.86845 62.8752 8.96716 62.6249 9.21528M35.2811 27.8006C35.2811 27.8006 36.1538 28.2164 36.3897 28.3073C36.9506 28.5236 37.5098 28.7354 38.0684 28.958C39.5955 29.5667 41.251 29.5685 42.8234 29.1055C43.4537 28.9199 44.0511 28.6283 44.6438 28.3495C45.1546 28.1091 45.5189 27.7421 45.973 27.4226C46.2101 27.2558 46.3661 27.0645 46.4948 26.8094C46.5372 26.7253 46.5749 26.5211 46.7002 26.5402C47.5259 26.6662 48.3044 26.9792 49.1414 27.0622C50.5872 27.2055 52.0157 26.6745 53.3446 26.1805L53.3464 26.1798C54.0109 25.9328 54.6008 25.5002 55.1974 25.1242C55.655 24.8358 56.011 24.4504 56.4464 24.1365C56.7103 23.9462 56.978 23.7339 57.1712 23.4718C57.2038 23.4275 57.3095 23.336 57.3624 23.336C57.5556 23.336 57.7837 23.548 57.9314 23.6497C58.2762 23.887 58.6107 24.0767 58.9939 24.2488C59.7473 24.5874 60.4045 25.0138 61.2085 25.2529C62.2607 25.5659 63.2647 25.9375 64.358 26.0979C65.5077 26.2666 66.6836 26.3247 67.8447 26.3821L67.9656 26.3881C69.399 26.4591 70.9246 26.3746 72.3099 25.9808C74.8287 25.2649 76.9448 23.684 77.9007 21.2202C78.3792 19.9868 78.6518 18.6122 78.4107 17.2975C78.1857 16.0711 77.7732 14.9103 77.1971 13.8054C75.9216 11.3589 74.2383 9.37706 71.5827 8.39874C69.7584 7.72666 67.8324 7.04245 65.8455 7.42976C65.1761 7.56023 64.5733 7.8696 63.9685 8.16937C63.4005 8.4509 62.921 8.61624 62.6534 9.22261" stroke="black" stroke-opacity="0.15" stroke-linecap="round"/>
<path d="M7.18914 12.2773C7.8088 11.975 8.448 11.7178 9.14887 11.696C9.36373 10.6506 9.93342 9.63753 10.4357 8.70086C11.1075 7.44795 12.105 6.29894 13.3105 5.47412C14.2395 4.83842 15.2558 4.5937 16.3563 4.33924C17.5304 4.06781 18.6774 3.95911 19.8824 4.02332C20.8991 4.07749 21.8244 4.33967 22.8033 4.57236L22.8629 4.58652C23.718 4.78961 24.5155 4.97906 25.2736 5.42505C26.074 5.89602 26.7559 6.24463 27.2734 7.00161C27.7026 7.62941 28.0548 8.28309 28.1188 9.03826C28.1503 9.41027 28.1016 9.89166 27.9083 10.2222C27.8082 10.3933 28.0261 10.2794 28.1352 10.259C28.9877 10.1 29.7712 9.82684 30.6581 9.81734C31.6469 9.80674 32.4841 9.89305 33.4099 10.2222C34.0517 10.4504 34.6998 10.7453 35.2838 11.0565C35.7341 11.2964 36.4087 11.7846 36.8063 12.0968C37.1577 12.3727 37.7432 13.1371 37.855 14.293C37.855 14.7554 37.906 15.7329 37.855 16.2217C37.8392 16.3738 37.8405 16.7601 38.0491 16.5223C38.5963 15.8987 39.4958 15.7133 40.322 15.6758C42.184 15.5911 43.8893 15.9797 45.473 16.9027C47.0819 17.8403 48.2127 19.3465 48.953 20.9514C49.6478 22.4575 49.8764 24.1822 49.5286 25.8038C49.3538 26.619 48.705 27.3496 48.111 27.9447C47.4069 28.6501 46.6152 29.2588 45.7328 29.7575C44.8059 30.2813 43.9902 30.8101 42.904 30.966C42.0286 31.0916 41.191 31.1664 40.3088 31.0733C39.6238 31.001 38.96 30.8702 38.3418 30.5764C38.1268 30.4742 37.941 30.3401 37.7596 30.193C37.7534 30.1879 37.6171 30.0527 37.605 30.0611C37.4722 30.154 37.51 30.5902 37.4603 30.7359C37.3694 31.0024 37.2808 31.2243 37.1314 31.4721C36.735 32.1291 36.0656 32.86 35.3354 33.2081C34.2655 33.7183 32.8552 33.8946 31.6613 33.8062C30.9075 33.7504 30.1297 33.7304 29.395 33.5516C28.6909 33.3804 28.1258 33.0849 27.507 32.7419C27.0122 32.4677 26.2324 31.9258 26.0597 31.7665C25.887 31.6073 25.679 31.1601 25.4413 31.0795C25.0813 31.38 24.3909 31.6477 24.2341 31.7573C23.6541 32.163 22.9042 32.234 22.2047 32.3155C21.3835 32.4113 20.56 32.488 19.7311 32.4842C17.7693 32.4754 15.8603 32.2814 14.1295 31.38C12.8611 30.7195 11.594 29.95 10.9159 28.6993C10.5592 28.0414 10.5425 28.1055 9.81069 28.368C9.20944 28.5837 8.60983 28.7247 7.97528 28.822C6.99501 28.9722 6.22242 28.7453 5.28794 28.4907C2.32752 27.6842 1.09342 24.8963 0.600732 22.2673C0.14508 19.8359 1.28622 17.0398 2.99532 15.1973C4.13364 13.9701 5.65938 13.0234 7.18914 12.2773Z" fill="#D9D9D9"/>
<path d="M9.24494 11.6945C8.50621 11.6945 7.837 11.9613 7.18914 12.2773C5.65938 13.0234 4.13364 13.9701 2.99532 15.1973C1.28622 17.0398 0.14508 19.8359 0.600732 22.2673C1.09342 24.8963 2.32752 27.6842 5.28794 28.4907C6.22242 28.7453 6.99501 28.9722 7.97528 28.822C8.60983 28.7247 9.20944 28.5837 9.81069 28.368C10.5425 28.1055 10.5592 28.0414 10.9159 28.6993C11.594 29.95 12.8611 30.7195 14.1295 31.38C15.8603 32.2814 17.7693 32.4754 19.7311 32.4842C20.56 32.488 21.3835 32.4113 22.2047 32.3155C22.9042 32.234 23.6541 32.163 24.2341 31.7573C24.3909 31.6477 25.0813 31.38 25.4413 31.0795C25.679 31.1601 25.887 31.6073 26.0597 31.7665C26.2324 31.9258 27.0122 32.4677 27.507 32.7419C28.1258 33.0849 28.6909 33.3804 29.395 33.5516C30.1297 33.7304 30.9075 33.7504 31.6613 33.8062C32.8552 33.8946 34.2655 33.7183 35.3354 33.2081C36.0656 32.86 36.735 32.1291 37.1314 31.4721C37.2808 31.2243 37.3694 31.0024 37.4603 30.7359C37.51 30.5902 37.4722 30.154 37.605 30.0611C37.6171 30.0527 37.7534 30.1879 37.7596 30.193C37.941 30.3401 38.1268 30.4742 38.3418 30.5764C38.96 30.8702 39.6238 31.001 40.3088 31.0733C41.191 31.1664 42.0286 31.0915 42.9041 30.966C43.9902 30.8101 44.8059 30.2813 45.7328 29.7575C46.6152 29.2588 47.4069 28.6501 48.111 27.9447C48.705 27.3496 49.3538 26.619 49.5286 25.8038C49.8764 24.1822 49.6478 22.4575 48.953 20.9514C48.2127 19.3465 47.0819 17.8403 45.473 16.9027C43.8893 15.9797 42.184 15.5911 40.322 15.6758C39.4958 15.7133 38.5963 15.8987 38.0491 16.5223C37.8405 16.7601 37.8392 16.3738 37.855 16.2217C37.906 15.7329 37.855 14.7554 37.855 14.293C37.7432 13.1371 37.1577 12.3727 36.8063 12.0968C36.4087 11.7846 35.7341 11.2964 35.2838 11.0565C34.6998 10.7453 34.0517 10.4504 33.4099 10.2222C32.4841 9.89305 31.6469 9.80674 30.6581 9.81734C29.7712 9.82684 28.9877 10.1 28.1352 10.259C28.026 10.2794 27.8082 10.3933 27.9083 10.2222C28.1016 9.89166 28.1503 9.41027 28.1188 9.03826C28.0548 8.28309 27.7026 7.62941 27.2734 7.00161C26.7559 6.24463 26.074 5.89602 25.2736 5.42505C24.498 4.96871 23.6809 4.78096 22.8033 4.57236C21.8244 4.33967 20.8991 4.07749 19.8824 4.02332C18.6774 3.95911 17.5304 4.06781 16.3563 4.33924C15.2558 4.5937 14.2395 4.83842 13.3105 5.47412C12.105 6.29894 11.1075 7.44795 10.4357 8.70086C9.83693 9.81749 9.14233 11.0427 9.06732 12.3018" stroke="black" stroke-opacity="0.15" stroke-linecap="round"/>
</svg>
