<svg width="94" height="44" viewBox="0 0 94 44" fill="none" xmlns="http://www.w3.org/2000/svg">
<path d="M56.0912 33.6196C56.8024 33.8635 57.2632 33.8436 58.1435 33.9161C64.3394 34.4261 70.574 34.8455 76.7823 34.7679C78.4779 34.7468 80.1755 34.6669 81.8606 34.4613C83.1421 34.305 84.2273 34.2914 85.0057 33.1244C85.4441 32.4673 85.2893 31.5203 85.1909 30.7663C85.0111 29.3879 84.5643 28.0557 84.0053 26.8285C83.6627 26.0762 83.3931 25.4606 82.6917 25.0761C80.5008 23.8749 77.3664 23.5261 75.1467 24.7155C73.7625 25.4572 72.954 27.4698 73.4804 29.179C73.9211 30.6097 75.1614 31.3143 76.3859 31.391C77.4052 31.4548 78.8295 31.0354 78.998 29.6224C79.178 28.114 77.2663 27.7772 76.4464 27.4332" stroke="#D9D9D9" stroke-width="2" stroke-linecap="round"/>
<path d="M50.9802 27.5892C54.189 27.5892 57.4022 27.8048 60.6081 28.0516C62.5961 28.2047 64.5969 28.5692 66.5881 28.5421C67.2791 28.5328 68.0674 28.5126 68.7236 27.9605C69.3345 27.4466 69.2927 25.9467 69.0101 24.8703C68.5164 22.9901 67.6302 21.4254 66.8047 20.2525C65.4087 18.2695 63.8234 16.937 62.1206 17.4286C61.0528 17.7369 59.9253 18.9872 59.1323 20.4978C58.9349 20.8739 58.6008 21.5343 58.6293 22.1936C58.6731 23.2069 59.3908 24.0231 59.7686 24.3378C60.4117 24.8734 61.1275 24.8388 61.8041 24.7652C62.1856 24.7237 63.21 24.8279 63.3932 23.7632C63.7941 21.4347 61.9887 21.9333 61.4743 21.9133" stroke="#D9D9D9" stroke-width="2" stroke-linecap="round"/>
<path d="M55.617 41.1235C56.9005 40.6094 58.2321 39.5083 59.152 38.3957C59.8662 37.5319 60.2903 36.3603 60.5587 35.2067C60.8278 34.0501 60.6221 32.9857 60.2834 31.8797C59.6815 29.9147 58.4079 27.9468 56.5901 27.5122C55.8577 27.3371 54.9689 27.1081 54.2975 27.5618C54.0499 27.7291 54.4943 26.9283 54.5789 26.6061C54.7905 25.7998 55.0219 24.9954 55.1385 24.1605C55.4679 21.8027 54.8433 19.0379 53.8187 17.0075C51.9159 13.2369 48.2932 10.8616 44.5646 11.0897C44.0358 11.122 43.5293 11.2127 43.0202 11.3799C42.8761 11.4273 42.4203 11.6308 42.4067 11.3728C42.332 9.95999 42.2398 8.57204 41.5866 7.3203C39.4238 3.17501 35.0949 0.5 31.0187 0.5C29.2668 0.5 27.8588 1.00924 26.3497 2.02899C25.0265 2.92318 23.7993 4.2832 22.7672 5.60372C22.366 6.11706 21.875 6.62438 21.5341 7.19642C21.2396 7.6909 21.0487 8.33283 20.8667 8.89531C20.6687 9.50733 20.4836 10.1663 20.4836 10.8278C20.4836 11.1662 20.5183 11.5059 20.5615 11.84C20.578 11.9679 20.5998 12.0743 20.6274 12.1669C20.2991 11.8156 19.8831 11.6147 19.421 11.3414C18.6543 10.8881 17.8901 10.4203 17.0416 10.223C14.5229 9.63734 12.0814 10.672 9.76885 11.6883C6.40252 13.1677 4.26861 16.1647 2.65172 19.8642C1.92144 21.5351 1.39849 23.2903 1.11336 25.1449C0.807693 27.1329 1.15322 29.2117 1.75982 31.0768C2.97157 34.8025 5.65407 37.1932 8.84704 38.2758C10.6031 38.8712 12.5369 38.9991 14.354 38.8916L14.5073 38.8826L14.5075 38.8826C15.9794 38.7957 17.4699 38.7078 18.9272 38.4528C20.3131 38.2102 21.5858 37.6483 22.9197 37.1751C23.9388 36.8135 24.772 36.1686 25.7271 35.6567C26.2128 35.3963 26.6368 35.1095 27.0739 34.7506C27.2611 34.5969 27.5503 34.2763 27.7951 34.2763C27.8622 34.2763 27.9962 34.4147 28.0376 34.4816C28.2825 34.878 28.6219 35.1991 28.9564 35.4868C29.5083 35.9614 29.9596 36.5443 30.5396 36.9804C31.2959 37.549 32.0437 38.2031 32.8861 38.5766L32.8884 38.5777C34.5729 39.3247 36.3837 40.1277 38.2165 39.911C39.2775 39.7855 40.2644 39.3121 41.3111 39.1217C41.4699 39.0928 41.5177 39.4015 41.5715 39.5287C41.7346 39.9145 41.9324 40.2038 42.2329 40.456C42.8086 40.9392 43.2704 41.4942 43.918 41.8576C44.6692 42.2792 45.4265 42.7201 46.2255 43.0008C48.2188 43.701 50.3174 43.6983 52.2532 42.7778C52.9613 42.4411 53.6702 42.1209 54.3812 41.7939C54.6074 41.6899 55.2951 41.305 55.617 41.1235Z" fill="#E3E3E3"/>
<path d="M55.3869 41.2094C56.7395 40.7413 58.1769 39.575 59.152 38.3957C59.8662 37.5319 60.2903 36.3603 60.5587 35.2067C60.8278 34.0501 60.6221 32.9857 60.2834 31.8797C59.6815 29.9147 58.4079 27.9468 56.5901 27.5122C55.8577 27.3371 54.9689 27.1081 54.2975 27.5618C54.0499 27.7291 54.4943 26.9283 54.5789 26.6061C54.7905 25.7998 55.0219 24.9954 55.1385 24.1605C55.4679 21.8027 54.8433 19.0379 53.8187 17.0075C51.9159 13.2369 48.2932 10.8616 44.5646 11.0897C44.0358 11.122 43.5293 11.2127 43.0202 11.3799C42.8761 11.4273 42.4203 11.6308 42.4067 11.3728C42.332 9.95999 42.2398 8.57204 41.5866 7.3203C39.4238 3.17501 35.0949 0.5 31.0187 0.5C29.2668 0.5 27.8588 1.00924 26.3497 2.02899C25.0265 2.92318 23.7993 4.2832 22.7672 5.60372C22.366 6.11706 21.875 6.62438 21.5341 7.19642C21.2396 7.6909 21.0487 8.33283 20.8667 8.89531C20.6687 9.50733 20.4836 10.1663 20.4836 10.8278C20.4836 11.1662 20.5183 11.5059 20.5615 11.84C20.6336 12.3986 20.8068 12.5479 21.1241 12.9231M55.7866 41.0276C55.7866 41.0276 54.6803 41.6563 54.3812 41.7939C53.6702 42.1209 52.9613 42.4411 52.2532 42.7778C50.3174 43.6983 48.2188 43.701 46.2255 43.0008C45.4265 42.7201 44.6692 42.2792 43.918 41.8576C43.2704 41.4942 42.8086 40.9392 42.2329 40.456C41.9324 40.2038 41.7346 39.9145 41.5715 39.5287C41.5177 39.4015 41.4699 39.0928 41.3111 39.1217C40.2644 39.3121 39.2775 39.7855 38.2165 39.911C36.3837 40.1277 34.5729 39.3247 32.8884 38.5777L32.8861 38.5766C32.0437 38.2031 31.2959 37.549 30.5397 36.9804C29.9596 36.5443 29.5083 35.9614 28.9564 35.4868C28.6219 35.1991 28.2825 34.878 28.0376 34.4816C27.9962 34.4147 27.8622 34.2763 27.7951 34.2763C27.5503 34.2763 27.2611 34.5969 27.0739 34.7506C26.6368 35.1095 26.2128 35.3963 25.727 35.6567C24.772 36.1686 23.9388 36.8135 22.9197 37.1751C21.5858 37.6483 20.3131 38.2102 18.9272 38.4528C17.4698 38.7078 15.9792 38.7958 14.5073 38.8826L14.354 38.8916C12.5369 38.9991 10.6031 38.8712 8.84704 38.2758C5.65407 37.1932 2.97157 34.8025 1.75982 31.0768C1.15322 29.2117 0.807693 27.1329 1.11336 25.1449C1.39849 23.2903 1.92144 21.5351 2.65172 19.8642C4.26861 16.1647 6.40252 13.1677 9.76885 11.6883C12.0814 10.672 14.5229 9.63734 17.0416 10.223C17.8901 10.4203 18.6543 10.8881 19.421 11.3414C20.141 11.7672 20.7488 12.0172 21.088 12.9341" stroke="black" stroke-opacity="0.15" stroke-linecap="round"/>
</svg>
