<svg width="21" height="28" viewBox="0 0 21 28" fill="none" xmlns="http://www.w3.org/2000/svg">
<path d="M10.0262 13.7915C10.6285 13.7915 11.1432 13.5632 11.5703 13.1066C11.9974 12.65 12.2109 12.1011 12.2109 11.4599C12.2109 10.8187 11.9965 10.2708 11.5675 9.81616C11.1386 9.36152 10.623 9.1342 10.0207 9.1342C9.41835 9.1342 8.90365 9.36251 8.47656 9.81912C8.04948 10.2757 7.83594 10.8246 7.83594 11.4658C7.83594 12.107 8.05041 12.6549 8.47935 13.1095C8.90826 13.5642 9.42389 13.7915 10.0262 13.7915ZM10.0234 24.8026C12.7943 22.1191 14.8411 19.6852 16.1641 17.5007C17.487 15.3162 18.1484 13.3923 18.1484 11.729C18.1484 9.11668 17.3642 6.97771 15.7956 5.31207C14.227 3.64643 12.303 2.8136 10.0234 2.8136C7.74392 2.8136 5.81988 3.64643 4.25131 5.31207C2.68273 6.97771 1.89844 9.11668 1.89844 11.729C1.89844 13.3923 2.57552 15.3162 3.92969 17.5007C5.28386 19.6852 7.31511 22.1191 10.0234 24.8026ZM10.0234 27.4307C6.66927 24.3923 4.16406 21.5703 2.50781 18.9644C0.851563 16.3585 0.0234375 13.9467 0.0234375 11.729C0.0234375 8.40234 1.02865 5.75213 3.03906 3.77833C5.04948 1.80453 7.37761 0.817627 10.0234 0.817627C12.6693 0.817627 14.9974 1.80453 17.0078 3.77833C19.0182 5.75213 20.0234 8.40234 20.0234 11.729C20.0234 13.9467 19.1953 16.3585 17.5391 18.9644C15.8828 21.5703 13.3776 24.3923 10.0234 27.4307Z" fill="#134B98"/>
</svg>
