<svg width="360" height="551" viewBox="0 0 360 551" fill="none" xmlns="http://www.w3.org/2000/svg">
<path d="M-29.3173 0V467.791C-29.3173 500.952 -30.5775 542.002 0.855831 548.814C27.8789 554.67 35.6806 539.278 65.7662 539.278C90.3439 539.278 101.705 554.263 122.502 548.814C143.298 543.365 149.438 530.45 170.667 526.494C191.895 522.538 209.817 539.278 234.425 531.863C248.952 527.486 262.204 514.133 285.105 514.133C308.005 514.133 319.092 524.721 341.585 518.994C360.677 514.133 368.877 486.136 368.224 467.791V0H-29.3173Z" fill="url(#paint0_linear_249_374)" fill-opacity="0.4"/>
<path d="M0.526782 0V448.478C0.526782 480.271 -0.611731 519.626 27.7849 526.157C52.1972 531.771 59.2453 517.014 86.4242 517.014C108.627 517.014 118.891 531.381 137.679 526.157C156.466 520.932 162.013 508.551 181.19 504.758C200.368 500.965 216.559 517.014 238.788 509.906C251.913 505.709 263.884 492.907 284.572 492.907C305.261 492.907 315.277 503.058 335.596 497.568C352.844 492.907 360.252 466.066 359.662 448.478V0H0.526782Z" fill="url(#paint1_linear_249_374)" fill-opacity="0.8"/>
<path d="M221.428 149.453C223.924 140.306 234.528 136.558 241.074 135.191C241.666 138.761 243.41 148.431 239.408 155.784C234.038 165.653 218.766 159.206 221.428 149.453Z" fill="#07BBE5"/>
<path d="M290.543 201.023C293.039 191.877 303.643 188.128 310.189 186.761C310.781 190.331 312.525 200.001 308.523 207.354C303.152 217.223 287.881 210.776 290.543 201.023Z" fill="#07BBE5"/>
<path d="M217.666 239.592C220.162 230.445 230.767 226.697 237.312 225.33C237.904 228.9 239.648 238.57 235.647 245.923C230.276 255.792 215.005 249.345 217.666 239.592Z" fill="#07BBE5"/>
<defs>
<linearGradient id="paint0_linear_249_374" x1="169.496" y1="0" x2="169.496" y2="550.143" gradientUnits="userSpaceOnUse">
<stop stop-color="#C2E59C"/>
<stop offset="0.979181" stop-color="#64B3F4"/>
</linearGradient>
<linearGradient id="paint1_linear_249_374" x1="180.133" y1="0" x2="180.133" y2="527.431" gradientUnits="userSpaceOnUse">
<stop stop-color="#C2E59C"/>
<stop offset="0.979181" stop-color="#64B3F4"/>
</linearGradient>
</defs>
</svg>
