<svg width="360" height="553" viewBox="0 0 360 553" fill="none" xmlns="http://www.w3.org/2000/svg">
<path d="M-29.3173 0V470.166C-29.3173 503.496 -30.5775 544.754 0.855831 551.6C27.8789 557.486 35.6806 542.016 65.7662 542.016C90.3439 542.016 101.705 557.077 122.502 551.6C143.298 546.123 149.438 533.143 170.667 529.167C191.895 525.191 209.817 542.016 234.425 534.564C248.952 530.164 262.204 516.743 285.105 516.743C308.005 516.743 319.092 527.384 341.585 521.629C360.677 516.743 368.877 488.604 368.224 470.166V0H-29.3173Z" fill="url(#paint0_linear_249_373)" fill-opacity="0.4"/>
<path d="M0.526782 0V450.755C0.526782 482.709 -0.611731 522.264 27.7849 528.828C52.1972 534.47 59.2453 519.639 86.4242 519.639C108.627 519.639 118.891 534.079 137.679 528.828C156.466 523.577 162.013 511.133 181.19 507.321C200.368 503.509 216.559 519.639 238.788 512.495C251.913 508.277 263.884 495.41 284.572 495.41C305.261 495.41 315.277 505.612 335.596 500.094C352.844 495.41 360.252 468.432 359.662 450.755V0H0.526782Z" fill="url(#paint1_linear_249_373)" fill-opacity="0.8"/>
<path d="M221.498 123.958L231.127 109.997C231.5 109.455 232.116 109.132 232.773 109.132H246.386C248.019 109.132 248.964 110.983 248.006 112.305L238.952 124.809C238.262 125.761 238.943 127.094 240.119 127.094C241.467 127.094 242.076 128.781 241.039 129.643L222.51 145.018C220.835 146.407 218.46 144.502 219.453 142.566L225.894 130.006C226.576 128.675 225.61 127.094 224.114 127.094H223.144C221.533 127.094 220.583 125.285 221.498 123.958Z" fill="#ADB4B9"/>
<path d="M261.021 279.864L270.65 265.902C271.024 265.361 271.639 265.037 272.297 265.037H285.91C287.542 265.037 288.487 266.888 287.53 268.21L278.475 280.714C277.786 281.666 278.466 282.999 279.642 282.999C280.991 282.999 281.6 284.687 280.562 285.548L262.033 300.923C260.359 302.312 257.984 300.407 258.976 298.471L265.417 285.912C266.1 284.581 265.133 282.999 263.637 282.999H262.668C261.056 282.999 260.106 281.19 261.021 279.864Z" fill="#ADB4B9"/>
<path d="M307.37 202.149L316.998 188.187C317.372 187.646 317.987 187.323 318.645 187.323H332.258C333.891 187.323 334.835 189.173 333.878 190.496L324.824 202.999C324.134 203.951 324.814 205.284 325.99 205.284C327.339 205.284 327.948 206.972 326.91 207.833L308.381 223.208C306.707 224.597 304.332 222.692 305.325 220.756L311.765 208.197C312.448 206.866 311.481 205.284 309.986 205.284H309.016C307.404 205.284 306.455 203.475 307.37 202.149Z" fill="#F9F9F9"/>
<path d="M185 104.132L365 104.132" stroke="#ADB4B9" stroke-width="14" stroke-linecap="round"/>
<path d="M224.523 260.038L404.523 260.037" stroke="#ADB4B9" stroke-width="14" stroke-linecap="round"/>
<path d="M205.414 181.847L385.414 181.847" stroke="#F9F9F9" stroke-width="14" stroke-linecap="round"/>
<defs>
<linearGradient id="paint0_linear_249_373" x1="169.496" y1="0" x2="169.496" y2="552.936" gradientUnits="userSpaceOnUse">
<stop stop-color="#304352"/>
<stop offset="0.979181" stop-color="#D7D2CC"/>
</linearGradient>
<linearGradient id="paint1_linear_249_373" x1="180.133" y1="0" x2="180.133" y2="530.108" gradientUnits="userSpaceOnUse">
<stop stop-color="#304352"/>
<stop offset="0.979181" stop-color="#D7D2CC"/>
</linearGradient>
</defs>
</svg>
