<svg width="276" height="56" viewBox="0 0 276 56" fill="none" xmlns="http://www.w3.org/2000/svg">
<path d="M0.89209 14.3926C0.89209 13.8926 0.98584 13.4395 1.17334 13.0332C1.39209 12.5957 1.79834 12.377 2.39209 12.377C2.89209 12.377 3.37646 12.8926 3.84521 13.9238C4.34521 14.9551 4.84521 16.2832 5.34521 17.9082C5.87646 19.502 6.42334 21.2676 6.98584 23.2051C7.54834 25.1113 8.14209 26.9707 8.76709 28.7832C9.39209 30.5645 10.0483 32.1738 10.7358 33.6113C11.4233 35.0176 12.1577 36.002 12.939 36.5645C13.689 36.252 14.2827 35.7051 14.7202 34.9238C15.189 34.1113 15.564 33.1582 15.8452 32.0645C16.1265 30.9395 16.3296 29.7363 16.4546 28.4551C16.6108 27.1426 16.7515 25.8457 16.8765 24.5645C17.0327 23.252 17.189 21.9863 17.3452 20.7676C17.5015 19.5176 17.7202 18.4238 18.0015 17.4863C18.314 16.5488 18.7046 15.7988 19.1733 15.2363C19.6421 14.6738 20.2358 14.3926 20.9546 14.3926C21.3921 14.3926 21.7827 14.4395 22.1265 14.5332C22.4702 14.5957 22.7671 14.9082 23.0171 15.4707C23.1421 15.877 23.3452 16.4707 23.6265 17.252C23.9077 18.0332 24.2202 18.9395 24.564 19.9707C24.939 21.002 25.3452 22.1113 25.7827 23.2988C26.2515 24.4551 26.7202 25.5957 27.189 26.7207C27.689 27.8457 28.1733 28.9238 28.6421 29.9551C29.1108 30.9551 29.564 31.8145 30.0015 32.5332C30.064 32.6582 30.2202 32.8613 30.4702 33.1426C30.7515 33.3926 30.939 33.5332 31.0327 33.5645L33.0483 31.5488C33.5796 31.0176 33.9858 30.2363 34.2671 29.2051C34.5483 28.1426 34.7515 26.9238 34.8765 25.5488C35.0327 24.1738 35.1265 22.7051 35.1577 21.1426C35.2202 19.5488 35.2671 17.9707 35.2983 16.4082C35.3296 14.8457 35.3921 13.3301 35.4858 11.8613C35.5796 10.3926 35.7358 9.11133 35.9546 8.01758C36.1733 6.89258 36.4858 6.00195 36.8921 5.3457C37.2983 4.68945 37.8608 4.36133 38.5796 4.36133C38.6108 4.36133 38.6421 4.37695 38.6733 4.4082C38.7358 4.4082 38.7983 4.4082 38.8608 4.4082C38.9546 4.43945 39.0171 4.45508 39.0483 4.45508C39.0796 4.45508 39.1577 4.51758 39.2827 4.64258C39.4077 4.73633 39.5171 4.83008 39.6108 4.92383C39.7358 5.01758 39.8296 5.11133 39.8921 5.20508C39.9858 5.29883 40.0483 5.37695 40.0796 5.43945C40.0796 5.6582 40.0796 6.04883 40.0796 6.61133C40.1108 7.17383 40.1265 7.7832 40.1265 8.43945C40.1265 9.0957 40.1265 9.7207 40.1265 10.3145C40.1577 10.877 40.1733 11.2676 40.1733 11.4863C40.1733 12.1113 40.1577 12.9707 40.1265 14.0645C40.1265 15.1582 40.0796 16.4082 39.9858 17.8145C39.9233 19.1895 39.814 20.6738 39.6577 22.2676C39.5327 23.8301 39.3296 25.3926 39.0483 26.9551C38.7671 28.4863 38.4077 29.9707 37.9702 31.4082C37.564 32.8145 37.0483 34.0645 36.4233 35.1582C35.8296 36.2207 35.1265 37.0801 34.314 37.7363C33.5327 38.3613 32.5952 38.6738 31.5015 38.6738C30.439 38.6738 29.5327 38.3301 28.7827 37.6426C28.064 36.9238 27.439 36.0488 26.9077 35.0176C26.3765 33.9551 25.9233 32.8145 25.5483 31.5957C25.1733 30.3457 24.7827 29.1895 24.3765 28.127C24.0015 27.0645 23.5796 26.1895 23.1108 25.502C22.6733 24.7832 22.1265 24.4238 21.4702 24.4238C21.4077 24.4238 21.314 24.4395 21.189 24.4707C21.0952 24.502 21.0171 24.5176 20.9546 24.5176C20.9233 24.6426 20.8296 25.1895 20.6733 26.1582C20.5171 27.127 20.2983 28.2832 20.0171 29.627C19.7358 30.9395 19.3921 32.3613 18.9858 33.8926C18.5796 35.4238 18.1108 36.8301 17.5796 38.1113C17.0796 39.3926 16.5171 40.4707 15.8921 41.3457C15.2983 42.1895 14.6421 42.6113 13.9233 42.6113C12.4546 42.6113 11.1108 42.0645 9.89209 40.9707C8.67334 39.8457 7.57959 38.4082 6.61084 36.6582C5.67334 34.877 4.84521 32.9082 4.12646 30.752C3.40771 28.5957 2.79834 26.4863 2.29834 24.4238C1.82959 22.3301 1.47021 20.3926 1.22021 18.6113C1.00146 16.7988 0.89209 15.3926 0.89209 14.3926ZM42.9858 29.5801C42.9858 27.8926 43.189 26.2051 43.5952 24.5176C44.0015 22.8301 44.6421 21.3145 45.5171 19.9707C46.4233 18.627 47.5796 17.5332 48.9858 16.6895C50.4233 15.8457 52.1577 15.4238 54.189 15.4238C55.3452 15.4238 56.3608 15.6426 57.2358 16.0801C58.1108 16.4863 58.8452 17.0332 59.439 17.7207C60.0327 18.4082 60.4702 19.2207 60.7515 20.1582C61.064 21.0645 61.2202 22.0176 61.2202 23.0176C61.2202 24.6113 60.8452 26.1582 60.0952 27.6582C59.3765 29.1582 58.3921 30.4863 57.1421 31.6426C55.9233 32.7676 54.5171 33.627 52.9233 34.2207C51.3296 34.7832 49.7046 34.9082 48.0483 34.5957C48.0796 35.502 48.3765 36.2363 48.939 36.7988C49.5327 37.3301 50.2358 37.7363 51.0483 38.0176C51.8608 38.2988 52.7046 38.4863 53.5796 38.5801C54.4546 38.6426 55.2358 38.6738 55.9233 38.6738C56.6421 38.6738 57.314 38.6113 57.939 38.4863C58.564 38.3613 59.189 38.2207 59.814 38.0645C60.439 37.9082 61.064 37.7676 61.689 37.6426C62.3452 37.5176 63.0327 37.4551 63.7515 37.4551C64.0327 37.4551 64.314 37.4707 64.5952 37.502C64.8765 37.5332 65.1421 37.6113 65.3921 37.7363C65.6421 37.8301 65.8452 38.002 66.0015 38.252C66.1577 38.4707 66.2358 38.752 66.2358 39.0957C66.2358 39.6895 66.0171 40.1895 65.5796 40.5957C65.1421 40.9707 64.5796 41.2988 63.8921 41.5801C63.2358 41.8613 62.5015 42.0801 61.689 42.2363C60.8765 42.3613 60.0796 42.4707 59.2983 42.5645C58.5483 42.627 57.8452 42.6582 57.189 42.6582C56.564 42.6895 56.0952 42.7051 55.7827 42.7051C53.7827 42.7051 51.9858 42.3926 50.3921 41.7676C48.7983 41.1113 47.4546 40.2207 46.3608 39.0957C45.2671 37.9395 44.4233 36.5645 43.8296 34.9707C43.2671 33.3457 42.9858 31.5488 42.9858 29.5801ZM47.9546 26.5332C47.9546 27.627 48.0952 28.4238 48.3765 28.9238C48.689 29.4238 49.4233 29.6738 50.5796 29.6738C51.3921 29.6738 52.189 29.5332 52.9702 29.252C53.7515 28.9395 54.4546 28.5176 55.0796 27.9863C55.7358 27.4551 56.2515 26.8301 56.6265 26.1113C57.0015 25.3926 57.189 24.6113 57.189 23.7676C57.189 23.2988 57.1421 22.8145 57.0483 22.3145C56.9858 21.8145 56.8296 21.3613 56.5796 20.9551C56.3296 20.5176 56.0015 20.1738 55.5952 19.9238C55.2202 19.6426 54.7202 19.502 54.0952 19.502C53.1577 19.502 52.2983 19.7207 51.5171 20.1582C50.7671 20.5645 50.1265 21.1113 49.5952 21.7988C49.064 22.4551 48.6577 23.2051 48.3765 24.0488C48.0952 24.8613 47.9546 25.6895 47.9546 26.5332ZM89.2983 36.5645C88.1108 37.377 87.0796 38.1113 86.2046 38.7676C85.3608 39.3926 84.5327 39.9238 83.7202 40.3613C82.9077 40.7988 82.0327 41.127 81.0952 41.3457C80.189 41.5645 79.064 41.6738 77.7202 41.6738C74.814 41.6738 72.6577 40.9082 71.2515 39.377C69.8452 37.8145 69.1421 35.502 69.1421 32.4395C69.1421 31.252 69.2983 30.0176 69.6108 28.7363C69.9233 27.4551 70.3765 26.1895 70.9702 24.9395C71.5952 23.6582 72.3296 22.4551 73.1733 21.3301C74.0171 20.1738 74.9702 19.1582 76.0327 18.2832C77.0952 17.4082 78.2202 16.7207 79.4077 16.2207C80.6265 15.6895 81.9077 15.4238 83.2515 15.4238C85.5015 15.6426 87.2671 16.2051 88.5483 17.1113C89.8296 17.9863 90.7983 19.127 91.4546 20.5332C92.1108 21.9082 92.564 23.4551 92.814 25.1738C93.064 26.8613 93.2515 28.6113 93.3765 30.4238C93.5327 32.2363 93.7202 34.0488 93.939 35.8613C94.1577 37.6738 94.6108 39.3457 95.2983 40.877C94.8921 41.9082 94.5015 42.627 94.1265 43.0332C93.7827 43.4707 93.3921 43.5488 92.9546 43.2676C92.5171 42.9863 92.0015 42.2988 91.4077 41.2051C90.8452 40.1113 90.1421 38.5645 89.2983 36.5645ZM73.1265 32.5332C73.1265 34.3145 73.4546 35.627 74.1108 36.4707C74.7983 37.2832 76.0015 37.6895 77.7202 37.6895C79.0015 37.6895 80.2202 37.4707 81.3765 37.0332C82.564 36.5645 83.5952 35.9395 84.4702 35.1582C85.3452 34.3457 86.0483 33.377 86.5796 32.252C87.1108 31.127 87.3765 29.877 87.3765 28.502C87.3765 27.9395 87.3921 27.1582 87.4233 26.1582C87.4546 25.127 87.3921 24.1113 87.2358 23.1113C87.0796 22.1113 86.7827 21.252 86.3452 20.5332C85.9077 19.7832 85.2515 19.4082 84.3765 19.4082C82.7515 19.4082 81.2515 19.8301 79.8765 20.6738C78.5015 21.4863 77.314 22.5332 76.314 23.8145C75.314 25.0957 74.5327 26.5176 73.9702 28.0801C73.4077 29.6113 73.1265 31.0957 73.1265 32.5332ZM97.2202 18.9863C97.2202 18.8926 97.2358 18.8145 97.2671 18.752C97.2671 18.6895 97.2827 18.6113 97.314 18.5176C97.439 18.3613 97.6265 18.1582 97.8765 17.9082C98.1265 17.6582 98.2827 17.5332 98.3452 17.5332H107.767C107.767 17.1895 107.72 16.6426 107.626 15.8926C107.533 15.1426 107.439 14.3145 107.345 13.4082C107.283 12.502 107.267 11.5645 107.298 10.5957C107.33 9.5957 107.455 8.70508 107.673 7.92383C107.923 7.11133 108.298 6.45508 108.798 5.95508C109.33 5.42383 110.064 5.1582 111.001 5.1582C111.001 8.31445 111.22 10.8457 111.658 12.752C112.095 14.6582 112.673 16.127 113.392 17.1582C114.142 18.1895 114.986 18.8613 115.923 19.1738C116.861 19.4863 117.814 19.627 118.783 19.5957C119.783 19.5332 120.751 19.377 121.689 19.127C122.626 18.877 123.455 18.7051 124.173 18.6113C124.923 18.5176 125.517 18.5957 125.955 18.8457C126.392 19.0645 126.611 19.6113 126.611 20.4863C126.611 21.1426 126.455 21.6113 126.142 21.8926C125.861 22.1738 125.298 22.3926 124.455 22.5488C124.205 22.5801 123.783 22.6426 123.189 22.7363C122.626 22.7988 121.986 22.8613 121.267 22.9238C120.548 22.9863 119.783 23.0645 118.97 23.1582C118.158 23.2207 117.392 23.2832 116.673 23.3457C115.955 23.4082 115.298 23.4551 114.705 23.4863C114.111 23.4863 113.673 23.4863 113.392 23.4863C113.392 23.6426 113.376 23.9082 113.345 24.2832C113.314 24.6582 113.298 24.9082 113.298 25.0332C113.298 26.4082 113.517 27.752 113.955 29.0645C114.392 30.3457 114.861 31.627 115.361 32.9082C115.892 34.1895 116.376 35.4707 116.814 36.752C117.251 38.0332 117.47 39.3613 117.47 40.7363C117.47 40.9863 117.439 41.252 117.376 41.5332C117.345 41.7832 117.251 42.0176 117.095 42.2363C116.97 42.4238 116.767 42.5645 116.486 42.6582C116.236 42.7832 115.876 42.7676 115.408 42.6113C114.22 42.2988 113.33 41.627 112.736 40.5957C112.173 39.5645 111.751 38.3457 111.47 36.9395C111.189 35.502 111.001 33.9863 110.908 32.3926C110.814 30.7988 110.658 29.3145 110.439 27.9395C110.251 26.5332 109.939 25.3457 109.501 24.377C109.064 23.377 108.361 22.7676 107.392 22.5488L98.3452 20.4863C98.2202 20.4863 98.0327 20.3613 97.7827 20.1113C97.5327 19.8301 97.3765 19.627 97.314 19.502C97.2827 19.4395 97.2671 19.3613 97.2671 19.2676C97.2358 19.2051 97.2202 19.1113 97.2202 18.9863ZM129.751 12.1426C129.751 11.7988 129.783 11.377 129.845 10.877C129.939 10.3457 130.08 9.8457 130.267 9.37695C130.486 8.9082 130.751 8.51758 131.064 8.20508C131.376 7.86133 131.783 7.68945 132.283 7.68945C132.314 7.68945 132.392 7.70508 132.517 7.73633C132.642 7.76758 132.72 7.7832 132.751 7.7832C133.283 9.7207 133.595 11.6426 133.689 13.5488C133.783 15.4551 133.751 17.3145 133.595 19.127C133.439 20.9082 133.205 22.6426 132.892 24.3301C132.58 25.9863 132.314 27.5176 132.095 28.9238C131.908 30.3301 131.783 31.5957 131.72 32.7207C131.689 33.8457 131.861 34.7988 132.236 35.5801C132.173 35.0801 132.126 34.4863 132.095 33.7988C132.095 33.0801 132.158 32.3457 132.283 31.5957C132.439 30.8457 132.673 30.0957 132.986 29.3457C133.33 28.5957 133.814 27.9238 134.439 27.3301C135.064 26.7363 135.861 26.2676 136.83 25.9238C137.83 25.5801 139.064 25.4082 140.533 25.4082C142.064 25.4082 143.376 25.6738 144.47 26.2051C145.595 26.7363 146.517 27.4707 147.236 28.4082C147.955 29.3145 148.486 30.3926 148.83 31.6426C149.205 32.8613 149.392 34.1738 149.392 35.5801C149.392 36.2363 149.376 36.9863 149.345 37.8301C149.345 38.6426 149.236 39.4082 149.017 40.127C148.83 40.8145 148.47 41.4082 147.939 41.9082C147.439 42.377 146.689 42.6113 145.689 42.6113C145.689 42.1113 145.72 41.4395 145.783 40.5957C145.845 39.7207 145.876 38.7988 145.876 37.8301C145.908 36.8613 145.876 35.877 145.783 34.877C145.72 33.877 145.517 32.9863 145.173 32.2051C144.83 31.3926 144.345 30.7363 143.72 30.2363C143.126 29.7051 142.298 29.4395 141.236 29.4395C140.861 29.4395 140.392 29.4707 139.83 29.5332C139.298 29.5645 138.751 29.7051 138.189 29.9551C137.626 30.2051 137.08 30.5957 136.548 31.127C136.017 31.627 135.595 32.3301 135.283 33.2363C134.97 34.1113 134.783 35.2363 134.72 36.6113C134.689 37.9551 134.861 39.6113 135.236 41.5801C135.017 42.1426 134.736 42.4707 134.392 42.5645C134.08 42.6582 133.673 42.7051 133.173 42.7051C132.173 42.7051 131.345 42.3613 130.689 41.6738C130.064 40.9551 129.58 40.002 129.236 38.8145C128.892 37.627 128.658 36.252 128.533 34.6895C128.439 33.127 128.408 31.502 128.439 29.8145C128.47 28.0957 128.548 26.3613 128.673 24.6113C128.83 22.8301 128.97 21.1582 129.095 19.5957C129.251 18.002 129.392 16.5645 129.517 15.2832C129.673 13.9707 129.751 12.9238 129.751 12.1426ZM151.267 29.5801C151.267 27.8926 151.47 26.2051 151.876 24.5176C152.283 22.8301 152.923 21.3145 153.798 19.9707C154.705 18.627 155.861 17.5332 157.267 16.6895C158.705 15.8457 160.439 15.4238 162.47 15.4238C163.626 15.4238 164.642 15.6426 165.517 16.0801C166.392 16.4863 167.126 17.0332 167.72 17.7207C168.314 18.4082 168.751 19.2207 169.033 20.1582C169.345 21.0645 169.501 22.0176 169.501 23.0176C169.501 24.6113 169.126 26.1582 168.376 27.6582C167.658 29.1582 166.673 30.4863 165.423 31.6426C164.205 32.7676 162.798 33.627 161.205 34.2207C159.611 34.7832 157.986 34.9082 156.33 34.5957C156.361 35.502 156.658 36.2363 157.22 36.7988C157.814 37.3301 158.517 37.7363 159.33 38.0176C160.142 38.2988 160.986 38.4863 161.861 38.5801C162.736 38.6426 163.517 38.6738 164.205 38.6738C164.923 38.6738 165.595 38.6113 166.22 38.4863C166.845 38.3613 167.47 38.2207 168.095 38.0645C168.72 37.9082 169.345 37.7676 169.97 37.6426C170.626 37.5176 171.314 37.4551 172.033 37.4551C172.314 37.4551 172.595 37.4707 172.876 37.502C173.158 37.5332 173.423 37.6113 173.673 37.7363C173.923 37.8301 174.126 38.002 174.283 38.252C174.439 38.4707 174.517 38.752 174.517 39.0957C174.517 39.6895 174.298 40.1895 173.861 40.5957C173.423 40.9707 172.861 41.2988 172.173 41.5801C171.517 41.8613 170.783 42.0801 169.97 42.2363C169.158 42.3613 168.361 42.4707 167.58 42.5645C166.83 42.627 166.126 42.6582 165.47 42.6582C164.845 42.6895 164.376 42.7051 164.064 42.7051C162.064 42.7051 160.267 42.3926 158.673 41.7676C157.08 41.1113 155.736 40.2207 154.642 39.0957C153.548 37.9395 152.705 36.5645 152.111 34.9707C151.548 33.3457 151.267 31.5488 151.267 29.5801ZM156.236 26.5332C156.236 27.627 156.376 28.4238 156.658 28.9238C156.97 29.4238 157.705 29.6738 158.861 29.6738C159.673 29.6738 160.47 29.5332 161.251 29.252C162.033 28.9395 162.736 28.5176 163.361 27.9863C164.017 27.4551 164.533 26.8301 164.908 26.1113C165.283 25.3926 165.47 24.6113 165.47 23.7676C165.47 23.2988 165.423 22.8145 165.33 22.3145C165.267 21.8145 165.111 21.3613 164.861 20.9551C164.611 20.5176 164.283 20.1738 163.876 19.9238C163.501 19.6426 163.001 19.502 162.376 19.502C161.439 19.502 160.58 19.7207 159.798 20.1582C159.048 20.5645 158.408 21.1113 157.876 21.7988C157.345 22.4551 156.939 23.2051 156.658 24.0488C156.376 24.8613 156.236 25.6895 156.236 26.5332ZM177.423 22.9238C177.423 22.6426 177.439 22.3613 177.47 22.0801C177.501 21.7676 177.564 21.502 177.658 21.2832C177.751 21.0332 177.892 20.8301 178.08 20.6738C178.298 20.5176 178.595 20.4395 178.97 20.4395C179.283 20.4395 179.626 20.6895 180.001 21.1895C180.408 21.6582 180.814 22.2676 181.22 23.0176C181.626 23.7363 182.017 24.5332 182.392 25.4082C182.798 26.2832 183.142 27.0957 183.423 27.8457C183.736 28.5645 183.986 29.1895 184.173 29.7207C184.361 30.252 184.47 30.5332 184.501 30.5645C184.908 29.4707 185.361 28.2832 185.861 27.002C186.361 25.7207 186.97 24.5332 187.689 23.4395C188.439 22.3145 189.314 21.377 190.314 20.627C191.345 19.877 192.595 19.502 194.064 19.502C194.814 19.502 195.517 19.627 196.173 19.877C196.861 20.0957 197.455 20.4395 197.955 20.9082C198.486 21.3457 198.908 21.877 199.22 22.502C199.533 23.127 199.689 23.8457 199.689 24.6582C199.689 25.3457 199.408 25.8301 198.845 26.1113C198.314 26.3926 197.705 26.5332 197.017 26.5332H196.548L194.533 24.5176C194.47 24.5176 194.423 24.502 194.392 24.4707C194.33 24.4707 194.267 24.4707 194.205 24.4707C194.173 24.4395 194.126 24.4238 194.064 24.4238C192.97 24.4238 192.111 24.7363 191.486 25.3613C190.892 25.9551 190.439 26.7051 190.126 27.6113C189.814 28.4863 189.611 29.4238 189.517 30.4238C189.455 31.3926 189.423 32.2832 189.423 33.0957C189.423 33.7207 189.486 34.3613 189.611 35.0176C189.736 35.6426 189.876 36.2676 190.033 36.8926C190.189 37.4863 190.33 38.1113 190.455 38.7676C190.58 39.3926 190.642 40.0488 190.642 40.7363C190.642 42.0488 189.939 42.7051 188.533 42.7051C187.751 42.7051 186.939 42.2988 186.095 41.4863C185.251 40.6426 184.408 39.5801 183.564 38.2988C182.751 37.0176 181.97 35.6113 181.22 34.0801C180.47 32.5176 179.814 31.002 179.251 29.5332C178.689 28.0645 178.236 26.7363 177.892 25.5488C177.58 24.3613 177.423 23.4863 177.423 22.9238ZM211.501 1.45508C211.689 0.892578 211.955 0.564453 212.298 0.470703C212.673 0.376953 213.095 0.330078 213.564 0.330078C214.283 0.330078 215.08 0.814453 215.955 1.7832C216.861 2.7207 217.783 3.98633 218.72 5.58008C219.658 7.17383 220.595 9.00195 221.533 11.0645C222.501 13.127 223.423 15.2676 224.298 17.4863C225.205 19.6738 226.048 21.8613 226.83 24.0488C227.611 26.2363 228.283 28.252 228.845 30.0957C229.439 31.9082 229.892 33.4863 230.205 34.8301C230.517 36.1738 230.673 37.0957 230.673 37.5957C230.673 38.0957 230.548 38.5801 230.298 39.0488C230.08 39.4863 229.673 39.7051 229.08 39.7051C228.705 39.7051 228.376 39.5957 228.095 39.377C227.845 39.127 227.626 38.8301 227.439 38.4863C227.251 38.1426 227.08 37.7988 226.923 37.4551C226.767 37.1113 226.626 36.8145 226.501 36.5645C226.376 36.2207 226.111 35.5645 225.705 34.5957C225.33 33.627 224.923 32.6113 224.486 31.5488C224.08 30.4863 223.689 29.4863 223.314 28.5488C222.939 27.6113 222.673 26.9395 222.517 26.5332C220.33 26.1582 218.126 25.8145 215.908 25.502C213.72 25.1582 211.408 24.8301 208.97 24.5176H208.455C207.33 29.3613 206.33 33.1895 205.455 36.002C204.611 38.8145 203.892 40.8145 203.298 42.002C202.736 43.1895 202.283 43.6738 201.939 43.4551C201.626 43.2676 201.408 42.5645 201.283 41.3457C201.189 40.0957 201.205 38.4395 201.33 36.377C201.486 34.3145 201.751 32.0488 202.126 29.5801C202.533 27.0801 203.017 24.4707 203.58 21.752C204.142 19.0332 204.814 16.4082 205.595 13.877C206.408 11.3457 207.298 9.00195 208.267 6.8457C209.267 4.6582 210.345 2.86133 211.501 1.45508ZM210.376 17.9551C210.376 19.1113 210.751 19.9707 211.501 20.5332C212.251 21.0645 213.158 21.4082 214.22 21.5645C215.283 21.7207 216.392 21.7832 217.548 21.752C218.736 21.7207 219.751 21.7051 220.595 21.7051C220.595 20.4551 220.392 19.1113 219.986 17.6738C219.58 16.2051 219.064 14.752 218.439 13.3145C217.814 11.877 217.142 10.4863 216.423 9.14258C215.736 7.76758 215.095 6.5332 214.501 5.43945C214.158 5.7832 213.783 6.42383 213.376 7.36133C213.001 8.26758 212.611 9.29883 212.205 10.4551C211.83 11.5801 211.486 12.6895 211.173 13.7832C210.861 14.877 210.626 15.7676 210.47 16.4551C210.47 16.5488 210.455 16.7988 210.423 17.2051C210.392 17.5801 210.376 17.8301 210.376 17.9551ZM233.533 25.3145C233.533 22.2832 234.236 20.0332 235.642 18.5645C237.048 17.0957 239.205 16.3613 242.111 16.3613C243.298 16.3613 244.517 16.4707 245.767 16.6895C247.048 16.9082 248.22 17.2988 249.283 17.8613C250.345 18.3926 251.205 19.1426 251.861 20.1113C252.548 21.0801 252.892 22.3301 252.892 23.8613C252.892 25.5488 252.517 27.1426 251.767 28.6426C251.048 30.1113 250.126 31.502 249.001 32.8145C247.908 34.0957 246.689 35.2988 245.345 36.4238C244.033 37.5176 242.798 38.5645 241.642 39.5645C241.58 39.6895 241.517 39.9551 241.455 40.3613C241.423 40.7363 241.408 40.9863 241.408 41.1113C241.408 42.1426 241.705 43.1738 242.298 44.2051C242.923 45.2676 243.595 46.3301 244.314 47.3926C245.033 48.4863 245.689 49.6113 246.283 50.7676C246.876 51.9238 247.173 53.127 247.173 54.377C247.173 55.127 247.017 55.5645 246.705 55.6895C246.392 55.8457 245.736 55.9238 244.736 55.9238C244.111 55.6738 243.486 55.0801 242.861 54.1426C242.267 53.2363 241.658 52.1113 241.033 50.7676C240.439 49.4238 239.845 47.9082 239.251 46.2207C238.689 44.5645 238.142 42.877 237.611 41.1582C237.111 39.4082 236.626 37.6895 236.158 36.002C235.72 34.2832 235.33 32.7051 234.986 31.2676C234.642 29.8301 234.33 28.5957 234.048 27.5645C233.798 26.502 233.626 25.752 233.533 25.3145ZM237.517 25.7363C237.517 26.2051 237.548 26.8926 237.611 27.7988C237.673 28.6738 237.798 29.5488 237.986 30.4238C238.205 31.2988 238.517 32.0645 238.923 32.7207C239.33 33.3457 239.892 33.6582 240.611 33.6582C241.58 33.6582 242.548 33.3301 243.517 32.6738C244.517 32.0176 245.392 31.1895 246.142 30.1895C246.923 29.1895 247.548 28.127 248.017 27.002C248.517 25.8457 248.767 24.7988 248.767 23.8613C248.767 23.0801 248.58 22.4707 248.205 22.0332C247.83 21.5645 247.345 21.2051 246.751 20.9551C246.189 20.6738 245.58 20.502 244.923 20.4395C244.267 20.3457 243.642 20.2988 243.048 20.2988C241.267 20.2988 239.892 20.7832 238.923 21.752C237.986 22.6895 237.517 24.0176 237.517 25.7363ZM255.658 25.3145C255.658 22.2832 256.361 20.0332 257.767 18.5645C259.173 17.0957 261.33 16.3613 264.236 16.3613C265.423 16.3613 266.642 16.4707 267.892 16.6895C269.173 16.9082 270.345 17.2988 271.408 17.8613C272.47 18.3926 273.33 19.1426 273.986 20.1113C274.673 21.0801 275.017 22.3301 275.017 23.8613C275.017 25.5488 274.642 27.1426 273.892 28.6426C273.173 30.1113 272.251 31.502 271.126 32.8145C270.033 34.0957 268.814 35.2988 267.47 36.4238C266.158 37.5176 264.923 38.5645 263.767 39.5645C263.705 39.6895 263.642 39.9551 263.58 40.3613C263.548 40.7363 263.533 40.9863 263.533 41.1113C263.533 42.1426 263.83 43.1738 264.423 44.2051C265.048 45.2676 265.72 46.3301 266.439 47.3926C267.158 48.4863 267.814 49.6113 268.408 50.7676C269.001 51.9238 269.298 53.127 269.298 54.377C269.298 55.127 269.142 55.5645 268.83 55.6895C268.517 55.8457 267.861 55.9238 266.861 55.9238C266.236 55.6738 265.611 55.0801 264.986 54.1426C264.392 53.2363 263.783 52.1113 263.158 50.7676C262.564 49.4238 261.97 47.9082 261.376 46.2207C260.814 44.5645 260.267 42.877 259.736 41.1582C259.236 39.4082 258.751 37.6895 258.283 36.002C257.845 34.2832 257.455 32.7051 257.111 31.2676C256.767 29.8301 256.455 28.5957 256.173 27.5645C255.923 26.502 255.751 25.752 255.658 25.3145ZM259.642 25.7363C259.642 26.2051 259.673 26.8926 259.736 27.7988C259.798 28.6738 259.923 29.5488 260.111 30.4238C260.33 31.2988 260.642 32.0645 261.048 32.7207C261.455 33.3457 262.017 33.6582 262.736 33.6582C263.705 33.6582 264.673 33.3301 265.642 32.6738C266.642 32.0176 267.517 31.1895 268.267 30.1895C269.048 29.1895 269.673 28.127 270.142 27.002C270.642 25.8457 270.892 24.7988 270.892 23.8613C270.892 23.0801 270.705 22.4707 270.33 22.0332C269.955 21.5645 269.47 21.2051 268.876 20.9551C268.314 20.6738 267.705 20.502 267.048 20.4395C266.392 20.3457 265.767 20.2988 265.173 20.2988C263.392 20.2988 262.017 20.7832 261.048 21.752C260.111 22.6895 259.642 24.0176 259.642 25.7363Z" fill="#2B2401"/>
</svg>
