<svg width="1888" height="3714" viewBox="0 0 1888 3714" fill="none" xmlns="http://www.w3.org/2000/svg">
<path fill-rule="evenodd" clip-rule="evenodd" d="M1784.5 68.6381C1747.62 33.5356 1691.78 3.22729 1637.3 3.22729H248.176C183.709 3.22729 144.154 23.3696 94.8567 77.7659C61.5265 114.543 31.9569 186.206 31.833 225.835L31.0215 498.548C31.0215 498.548 8.8238 497.086 7.03856 504.6C2.83677 522.286 0.209171 618 7.03839 621.641C13.7483 625.219 21.3722 625.218 30.1981 625.217H30.6699L30.3061 762.313C30.3061 762.313 8.8238 757.796 7.03856 773.684C2.83677 811.079 0.209171 1013.45 7.03839 1021.15C13.8676 1028.85 20.6198 1029.45 29.6461 1029.45L29.4855 1098.76C29.4855 1098.76 9.27643 1094.46 7.49119 1110.35C3.2894 1147.74 0.661807 1350.11 7.49103 1357.81C14.3202 1365.51 19.8829 1365.9 28.9093 1365.9L31.833 3479.83C31.833 3550.85 45.7317 3603.11 76.2298 3639.51C102.202 3670.5 160.405 3701.86 223.841 3710.31C673.439 3712.5 1631.94 3704.87 1660.48 3700.06C1721.01 3689.85 1772.66 3675.84 1810.01 3627.38C1845.23 3581.67 1853.37 3525.34 1853.37 3473.29V1272.46C1866.17 1269.73 1876.48 1266.32 1879.47 1262.22C1888.34 1250.05 1884.92 930.119 1879.47 871.003C1878.68 862.476 1867.63 857.657 1853.37 855.01V225.835C1845.84 141.387 1821.38 103.741 1784.5 68.6381ZM474.687 94.5133C461.463 87.2894 295.45 87.6651 248.36 94.5133C214.801 99.3937 192.101 115.121 173.7 132.592C167.264 138.703 162.009 144.522 158.343 149.13C142.987 165.668 123.358 199.302 113.335 249.473C106.33 284.537 109.049 463.284 113.335 545.421V3156.87C113.335 3156.87 114.939 3405.17 122.034 3447.19C123.683 3456.95 124.619 3467.64 125.583 3478.63C128.293 3509.55 131.217 3542.89 150.801 3564.99C177.347 3594.95 217.35 3619.21 262.775 3619.21H1136.95C1165.07 3619.51 1197.22 3619.93 1231.33 3620.37L1231.43 3620.37L1231.56 3620.37H1231.57H1231.58H1231.59C1389.89 3622.42 1590.41 3625.01 1626.9 3619.21C1698.05 3607.91 1728.08 3579.08 1728.08 3579.08C1728.08 3579.08 1773.5 3547.93 1773.5 3455.28V1025.54C1773.93 797.337 1774.53 328.223 1773.5 277.417C1772.22 214.277 1763.36 200.726 1739.2 163.751L1738.78 163.102C1706.03 112.991 1671.4 97.1985 1628.27 92.3371C1598.08 92.3371 1538.54 91.7636 1490.01 91.2961L1490.01 91.2961L1490 91.2961L1490 91.2961L1490 91.296L1490 91.296L1490 91.296L1489.98 91.2958L1489.97 91.2957L1489.95 91.2956C1456.57 90.9741 1428.41 90.7028 1418.58 90.7028C1400.53 90.7028 1387.71 95.6908 1387.71 112.296V163.889C1387.71 178.599 1383.14 195.004 1369.96 208.018C1356.78 221.032 1332.95 222.8 1311.84 222.8H870.76C781.172 223.223 598.139 223.816 582.707 222.8C510.167 218.023 503.128 195.843 499.906 184.477C496.684 173.111 493.976 140.183 493.976 123.727C493.976 107.166 485.161 100.235 474.687 94.5133ZM844.902 122.574C838.397 122.574 833.123 127.848 833.123 134.353C833.123 140.858 838.397 146.132 844.902 146.132H1043.97C1050.47 146.132 1055.74 140.858 1055.74 134.353C1055.74 127.848 1050.47 122.574 1043.97 122.574H844.902ZM1173.31 138.534C1173.31 154.19 1160.89 166.882 1145.58 166.882C1130.27 166.882 1117.86 154.19 1117.86 138.534C1117.86 122.878 1130.27 110.186 1145.58 110.186C1160.89 110.186 1173.31 122.878 1173.31 138.534ZM743.283 166.882C758.595 166.882 771.008 154.19 771.008 138.534C771.008 122.878 758.595 110.186 743.283 110.186C727.971 110.186 715.559 122.878 715.559 138.534C715.559 154.19 727.971 166.882 743.283 166.882ZM589.635 138.534C589.635 154.19 577.222 166.882 561.91 166.882C546.598 166.882 534.186 154.19 534.186 138.534C534.186 122.878 546.598 110.186 561.91 110.186C577.222 110.186 589.635 122.878 589.635 138.534ZM1325.85 166.882C1341.16 166.882 1353.57 154.19 1353.57 138.534C1353.57 122.878 1341.16 110.186 1325.85 110.186C1310.54 110.186 1298.12 122.878 1298.12 138.534C1298.12 154.19 1310.54 166.882 1325.85 166.882Z" fill="#1A021A"/>
<path d="M1784.5 68.6381L1782.77 70.4489L1782.77 70.4489L1784.5 68.6381ZM94.8567 77.7659L96.7091 79.4447L96.7091 79.4447L94.8567 77.7659ZM31.833 225.835L29.333 225.827L29.333 225.827L31.833 225.835ZM31.0215 498.548L30.8572 501.043L33.5135 501.218L33.5215 498.556L31.0215 498.548ZM7.03856 504.6L4.60626 504.022L4.60626 504.022L7.03856 504.6ZM7.03839 621.641L5.86216 623.847L5.86216 623.847L7.03839 621.641ZM30.1981 625.217L30.1981 622.717L30.1978 622.717L30.1981 625.217ZM30.6699 625.217L33.1699 625.224L33.1765 622.717H30.6699V625.217ZM30.3061 762.313L29.7918 764.759L32.798 765.391L32.8061 762.319L30.3061 762.313ZM7.03856 773.684L9.52292 773.963L9.52292 773.963L7.03856 773.684ZM7.03839 1021.15L8.90864 1019.49L8.90863 1019.49L7.03839 1021.15ZM29.6461 1029.45L32.1461 1029.45L32.1519 1026.95H29.6461V1029.45ZM29.4855 1098.76L28.9647 1101.21L31.9784 1101.85L31.9855 1098.77L29.4855 1098.76ZM7.49119 1110.35L9.97556 1110.63L9.97556 1110.63L7.49119 1110.35ZM7.49103 1357.81L9.36128 1356.15L9.36126 1356.15L7.49103 1357.81ZM28.9093 1365.9L31.4093 1365.9L31.4058 1363.4H28.9093V1365.9ZM31.833 3479.83H34.333L34.333 3479.83L31.833 3479.83ZM76.2298 3639.51L78.1459 3637.9L78.1459 3637.9L76.2298 3639.51ZM223.841 3710.31L223.51 3712.79L223.669 3712.81L223.829 3712.81L223.841 3710.31ZM1660.48 3700.06L1660.9 3702.52L1660.9 3702.52L1660.48 3700.06ZM1810.01 3627.38L1808.02 3625.85L1808.02 3625.85L1810.01 3627.38ZM1853.37 1272.46L1852.85 1270.01L1850.87 1270.43V1272.46H1853.37ZM1879.47 1262.22L1877.45 1260.74L1877.45 1260.74L1879.47 1262.22ZM1879.47 871.003L1881.96 870.773L1881.96 870.773L1879.47 871.003ZM1853.37 855.01H1850.87V857.089L1852.91 857.468L1853.37 855.01ZM1853.37 225.835H1855.87V225.724L1855.86 225.613L1853.37 225.835ZM248.36 94.5133L248.72 96.9873L248.72 96.9873L248.36 94.5133ZM474.687 94.5133L473.489 96.7073L473.489 96.7073L474.687 94.5133ZM173.7 132.592L171.978 130.779L171.978 130.779L173.7 132.592ZM158.343 149.13L160.175 150.831L160.24 150.761L160.3 150.687L158.343 149.13ZM113.335 249.473L110.884 248.983L110.884 248.983L113.335 249.473ZM113.335 545.421H115.835V545.356L115.832 545.291L113.335 545.421ZM113.335 3156.87H110.835V3156.88L110.835 3156.89L113.335 3156.87ZM122.034 3447.19L119.569 3447.61L119.569 3447.61L122.034 3447.19ZM125.583 3478.63L128.073 3478.41L128.073 3478.41L125.583 3478.63ZM150.801 3564.99L148.93 3566.65L148.93 3566.65L150.801 3564.99ZM1136.95 3619.21L1136.98 3616.71L1136.97 3616.71H1136.95V3619.21ZM1231.33 3620.37L1231.37 3617.87L1231.37 3617.87L1231.33 3620.37ZM1231.43 3620.37L1231.39 3622.87L1231.4 3622.87L1231.43 3620.37ZM1231.56 3620.37L1231.54 3622.87L1231.55 3622.87H1231.56V3620.37ZM1231.59 3620.37L1231.62 3617.87L1231.6 3617.87H1231.59V3620.37ZM1626.9 3619.21L1626.51 3616.75L1626.51 3616.75L1626.9 3619.21ZM1728.08 3579.08L1726.67 3577.02L1726.5 3577.13L1726.35 3577.27L1728.08 3579.08ZM1773.5 1025.54L1771 1025.54V1025.54H1773.5ZM1773.5 277.417L1776 277.366L1776 277.366L1773.5 277.417ZM1739.2 163.751L1737.11 165.119L1737.11 165.119L1739.2 163.751ZM1738.78 163.102L1736.68 164.47L1736.68 164.47L1738.78 163.102ZM1628.27 92.3371L1628.55 89.8528L1628.41 89.8371H1628.27V92.3371ZM1490.01 91.2961L1489.98 93.796L1489.98 93.796L1490.01 91.2961ZM1490.01 91.2961L1489.97 93.7959L1489.98 93.796L1490.01 91.2961ZM1490 91.2961L1489.96 93.7958L1489.97 93.7959L1490 91.2961ZM1490 91.296L1489.96 93.7957L1489.96 93.7957L1490 91.296ZM1490 91.296L1490.04 88.7964L1490.03 88.7962L1490.02 88.7961L1490 91.296ZM1489.98 91.2958L1490 88.7959L1490 88.7959L1489.98 91.2958ZM1489.97 91.2957L1489.99 88.7958L1489.99 88.7958L1489.97 91.2957ZM1489.95 91.2956L1489.93 93.7954L1489.93 93.7955L1489.95 91.2956ZM1369.96 208.018L1368.2 206.239L1368.2 206.239L1369.96 208.018ZM870.76 222.8V220.3L870.748 220.3L870.76 222.8ZM582.707 222.8L582.871 220.305L582.871 220.305L582.707 222.8ZM499.906 184.477L502.311 183.795L502.311 183.795L499.906 184.477ZM1637.3 5.72729C1690.93 5.72729 1746.19 35.6288 1782.77 70.4489L1786.22 66.8273C1749.05 31.4423 1692.62 0.727295 1637.3 0.727295V5.72729ZM248.176 5.72729H1637.3V0.727295H248.176V5.72729ZM96.7091 79.4447C121.248 52.3676 143.215 33.9836 166.929 22.3422C190.613 10.7159 216.22 5.72729 248.176 5.72729V0.727295C215.664 0.727295 189.261 5.80981 164.726 17.8538C140.222 29.8826 117.763 48.7679 93.0042 76.0871L96.7091 79.4447ZM34.333 225.843C34.3934 206.51 41.6749 179.043 53.1963 151.702C64.7034 124.394 80.2949 97.5565 96.7091 79.4447L93.0042 76.0871C76.0882 94.7526 60.2298 122.135 48.5886 149.76C36.9617 177.352 29.3964 205.531 29.333 225.827L34.333 225.843ZM33.5215 498.556L34.333 225.842L29.333 225.827L28.5215 498.541L33.5215 498.556ZM9.47086 505.178C9.62401 504.534 10.3362 503.646 12.4562 502.81C14.4722 502.015 17.1481 501.522 19.9467 501.244C22.7129 500.969 25.4467 500.918 27.5019 500.937C28.5258 500.946 29.3728 500.973 29.9606 500.998C30.2544 501.01 30.4829 501.021 30.6359 501.03C30.7123 501.034 30.7699 501.037 30.8072 501.04C30.8258 501.041 30.8395 501.042 30.8478 501.042C30.852 501.042 30.8549 501.043 30.8565 501.043C30.8573 501.043 30.8577 501.043 30.8578 501.043C30.8579 501.043 30.8577 501.043 30.8577 501.043C30.8575 501.043 30.8572 501.043 31.0215 498.548C31.1858 496.054 31.1853 496.053 31.1847 496.053C31.1844 496.053 31.1837 496.053 31.1831 496.053C31.1819 496.053 31.1803 496.053 31.1784 496.053C31.1746 496.053 31.1694 496.052 31.1629 496.052C31.15 496.051 31.1317 496.05 31.1083 496.049C31.0615 496.046 30.9942 496.042 30.9076 496.037C30.7346 496.028 30.4844 496.015 30.1677 496.002C29.5346 495.976 28.6335 495.947 27.5485 495.937C25.3858 495.917 22.4587 495.97 19.4522 496.269C16.4783 496.564 13.2701 497.115 10.6219 498.159C8.07775 499.162 5.34573 500.91 4.60626 504.022L9.47086 505.178ZM8.21462 619.435C8.49178 619.583 8.56453 619.735 8.49609 619.634C8.43846 619.549 8.33098 619.357 8.1944 619.009C7.92038 618.31 7.635 617.257 7.36086 615.823C6.81591 612.972 6.38279 608.984 6.06097 604.139C5.41882 594.471 5.23778 581.686 5.40165 568.418C5.56542 555.159 6.07297 541.466 6.80053 529.995C7.53315 518.445 8.47761 509.359 9.47086 505.178L4.60626 504.022C3.4986 508.685 2.53895 518.195 1.81056 529.679C1.07709 541.243 0.566741 555.021 0.402036 568.357C0.237437 581.683 0.41737 594.615 1.07196 604.47C1.3985 609.387 1.8477 613.612 2.44979 616.762C2.74917 618.328 3.1035 619.722 3.53922 620.833C3.75751 621.39 4.02241 621.945 4.35514 622.437C4.67706 622.912 5.15817 623.472 5.86216 623.847L8.21462 619.435ZM30.1978 622.717C21.2247 622.718 14.2728 622.666 8.21462 619.435L5.86216 623.847C13.2239 627.773 21.5197 627.718 30.1984 627.717L30.1978 622.717ZM30.6699 622.717H30.1981V627.717H30.6699V622.717ZM32.8061 762.319L33.1699 625.224L28.1699 625.21L27.8061 762.306L32.8061 762.319ZM9.52292 773.963C9.89807 770.625 11.2598 768.539 12.9884 767.157C14.7888 765.718 17.1688 764.902 19.7204 764.512C22.2554 764.123 24.7838 764.181 26.7079 764.346C27.6625 764.428 28.4503 764.535 28.9931 764.619C29.2641 764.662 29.4728 764.699 29.6095 764.724C29.6778 764.737 29.728 764.746 29.7588 764.752C29.7742 764.756 29.7847 764.758 29.7903 764.759C29.7931 764.759 29.7946 764.76 29.7949 764.76C29.795 764.76 29.7948 764.76 29.7943 764.76C29.794 764.76 29.7934 764.759 29.7933 764.759C29.7926 764.759 29.7918 764.759 30.3061 762.313C30.8204 759.866 30.8195 759.866 30.8185 759.866C30.818 759.866 30.8169 759.865 30.816 759.865C30.8142 759.865 30.812 759.864 30.8095 759.864C30.8046 759.863 30.7983 759.861 30.7908 759.86C30.7757 759.857 30.7554 759.853 30.7301 759.848C30.6795 759.838 30.6088 759.824 30.5194 759.807C30.3405 759.774 30.0859 759.73 29.766 759.68C29.127 759.58 28.2226 759.458 27.1353 759.364C24.9757 759.179 22.0219 759.101 18.9632 759.569C15.921 760.035 12.5958 761.07 9.86614 763.252C7.06469 765.492 5.07166 768.8 4.55419 773.405L9.52292 773.963ZM8.90863 1019.49C9.06148 1019.66 8.98382 1019.66 8.80663 1019.11C8.6562 1018.64 8.49256 1017.96 8.32493 1017.06C7.99078 1015.25 7.6792 1012.76 7.39517 1009.61C6.82824 1003.34 6.3889 994.718 6.06523 984.415C5.41826 963.82 5.23765 936.668 5.4018 908.567C5.73047 852.303 7.43973 792.503 9.52292 773.963L4.55419 773.405C2.43559 792.26 0.730158 852.343 0.401888 908.538C0.237571 936.667 0.417931 963.888 1.06769 984.572C1.3924 994.908 1.83536 1003.65 2.41548 1010.06C2.70498 1013.27 3.03309 1015.94 3.40869 1017.97C3.59593 1018.98 3.80466 1019.88 4.0446 1020.63C4.25777 1021.3 4.58847 1022.15 5.16815 1022.81L8.90863 1019.49ZM29.6461 1026.95C25.1377 1026.95 21.5247 1026.79 18.2431 1025.79C15.052 1024.83 12.043 1023.02 8.90864 1019.49L5.16814 1022.81C8.86299 1026.97 12.6446 1029.32 16.7936 1030.58C20.8519 1031.81 25.1282 1031.95 29.6461 1031.95V1026.95ZM31.9855 1098.77L32.1461 1029.45L27.1461 1029.44L26.9855 1098.76L31.9855 1098.77ZM9.97556 1110.63C10.3559 1107.24 11.6731 1105.13 13.3036 1103.74C14.9928 1102.3 17.2101 1101.47 19.5827 1101.06C21.945 1100.65 24.3019 1100.69 26.0987 1100.83C26.9893 1100.9 27.7238 1101 28.2287 1101.08C28.4807 1101.12 28.6744 1101.15 28.8004 1101.18C28.8634 1101.19 28.9093 1101.2 28.9371 1101.2C28.951 1101.21 28.9604 1101.21 28.965 1101.21C28.9673 1101.21 28.9685 1101.21 28.9684 1101.21C28.9684 1101.21 28.9681 1101.21 28.9675 1101.21C28.9672 1101.21 28.9665 1101.21 28.9663 1101.21C28.9656 1101.21 28.9647 1101.21 29.4855 1098.76C30.0063 1096.32 30.0053 1096.32 30.0042 1096.32C30.0038 1096.32 30.0026 1096.32 30.0017 1096.32C29.9999 1096.32 29.9977 1096.32 29.9952 1096.32C29.9903 1096.32 29.9841 1096.31 29.9767 1096.31C29.9619 1096.31 29.9422 1096.31 29.9179 1096.3C29.8691 1096.29 29.8013 1096.28 29.7159 1096.26C29.545 1096.23 29.3027 1096.19 28.9987 1096.14C28.3914 1096.05 27.5331 1095.93 26.5012 1095.85C24.453 1095.68 21.6461 1095.63 18.7329 1096.13C15.8301 1096.64 12.6604 1097.71 10.0583 1099.93C7.39755 1102.2 5.51911 1105.51 5.00683 1110.07L9.97556 1110.63ZM9.36126 1356.15C9.51412 1356.33 9.43646 1356.32 9.25927 1355.77C9.10884 1355.3 8.94519 1354.62 8.77756 1353.72C8.44342 1351.92 8.13183 1349.42 7.84781 1346.28C7.28088 1340.01 6.84153 1331.38 6.51787 1321.08C5.87089 1300.48 5.69028 1273.33 5.85444 1245.23C6.18311 1188.97 7.89237 1129.17 9.97556 1110.63L5.00683 1110.07C2.88823 1128.92 1.18279 1189.01 0.854524 1245.2C0.690208 1273.33 0.870567 1300.55 1.52033 1321.24C1.84503 1331.57 2.288 1340.31 2.86812 1346.73C3.15761 1349.93 3.48573 1352.61 3.86133 1354.63C4.04857 1355.64 4.2573 1356.54 4.49723 1357.29C4.71041 1357.96 5.04111 1358.82 5.62079 1359.47L9.36126 1356.15ZM28.9093 1363.4C24.3617 1363.4 21.0825 1363.29 18.1256 1362.36C15.276 1361.46 12.5448 1359.74 9.36128 1356.15L5.62078 1359.47C9.26645 1363.58 12.7312 1365.9 16.6268 1367.13C20.4152 1368.32 24.4305 1368.4 28.9093 1368.4V1363.4ZM34.333 3479.83L31.4093 1365.9L26.4093 1365.9L29.333 3479.84L34.333 3479.83ZM78.1459 3637.9C48.1875 3602.15 34.333 3550.58 34.333 3479.83H29.333C29.333 3551.12 43.2758 3604.07 74.3137 3641.11L78.1459 3637.9ZM224.171 3707.84C161.197 3699.44 103.625 3668.3 78.1459 3637.9L74.3137 3641.11C100.778 3672.69 159.613 3704.27 223.51 3712.79L224.171 3707.84ZM1660.07 3697.59C1658.49 3697.86 1653.28 3698.17 1644.49 3698.49C1635.81 3698.81 1623.85 3699.14 1608.94 3699.47C1579.13 3700.13 1537.6 3700.82 1487.16 3701.5C1386.27 3702.85 1249.73 3704.19 1100.04 3705.31C800.649 3707.54 448.636 3708.9 223.853 3707.81L223.829 3712.81C448.643 3713.9 800.68 3712.54 1100.08 3710.31C1249.77 3709.19 1386.32 3707.85 1487.22 3706.49C1537.68 3705.82 1579.22 3705.13 1609.05 3704.47C1623.97 3704.13 1635.96 3703.81 1644.68 3703.49C1653.29 3703.17 1658.91 3702.86 1660.9 3702.52L1660.07 3697.59ZM1808.02 3625.85C1771.3 3673.5 1720.53 3687.4 1660.07 3697.59L1660.9 3702.52C1721.5 3692.31 1774.01 3678.18 1811.99 3628.91L1808.02 3625.85ZM1850.87 3473.29C1850.87 3525.14 1842.75 3580.8 1808.02 3625.85L1811.99 3628.91C1847.71 3582.55 1855.87 3525.55 1855.87 3473.29H1850.87ZM1850.87 1272.46V3473.29H1855.87V1272.46H1850.87ZM1877.45 1260.74C1876.98 1261.38 1876.1 1262.16 1874.66 1263.01C1873.24 1263.85 1871.41 1264.69 1869.22 1265.51C1864.84 1267.16 1859.19 1268.66 1852.85 1270.01L1853.89 1274.9C1860.35 1273.53 1866.26 1271.96 1870.98 1270.19C1873.34 1269.31 1875.45 1268.35 1877.2 1267.31C1878.93 1266.29 1880.46 1265.1 1881.49 1263.69L1877.45 1260.74ZM1876.98 871.232C1879.69 900.661 1881.91 995.305 1882.34 1084.23C1882.55 1128.66 1882.32 1171.61 1881.48 1204.2C1881.06 1220.5 1880.49 1234.18 1879.74 1244.15C1879.37 1249.14 1878.96 1253.16 1878.52 1256.09C1878.29 1257.56 1878.07 1258.71 1877.85 1259.56C1877.6 1260.49 1877.43 1260.77 1877.45 1260.74L1881.49 1263.69C1882.06 1262.9 1882.42 1261.82 1882.68 1260.83C1882.97 1259.74 1883.22 1258.4 1883.46 1256.84C1883.94 1253.72 1884.36 1249.56 1884.73 1244.52C1885.48 1234.43 1886.05 1220.66 1886.48 1204.33C1887.32 1171.67 1887.55 1128.66 1887.34 1084.2C1886.91 995.338 1884.7 900.461 1881.96 870.773L1876.98 871.232ZM1852.91 857.468C1859.93 858.772 1865.95 860.577 1870.25 862.983C1874.55 865.393 1876.69 868.14 1876.98 871.232L1881.96 870.773C1881.46 865.338 1877.68 861.413 1872.69 858.62C1867.7 855.823 1861.06 853.895 1853.82 852.552L1852.91 857.468ZM1850.87 225.835V855.01H1855.87V225.835H1850.87ZM1782.77 70.4489C1801.08 87.8715 1816.19 105.819 1827.68 129.812C1839.19 153.823 1847.13 184.035 1850.88 226.057L1855.86 225.613C1852.07 183.187 1844.02 152.352 1832.19 127.652C1820.35 102.934 1804.8 84.5072 1786.22 66.8273L1782.77 70.4489ZM248.72 96.9873C272.062 93.5927 325.166 91.7833 374.226 91.7363C398.724 91.7128 422.143 92.1288 440.247 92.9998C449.303 93.4355 456.996 93.9836 462.816 94.6425C465.728 94.9723 468.135 95.3258 469.991 95.6987C471.925 96.087 473.022 96.4522 473.489 96.7073L475.886 92.3193C474.7 91.6715 472.95 91.193 470.976 90.7966C468.925 90.3847 466.363 90.0122 463.378 89.6743C457.404 88.9978 449.59 88.4435 440.487 88.0056C422.272 87.1293 398.765 86.7128 374.221 86.7363C325.195 86.7832 271.748 88.5858 248 92.0394L248.72 96.9873ZM175.421 134.405C193.593 117.152 215.84 101.769 248.72 96.9873L248 92.0394C213.762 97.0185 190.608 113.091 171.978 130.779L175.421 134.405ZM160.3 150.687C163.887 146.178 169.062 140.443 175.421 134.405L171.978 130.779C165.466 136.963 160.131 142.867 156.387 147.574L160.3 150.687ZM115.787 249.963C125.736 200.163 145.186 166.974 160.175 150.831L156.511 147.429C140.788 164.363 120.981 198.441 110.884 248.983L115.787 249.963ZM115.832 545.291C113.691 504.27 111.94 439.089 111.601 379.78C111.431 350.127 111.614 321.961 112.276 299.029C112.94 276.016 114.084 258.486 115.787 249.963L110.884 248.983C109.084 257.992 107.94 275.954 107.278 298.885C106.614 321.896 106.431 350.125 106.601 379.809C106.941 439.174 108.693 504.435 110.838 545.551L115.832 545.291ZM115.835 3156.87V545.421H110.835V3156.87H115.835ZM124.499 3446.77C122.758 3436.46 121.33 3413.24 120.18 3384C119.033 3354.84 118.167 3319.89 117.524 3286.23C116.88 3252.57 116.458 3220.23 116.196 3196.3C116.066 3184.34 115.975 3174.47 115.918 3167.6C115.889 3164.17 115.868 3161.48 115.855 3159.66C115.848 3158.74 115.843 3158.04 115.84 3157.57C115.838 3157.34 115.837 3157.16 115.836 3157.04C115.836 3156.98 115.836 3156.93 115.835 3156.9C115.835 3156.89 115.835 3156.88 115.835 3156.87C115.835 3156.87 115.835 3156.86 115.835 3156.86C115.835 3156.86 115.835 3156.86 113.335 3156.87C110.835 3156.89 110.835 3156.89 110.835 3156.89C110.835 3156.9 110.835 3156.9 110.835 3156.9C110.835 3156.91 110.835 3156.92 110.835 3156.94C110.836 3156.97 110.836 3157.01 110.836 3157.07C110.837 3157.19 110.838 3157.37 110.84 3157.61C110.843 3158.08 110.848 3158.78 110.855 3159.69C110.868 3161.52 110.889 3164.21 110.918 3167.65C110.976 3174.52 111.066 3184.39 111.197 3196.36C111.458 3220.29 111.88 3252.65 112.524 3286.32C113.169 3319.99 114.035 3354.99 115.184 3384.2C116.33 3413.34 117.763 3436.91 119.569 3447.61L124.499 3446.77ZM128.073 3478.41C127.112 3467.44 126.168 3456.65 124.499 3446.77L119.569 3447.61C121.198 3457.25 122.127 3467.83 123.092 3478.85L128.073 3478.41ZM152.672 3563.33C143.256 3552.71 137.763 3539.29 134.298 3524.54C130.828 3509.79 129.432 3493.9 128.073 3478.41L123.092 3478.85C124.445 3494.27 125.865 3510.52 129.431 3525.69C133 3540.87 138.762 3555.18 148.93 3566.65L152.672 3563.33ZM262.775 3616.71C218.25 3616.71 178.882 3592.91 152.672 3563.33L148.93 3566.65C175.812 3596.99 216.449 3621.71 262.775 3621.71V3616.71ZM1136.95 3616.71H262.775V3621.71H1136.95V3616.71ZM1231.37 3617.87C1197.25 3617.43 1165.1 3617.01 1136.98 3616.71L1136.93 3621.71C1165.04 3622.01 1197.18 3622.43 1231.3 3622.87L1231.37 3617.87ZM1231.47 3617.87L1231.37 3617.87L1231.3 3622.87L1231.39 3622.87L1231.47 3617.87ZM1231.59 3617.87L1231.46 3617.87L1231.4 3622.87L1231.54 3622.87L1231.59 3617.87ZM1231.57 3617.87H1231.56V3622.87H1231.57V3617.87ZM1231.58 3617.87H1231.57V3622.87H1231.58V3617.87ZM1231.59 3617.87H1231.58V3622.87H1231.59V3617.87ZM1626.51 3616.75C1617.59 3618.16 1598.4 3619.09 1571.95 3619.63C1545.57 3620.17 1512.16 3620.32 1474.93 3620.23C1400.47 3620.06 1310.77 3618.9 1231.62 3617.87L1231.56 3622.87C1310.7 3623.9 1400.42 3625.06 1474.92 3625.23C1512.16 3625.32 1545.62 3625.17 1572.05 3624.63C1598.41 3624.09 1617.97 3623.16 1627.29 3621.68L1626.51 3616.75ZM1728.08 3579.08C1726.35 3577.27 1726.35 3577.27 1726.35 3577.27C1726.35 3577.27 1726.36 3577.27 1726.36 3577.27C1726.36 3577.27 1726.36 3577.27 1726.35 3577.27C1726.35 3577.27 1726.35 3577.28 1726.35 3577.28C1726.34 3577.29 1726.32 3577.31 1726.29 3577.33C1726.24 3577.38 1726.16 3577.45 1726.06 3577.55C1725.84 3577.74 1725.5 3578.04 1725.04 3578.43C1724.12 3579.2 1722.72 3580.34 1720.8 3581.74C1716.97 3584.55 1711.09 3588.44 1703.01 3592.69C1686.84 3601.19 1661.8 3611.14 1626.51 3616.75L1627.29 3621.68C1663.14 3615.99 1688.7 3605.86 1705.33 3597.12C1713.65 3592.75 1719.73 3588.72 1723.76 3585.77C1725.77 3584.3 1727.26 3583.09 1728.27 3582.25C1728.77 3581.83 1729.15 3581.49 1729.4 3581.26C1729.53 3581.14 1729.63 3581.05 1729.7 3580.99C1729.73 3580.96 1729.76 3580.93 1729.78 3580.91C1729.79 3580.91 1729.8 3580.9 1729.8 3580.89C1729.81 3580.89 1729.81 3580.89 1729.81 3580.88C1729.81 3580.88 1729.81 3580.88 1729.81 3580.88C1729.81 3580.88 1729.82 3580.88 1728.08 3579.08ZM1771 3455.28C1771 3501.17 1759.76 3531.68 1748.63 3550.66C1743.07 3560.15 1737.52 3566.78 1733.39 3571.02C1731.33 3573.13 1729.62 3574.65 1728.44 3575.64C1727.85 3576.13 1727.39 3576.48 1727.09 3576.71C1726.94 3576.82 1726.83 3576.9 1726.76 3576.95C1726.72 3576.98 1726.69 3577 1726.68 3577.01C1726.67 3577.01 1726.67 3577.02 1726.67 3577.02C1726.67 3577.02 1726.67 3577.02 1726.67 3577.02C1726.67 3577.02 1726.67 3577.02 1726.67 3577.02C1726.67 3577.02 1726.67 3577.02 1728.08 3579.08C1729.5 3581.14 1729.5 3581.14 1729.5 3581.14C1729.5 3581.14 1729.5 3581.13 1729.51 3581.13C1729.51 3581.13 1729.51 3581.13 1729.52 3581.12C1729.53 3581.12 1729.54 3581.11 1729.55 3581.1C1729.58 3581.08 1729.62 3581.05 1729.67 3581.01C1729.77 3580.94 1729.92 3580.84 1730.1 3580.7C1730.46 3580.43 1730.98 3580.02 1731.63 3579.48C1732.94 3578.39 1734.78 3576.76 1736.97 3574.51C1741.36 3570.01 1747.16 3563.06 1752.95 3553.18C1764.53 3533.42 1776 3502.03 1776 3455.28H1771ZM1771 1025.54V3455.28H1776V1025.54H1771ZM1771 277.467C1772.03 328.237 1771.43 797.304 1771 1025.54L1776 1025.55C1776.43 797.369 1777.03 328.209 1776 277.366L1771 277.467ZM1737.11 165.119C1749.22 183.66 1757.29 196.025 1762.56 211.575C1767.83 227.112 1770.36 245.98 1771 277.467L1776 277.366C1775.36 245.714 1772.82 226.236 1767.3 209.969C1761.78 193.714 1753.34 180.818 1741.29 162.384L1737.11 165.119ZM1736.68 164.47L1737.11 165.119L1741.29 162.384L1740.87 161.734L1736.68 164.47ZM1627.99 94.8213C1649.32 97.226 1668.39 102.315 1686.14 112.898C1703.88 123.481 1720.47 139.657 1736.68 164.47L1740.87 161.734C1724.34 136.436 1707.24 119.66 1688.7 108.604C1670.16 97.5478 1650.35 92.3096 1628.55 89.8528L1627.99 94.8213ZM1489.98 93.796C1538.51 94.2635 1598.06 94.8371 1628.27 94.8371V89.8371C1598.09 89.8371 1538.58 89.2638 1490.03 88.7963L1489.98 93.796ZM1489.98 93.796L1489.98 93.796L1490.03 88.7963L1490.03 88.7962L1489.98 93.796ZM1489.97 93.7959L1489.97 93.7959L1490.04 88.7963L1490.04 88.7963L1489.97 93.7959ZM1489.97 93.7959L1489.97 93.7959L1490.04 88.7963L1490.03 88.7963L1489.97 93.7959ZM1489.96 93.7957L1489.96 93.7958L1490.04 88.7964L1490.04 88.7963L1489.96 93.7957ZM1489.96 93.7957L1489.96 93.7957L1490.04 88.7963L1490.04 88.7963L1489.96 93.7957ZM1489.96 93.7956L1489.96 93.7957L1490.04 88.7964L1490.04 88.7964L1489.96 93.7956ZM1489.95 93.7956L1489.97 93.7959L1490.02 88.7961L1490 88.7959L1489.95 93.7956ZM1489.94 93.7956L1489.95 93.7957L1490 88.7959L1489.99 88.7958L1489.94 93.7956ZM1489.93 93.7955L1489.94 93.7956L1489.99 88.7958L1489.97 88.7957L1489.93 93.7955ZM1418.58 93.2028C1428.39 93.2028 1456.54 93.4739 1489.93 93.7954L1489.98 88.7957C1456.61 88.4743 1428.42 88.2028 1418.58 88.2028V93.2028ZM1390.21 112.296C1390.21 104.767 1393.04 100.228 1397.67 97.408C1402.54 94.4487 1409.69 93.2028 1418.58 93.2028V88.2028C1409.41 88.2028 1401.13 89.4509 1395.08 93.1368C1388.79 96.9621 1385.21 103.219 1385.21 112.296H1390.21ZM1390.21 163.889V112.296H1385.21V163.889H1390.21ZM1371.72 209.797C1385.47 196.21 1390.21 179.106 1390.21 163.889H1385.21C1385.21 178.091 1380.8 193.797 1368.2 206.239L1371.72 209.797ZM1311.84 225.3C1322.44 225.3 1333.88 224.859 1344.37 222.74C1354.85 220.624 1364.64 216.787 1371.72 209.797L1368.2 206.239C1362.11 212.263 1353.39 215.817 1343.38 217.839C1333.39 219.857 1322.35 220.3 1311.84 220.3V225.3ZM870.76 225.3H1311.84V220.3H870.76V225.3ZM582.543 225.294C598.091 226.318 781.279 225.723 870.772 225.3L870.748 220.3C781.065 220.724 598.186 221.314 582.871 220.305L582.543 225.294ZM497.501 185.158C499.178 191.075 501.968 200.137 513.916 208.183C525.68 216.105 546.091 222.894 582.543 225.294L582.871 220.305C546.783 217.929 527.404 211.239 516.709 204.036C506.196 196.956 503.856 189.244 502.311 183.795L497.501 185.158ZM491.476 123.727C491.476 132.057 492.16 144.485 493.243 156.24C494.321 167.931 495.818 179.223 497.501 185.158L502.311 183.795C500.772 178.364 499.304 167.509 498.222 155.781C497.147 144.117 496.476 131.852 496.476 123.727H491.476ZM473.489 96.7073C478.647 99.5254 483.097 102.489 486.286 106.59C489.419 110.62 491.476 115.936 491.476 123.727H496.476C496.476 114.957 494.126 108.527 490.233 103.521C486.395 98.5855 481.2 95.2227 475.886 92.3193L473.489 96.7073ZM835.623 134.353C835.623 129.228 839.777 125.074 844.902 125.074V120.074C837.016 120.074 830.623 126.467 830.623 134.353H835.623ZM844.902 143.632C839.777 143.632 835.623 139.478 835.623 134.353H830.623C830.623 142.239 837.016 148.632 844.902 148.632V143.632ZM1043.97 143.632H844.902V148.632H1043.97V143.632ZM1053.24 134.353C1053.24 139.478 1049.09 143.632 1043.97 143.632V148.632C1051.85 148.632 1058.24 142.239 1058.24 134.353H1053.24ZM1043.97 125.074C1049.09 125.074 1053.24 129.228 1053.24 134.353H1058.24C1058.24 126.467 1051.85 120.074 1043.97 120.074V125.074ZM844.902 125.074H1043.97V120.074H844.902V125.074ZM1145.58 169.382C1162.33 169.382 1175.81 155.518 1175.81 138.534H1170.81C1170.81 152.862 1159.46 164.382 1145.58 164.382V169.382ZM1115.36 138.534C1115.36 155.518 1128.84 169.382 1145.58 169.382V164.382C1131.7 164.382 1120.36 152.862 1120.36 138.534H1115.36ZM1145.58 107.686C1128.84 107.686 1115.36 121.55 1115.36 138.534H1120.36C1120.36 124.206 1131.7 112.686 1145.58 112.686V107.686ZM1175.81 138.534C1175.81 121.55 1162.33 107.686 1145.58 107.686V112.686C1159.46 112.686 1170.81 124.206 1170.81 138.534H1175.81ZM768.508 138.534C768.508 152.862 757.163 164.382 743.283 164.382V169.382C760.028 169.382 773.508 155.518 773.508 138.534H768.508ZM743.283 112.686C757.163 112.686 768.508 124.206 768.508 138.534H773.508C773.508 121.55 760.028 107.686 743.283 107.686V112.686ZM718.059 138.534C718.059 124.206 729.404 112.686 743.283 112.686V107.686C726.539 107.686 713.059 121.55 713.059 138.534H718.059ZM743.283 164.382C729.404 164.382 718.059 152.862 718.059 138.534H713.059C713.059 155.518 726.539 169.382 743.283 169.382V164.382ZM561.91 169.382C578.655 169.382 592.135 155.518 592.135 138.534H587.135C587.135 152.862 575.79 164.382 561.91 164.382V169.382ZM531.686 138.534C531.686 155.518 545.166 169.382 561.91 169.382V164.382C548.031 164.382 536.686 152.862 536.686 138.534H531.686ZM561.91 107.686C545.166 107.686 531.686 121.55 531.686 138.534H536.686C536.686 124.206 548.031 112.686 561.91 112.686V107.686ZM592.135 138.534C592.135 121.55 578.655 107.686 561.91 107.686V112.686C575.79 112.686 587.135 124.206 587.135 138.534H592.135ZM1351.07 138.534C1351.07 152.862 1339.73 164.382 1325.85 164.382V169.382C1342.59 169.382 1356.07 155.518 1356.07 138.534H1351.07ZM1325.85 112.686C1339.73 112.686 1351.07 124.206 1351.07 138.534H1356.07C1356.07 121.55 1342.59 107.686 1325.85 107.686V112.686ZM1300.62 138.534C1300.62 124.206 1311.97 112.686 1325.85 112.686V107.686C1309.1 107.686 1295.62 121.55 1295.62 138.534H1300.62ZM1325.85 164.382C1311.97 164.382 1300.62 152.862 1300.62 138.534H1295.62C1295.62 155.518 1309.1 169.382 1325.85 169.382V164.382Z" fill="black"/>
</svg>
