<svg width="361" height="519" viewBox="0 0 361 519" fill="none" xmlns="http://www.w3.org/2000/svg">
<path d="M-29.1444 0V441.182C-29.1444 472.457 -30.4047 511.172 1.02868 517.596C28.0518 523.119 35.8535 508.603 65.939 508.603C90.5167 508.603 101.878 522.736 122.675 517.596C143.471 512.457 149.611 500.277 170.84 496.546C192.068 492.815 209.99 508.603 234.597 501.61C249.125 497.482 262.377 484.888 285.278 484.888C308.178 484.888 319.265 494.873 341.757 489.472C360.85 484.888 369.05 458.483 368.397 441.182V0H-29.1444Z" fill="url(#paint0_linear_233_1674)" fill-opacity="0.4"/>
<path d="M0.699633 0V422.968C0.699633 452.952 -0.438879 490.069 27.9577 496.228C52.3701 501.523 59.4181 487.605 86.5971 487.605C108.8 487.605 119.064 501.155 137.852 496.228C156.639 491.301 162.186 479.624 181.363 476.047C200.541 472.47 216.732 487.605 238.961 480.901C252.086 476.943 264.057 464.87 284.745 464.87C305.434 464.87 315.449 474.443 335.769 469.265C353.017 464.87 360.424 439.555 359.835 422.968V0H0.699633Z" fill="url(#paint1_linear_233_1674)" fill-opacity="0.8"/>
<path d="M221.601 149.453C224.097 140.306 234.701 136.558 241.247 135.191C241.839 138.761 243.583 148.431 239.581 155.784C234.211 165.653 218.939 159.206 221.601 149.453Z" fill="#07BBE5"/>
<path d="M290.716 201.023C293.212 191.877 303.816 188.128 310.362 186.761C310.954 190.331 312.698 200.001 308.696 207.354C303.325 217.223 288.054 210.776 290.716 201.023Z" fill="#07BBE5"/>
<path d="M217.839 239.592C220.335 230.445 230.939 226.697 237.485 225.33C238.077 228.9 239.821 238.57 235.82 245.923C230.449 255.792 215.178 249.345 217.839 239.592Z" fill="#07BBE5"/>
<defs>
<linearGradient id="paint0_linear_233_1674" x1="169.669" y1="0" x2="169.669" y2="518.85" gradientUnits="userSpaceOnUse">
<stop stop-color="#C2E59C"/>
<stop offset="0.979181" stop-color="#64B3F4"/>
</linearGradient>
<linearGradient id="paint1_linear_233_1674" x1="180.305" y1="0" x2="180.305" y2="497.429" gradientUnits="userSpaceOnUse">
<stop stop-color="#C2E59C"/>
<stop offset="0.979181" stop-color="#64B3F4"/>
</linearGradient>
</defs>
</svg>
