<svg width="360" height="558" viewBox="0 0 360 558" fill="none" xmlns="http://www.w3.org/2000/svg">
<path d="M-29.3173 39V480.182C-29.3173 511.457 -30.5775 550.172 0.855831 556.596C27.8789 562.119 35.6806 547.603 65.7662 547.603C90.3439 547.603 101.705 561.736 122.502 556.596C143.298 551.457 149.438 539.277 170.667 535.546C191.895 531.815 209.817 547.603 234.425 540.61C248.952 536.482 262.204 523.888 285.105 523.888C308.005 523.888 319.092 533.873 341.585 528.472C360.677 523.888 368.877 497.483 368.224 480.182V39H-29.3173Z" fill="url(#paint0_linear_233_1673)" fill-opacity="0.4"/>
<path d="M0.526782 0.31665V456.177C0.526782 488.493 -0.611731 528.496 27.7849 535.134C52.1972 540.841 59.2453 525.841 86.4242 525.841C108.627 525.841 118.891 540.445 137.679 535.134C156.466 529.824 162.013 517.239 181.19 513.384C200.368 509.528 216.559 525.841 238.788 518.616C251.913 514.35 263.884 501.338 284.572 501.338C305.261 501.338 315.277 511.655 335.596 506.075C352.844 501.338 360.252 474.054 359.662 456.177V0.31665H0.526782Z" fill="url(#paint1_linear_233_1673)" fill-opacity="0.8"/>
<circle cx="320.34" cy="249.439" r="141.538" fill="#FFE97D" fill-opacity="0.35"/>
<circle cx="324.762" cy="249.439" r="122.882" fill="#FED301"/>
<circle cx="325.762" cy="251.439" r="99.6082" fill="#FFDD3A"/>
<defs>
<linearGradient id="paint0_linear_233_1673" x1="169.496" y1="39" x2="169.496" y2="557.85" gradientUnits="userSpaceOnUse">
<stop stop-color="#C6FFDD"/>
<stop offset="0.520844" stop-color="#FBD786"/>
<stop offset="0.979181" stop-color="#F7797D"/>
</linearGradient>
<linearGradient id="paint1_linear_233_1673" x1="180.133" y1="0.31665" x2="180.133" y2="536.429" gradientUnits="userSpaceOnUse">
<stop stop-color="#C6FFDD"/>
<stop offset="0.520844" stop-color="#FBD786"/>
<stop offset="0.979181" stop-color="#F7797D"/>
</linearGradient>
</defs>
</svg>
