<svg width="361" height="519" viewBox="0 0 361 519" fill="none" xmlns="http://www.w3.org/2000/svg">
<path d="M-28.9716 0V441.182C-28.9716 472.457 -30.2318 511.172 1.20153 517.596C28.2246 523.119 36.0264 508.603 66.1119 508.603C90.6896 508.603 102.051 522.736 122.848 517.596C143.644 512.457 149.784 500.277 171.012 496.546C192.241 492.815 210.163 508.603 234.77 501.61C249.298 497.482 262.55 484.888 285.45 484.888C308.351 484.888 319.438 494.873 341.93 489.472C361.023 484.888 369.223 458.483 368.57 441.182V0H-28.9716Z" fill="url(#paint0_linear_233_1675)" fill-opacity="0.4"/>
<path d="M0.872485 0V422.968C0.872485 452.952 -0.266027 490.069 28.1306 496.228C52.5429 501.523 59.591 487.605 86.7699 487.605C108.973 487.605 119.237 501.155 138.024 496.228C156.812 491.301 162.359 479.624 181.536 476.047C200.714 472.47 216.904 487.605 239.134 480.901C252.259 476.943 264.23 464.87 284.918 464.87C305.606 464.87 315.622 474.443 335.941 469.265C353.189 464.87 360.597 439.555 360.008 422.968V0H0.872485Z" fill="url(#paint1_linear_233_1675)" fill-opacity="0.8"/>
<path d="M221.844 123.958L231.472 109.997C231.846 109.455 232.461 109.132 233.119 109.132H246.732C248.365 109.132 249.31 110.983 248.352 112.305L239.298 124.809C238.608 125.761 239.289 127.094 240.464 127.094C241.813 127.094 242.422 128.781 241.384 129.643L222.855 145.018C221.181 146.407 218.806 144.502 219.799 142.566L226.239 130.006C226.922 128.675 225.955 127.094 224.46 127.094H223.49C221.878 127.094 220.929 125.285 221.844 123.958Z" fill="#ADB4B9"/>
<path d="M261.367 279.864L270.996 265.902C271.369 265.361 271.985 265.037 272.642 265.037H286.256C287.888 265.037 288.833 266.888 287.875 268.21L278.821 280.714C278.132 281.666 278.812 282.999 279.988 282.999C281.337 282.999 281.946 284.687 280.908 285.548L262.379 300.923C260.705 302.312 258.329 300.407 259.322 298.471L265.763 285.912C266.445 284.581 265.479 282.999 263.983 282.999H263.014C261.402 282.999 260.452 281.19 261.367 279.864Z" fill="#ADB4B9"/>
<path d="M307.715 202.149L317.344 188.187C317.717 187.646 318.333 187.323 318.99 187.323H332.604C334.236 187.323 335.181 189.173 334.224 190.496L325.169 202.999C324.48 203.951 325.16 205.284 326.336 205.284C327.685 205.284 328.294 206.972 327.256 207.833L308.727 223.208C307.053 224.597 304.677 222.692 305.67 220.756L312.111 208.197C312.793 206.866 311.827 205.284 310.331 205.284H309.362C307.75 205.284 306.8 203.475 307.715 202.149Z" fill="#F9F9F9"/>
<path d="M185.346 104.132L365.346 104.132" stroke="#ADB4B9" stroke-width="14" stroke-linecap="round"/>
<path d="M224.869 260.038L404.869 260.037" stroke="#ADB4B9" stroke-width="14" stroke-linecap="round"/>
<path d="M205.76 181.847L385.76 181.847" stroke="#F9F9F9" stroke-width="14" stroke-linecap="round"/>
<defs>
<linearGradient id="paint0_linear_233_1675" x1="169.842" y1="0" x2="169.842" y2="518.85" gradientUnits="userSpaceOnUse">
<stop stop-color="#304352"/>
<stop offset="0.979181" stop-color="#D7D2CC"/>
</linearGradient>
<linearGradient id="paint1_linear_233_1675" x1="180.478" y1="0" x2="180.478" y2="497.429" gradientUnits="userSpaceOnUse">
<stop stop-color="#304352"/>
<stop offset="0.979181" stop-color="#D7D2CC"/>
</linearGradient>
</defs>
</svg>
