<svg width="59" height="41" viewBox="0 0 59 41" fill="none" xmlns="http://www.w3.org/2000/svg">
<path d="M6.99868 27.4506L9.83351 21.4678L14.0858 23.0515L12.5798 25.9549L14.9716 25.515L6.73291 33.9613L9.83351 25.9549L6.99868 27.4506Z" fill="#F6A107"/>
<path d="M17.5405 31.938L19.2237 21.644L25.3363 23.2277L24.0075 27.3629L27.4625 25.4273L20.3754 41.0003L21.1727 28.0668L17.5405 31.938Z" fill="#FED301"/>
<path d="M5.05974 8.58376C5.52845 8.3537 6.01195 8.15793 6.54209 8.14132C6.70461 7.34561 7.13553 6.57453 7.51543 5.86158C8.02359 4.90792 8.77816 4.03335 9.68998 3.40554C10.3927 2.92167 11.1614 2.7354 11.9939 2.54173C12.882 2.33512 13.7496 2.25239 14.6611 2.30126C15.4301 2.34249 16.13 2.54205 16.8705 2.71916L16.9156 2.72994C17.5623 2.88452 18.1656 3.02872 18.739 3.36819C19.3445 3.72667 19.8603 3.99201 20.2517 4.56819C20.5763 5.04604 20.8428 5.54359 20.8911 6.11839C20.9149 6.40154 20.8781 6.76795 20.7319 7.01956C20.6562 7.14979 20.821 7.06307 20.9036 7.04757C21.5484 6.92656 22.141 6.71862 22.8119 6.71138C23.5598 6.70332 24.1931 6.76902 24.8934 7.01956C25.3788 7.19324 25.8691 7.41771 26.3108 7.65455C26.6514 7.83719 27.1617 8.20875 27.4625 8.4464C27.7282 8.6564 28.1712 9.23824 28.2557 10.1181C28.2557 10.47 28.2943 11.2141 28.2557 11.5861C28.2437 11.7019 28.2447 11.9959 28.4025 11.8149C28.8164 11.3402 29.4968 11.1991 30.1217 11.1705C31.5302 11.1061 32.8201 11.4018 34.018 12.1044C35.235 12.8181 36.0904 13.9645 36.6504 15.1861C37.1759 16.3325 37.3488 17.6452 37.0858 18.8795C36.9535 19.5 36.4628 20.0561 36.0134 20.5091C35.4808 21.046 34.882 21.5093 34.2146 21.8888C33.5134 22.2876 32.8964 22.6901 32.0749 22.8087C31.4127 22.9043 30.7791 22.9613 30.1118 22.8904C29.5936 22.8354 29.0915 22.7358 28.6239 22.5122C28.4613 22.4344 28.3207 22.3323 28.1836 22.2204C28.1788 22.2165 28.0758 22.1135 28.0666 22.12C27.9661 22.1907 27.9948 22.5227 27.9572 22.6336C27.8884 22.8364 27.8214 23.0053 27.7083 23.1939C27.4086 23.694 26.9022 24.2503 26.3499 24.5153C25.5406 24.9037 24.4738 25.0378 23.5707 24.9706C23.0006 24.9281 22.4122 24.9128 21.8565 24.7768C21.3239 24.6464 20.8964 24.4215 20.4284 24.1604C20.0541 23.9517 19.4643 23.5392 19.3336 23.418C19.2029 23.2968 19.0457 22.9564 18.8659 22.8951C18.5936 23.1239 18.0713 23.3276 17.9528 23.411C17.514 23.7198 16.9468 23.7739 16.4176 23.8359C15.7965 23.9088 15.1736 23.9672 14.5466 23.9643C13.0626 23.9576 11.6187 23.8099 10.3095 23.1239C9.35006 22.6211 8.39164 22.0354 7.87868 21.0834C7.60888 20.5827 7.59628 20.6315 7.0427 20.8313C6.58791 20.9954 6.13436 21.1027 5.65438 21.1768C4.91289 21.2912 4.3285 21.1184 3.62165 20.9246C1.38236 20.3108 0.44887 18.1887 0.0761949 16.1877C-0.268465 14.337 0.594707 12.2088 1.88749 10.8063C2.74852 9.87227 3.90261 9.15171 5.05974 8.58376Z" fill="#BFBDBD"/>
<path d="M33.2679 17.2655C33.5682 16.9655 33.7523 16.5569 33.9719 16.2041C33.9719 16.5692 33.6532 17.5307 33.3981 18.1618C33.1079 18.8799 32.6407 19.6947 32.0498 20.2148C31.6603 20.5577 31.0614 20.898 30.5232 20.788C30.1472 20.7111 29.8768 20.4435 29.8133 20.0701C29.7278 19.5679 30.0312 19.0895 30.4319 18.8037C30.6008 18.6833 30.783 18.639 30.9777 18.5792C31.2016 18.5105 31.4214 18.4183 31.6376 18.3289C32.2291 18.0841 32.8146 17.7184 33.2679 17.2655Z" fill="#C2C2C2"/>
<path d="M34.5493 23.3154L37.3842 18.5643L43.5854 16.3647L40.6619 20.4999L42.9652 20.236L35.3466 27.9785L37.8271 21.8197L34.5493 23.3154Z" fill="#F6A107"/>
<path d="M43.7627 23.5794C44.5305 22.2597 46.2609 19.3034 47.0405 18.0365L54.6591 17.2446L51.7357 20.7639L54.6591 19.7961L45.5345 28.6824L48.5465 21.8197L43.7627 23.5794Z" fill="#FED301"/>
<path d="M26.4097 20.4476C25.6438 20.1888 24.8493 19.6346 24.3004 19.0745C23.8742 18.6398 23.6211 18.05 23.461 17.4694C23.3004 16.8872 23.4232 16.3515 23.6253 15.7948C23.9844 14.8057 24.7444 13.8152 25.8291 13.5964C26.2661 13.5083 26.7965 13.393 27.1971 13.6214C27.3448 13.7056 27.0796 13.3025 27.0292 13.1404C26.9029 12.7345 26.7648 12.3296 26.6952 11.9093C26.4987 10.7226 26.8714 9.33093 27.4828 8.30893C28.6182 6.41105 30.7799 5.21545 33.0047 5.33025C33.3203 5.34653 33.6225 5.39217 33.9263 5.47634C34.0122 5.50017 34.2842 5.6026 34.2924 5.47277C34.3369 4.76162 34.392 4.06301 34.7817 3.43295C36.0723 1.34645 38.6554 0 41.0876 0C42.133 0 42.9731 0.256323 43.8736 0.769609C44.6632 1.21969 45.3955 1.90425 46.0113 2.56893C46.2507 2.82731 46.5437 3.08267 46.7471 3.3706C46.9229 3.61949 47.0367 3.94261 47.1453 4.22572C47.2635 4.53378 47.3739 4.86548 47.3739 5.19842C47.3739 5.36877 47.3532 5.53977 47.3275 5.70793C47.3176 5.77229 47.3046 5.82586 47.2881 5.87246C47.484 5.69563 47.7322 5.59452 48.008 5.45697C48.4655 5.2288 48.9215 4.99333 49.4278 4.89402C50.9307 4.59922 52.3876 5.12001 53.7675 5.63156C55.7762 6.37621 57.0495 7.88472 58.0143 9.74683C58.45 10.5879 58.7621 11.4714 58.9322 12.4048C59.1146 13.4055 58.9084 14.4518 58.5465 15.3906C57.8234 17.266 56.2228 18.4693 54.3175 19.0142C53.2697 19.3139 52.1157 19.3783 51.0315 19.3242L50.94 19.3196L50.9399 19.3196C50.0616 19.2759 49.1722 19.2317 48.3027 19.1033C47.4757 18.9812 46.7162 18.6983 45.9203 18.4602C45.3122 18.2782 44.815 17.9535 44.2452 17.6959C43.9553 17.5648 43.7023 17.4205 43.4415 17.2398C43.3298 17.1624 43.1572 17.0011 43.0111 17.0011C42.9711 17.0011 42.8911 17.0707 42.8665 17.1044C42.7203 17.3039 42.5178 17.4656 42.3182 17.6104C41.9889 17.8493 41.7196 18.1427 41.3735 18.3622C40.9222 18.6484 40.476 18.9776 39.9733 19.1656L39.972 19.1661C38.9668 19.5421 37.8863 19.9464 36.7927 19.8373C36.1596 19.7741 35.5707 19.5358 34.9461 19.44C34.8513 19.4254 34.8228 19.5808 34.7907 19.6449C34.6934 19.839 34.5754 19.9846 34.396 20.1116C34.0525 20.3548 33.777 20.6342 33.3906 20.8171C32.9423 21.0293 32.4904 21.2512 32.0137 21.3925C30.8243 21.7449 29.572 21.7436 28.4169 21.2803C27.9944 21.1108 27.5714 20.9496 27.1472 20.785C27.0122 20.7327 26.6018 20.5389 26.4097 20.4476Z" fill="#DBDADA"/>
</svg>
