<svg width="360" height="408" viewBox="0 0 360 408" fill="none" xmlns="http://www.w3.org/2000/svg">
<path d="M28.2337 0.591035C1.72218 1.94142 -22.1269 9.89649 -29.3242 22.707V407.406H390.32V101.942C390.32 77.2263 365.649 67.0493 344.719 67.0493C318.556 67.0493 277.687 73.0501 255.012 61.2339C232.338 49.4177 226.105 34.523 198.198 22.707C170.291 10.8909 136.648 22.9167 106.996 16.1646C77.3453 9.4125 61.3731 -1.09695 28.2337 0.591035Z" fill="#FFF5C4" fill-opacity="0.41"/>
<path d="M49.9158 30.5684C27.164 31.8193 6.69711 39.1882 0.520508 51.0547V407.406H360.652V124.451C360.652 101.557 339.48 92.1295 321.518 92.1295C299.066 92.1295 263.992 97.6881 244.533 86.7427C225.075 75.7972 219.726 62.0001 195.776 51.0547C171.827 40.1094 142.955 51.249 117.509 44.9944C92.0626 38.7399 78.3555 29.0048 49.9158 30.5684Z" fill="#FFF5C4"/>
</svg>
