<svg width="83" height="34" viewBox="0 0 83 34" fill="none" xmlns="http://www.w3.org/2000/svg">
<path d="M49.1871 25.6085C49.8142 25.7956 50.2204 25.7804 50.9966 25.836C56.4597 26.2274 61.9569 26.5492 67.4309 26.4897C68.9259 26.4735 70.4227 26.4122 71.9085 26.2544C73.0384 26.1344 73.9952 26.124 74.6816 25.2284C75.0681 24.7241 74.9316 23.9973 74.8449 23.4187C74.6864 22.3608 74.2924 21.3385 73.7995 20.3966C73.4974 19.8193 73.2597 19.3469 72.6413 19.0518C70.7095 18.13 67.9459 17.8623 65.9887 18.7751C64.7682 19.3443 64.0553 20.8888 64.5195 22.2005C64.908 23.2985 66.0017 23.8392 67.0814 23.8981C67.98 23.9471 69.2359 23.6252 69.3845 22.5408C69.5432 21.3832 67.8576 21.1247 67.1347 20.8607" stroke="#D9D9D9" stroke-width="2" stroke-linecap="round"/>
<path d="M44.6802 20.9807C47.5094 20.9807 50.3425 21.1462 53.1693 21.3357C54.9221 21.4531 56.6863 21.7328 58.442 21.7121C59.0512 21.7049 59.7463 21.6894 60.3249 21.2657C60.8635 20.8713 60.8266 19.7202 60.5775 18.8942C60.1422 17.4513 59.3608 16.2504 58.6329 15.3503C57.4021 13.8284 56.0043 12.8058 54.5029 13.1831C53.5613 13.4197 52.5672 14.3793 51.868 15.5385C51.6939 15.8272 51.3994 16.334 51.4245 16.8399C51.4631 17.6176 52.0959 18.244 52.4291 18.4855C52.9961 18.8965 53.6273 18.87 54.2238 18.8135C54.5602 18.7817 55.4634 18.8616 55.625 18.0445C55.9784 16.2575 54.3865 16.6402 53.933 16.6248" stroke="#D9D9D9" stroke-width="2" stroke-linecap="round"/>
<path d="M48.7687 31.3676C49.9004 30.973 51.0744 30.128 51.8855 29.2741C52.5152 28.6112 52.8892 27.7121 53.1258 26.8268C53.3631 25.9391 53.1817 25.1223 52.883 24.2735C52.3524 22.7655 51.2294 21.2553 49.6266 20.9217C48.9809 20.7873 48.1972 20.6116 47.6052 20.9597C47.3869 21.0882 47.7787 20.4736 47.8533 20.2264C48.0399 19.6075 48.2439 18.9902 48.3468 18.3494C48.6372 16.54 48.0864 14.4182 47.183 12.8599C45.5053 9.96626 42.311 8.14335 39.0235 8.31838C38.5573 8.3432 38.1106 8.41278 37.6618 8.54111C37.5347 8.57744 37.1328 8.73362 37.1208 8.53568C37.055 7.4514 36.9736 6.38623 36.3978 5.42559C34.4907 2.24432 30.6738 0.191406 27.0798 0.191406C25.5351 0.191406 24.2936 0.582218 22.9631 1.36482C21.7963 2.05106 20.7143 3.09479 19.8043 4.10822C19.4506 4.50217 19.0176 4.89151 18.7171 5.33052C18.4573 5.71 18.2891 6.20265 18.1286 6.63432C17.954 7.10401 17.7908 7.60974 17.7908 8.11738C17.7908 8.3771 17.8214 8.63783 17.8594 8.89422C17.874 8.99235 17.8932 9.07402 17.9176 9.14508C17.6281 8.87547 17.2614 8.72131 16.8539 8.51159C16.1779 8.1637 15.504 7.80467 14.7559 7.65326C12.5351 7.20378 10.3824 7.99782 8.34337 8.77778C5.37521 9.91314 3.4937 12.2131 2.06805 15.0523C1.42415 16.3346 0.963055 17.6816 0.711643 19.1049C0.442135 20.6306 0.746792 22.2259 1.28165 23.6573C2.35007 26.5166 4.71529 28.3513 7.53059 29.1821C9.07897 29.6391 10.7841 29.7372 12.3862 29.6548L12.5213 29.6478L12.5215 29.6478C13.8193 29.5812 15.1335 29.5137 16.4184 29.3179C17.6404 29.1318 18.7626 28.7006 19.9387 28.3374C20.8373 28.0599 21.572 27.565 22.414 27.1721C22.8423 26.9723 23.2162 26.7522 23.6015 26.4768C23.7666 26.3588 24.0216 26.1128 24.2375 26.1128C24.2966 26.1128 24.4148 26.219 24.4513 26.2703C24.6672 26.5745 24.9665 26.8209 25.2614 27.0417C25.748 27.406 26.146 27.8533 26.6574 28.188C27.3242 28.6243 27.9836 29.1263 28.7263 29.413L28.7283 29.4138C30.2136 29.9871 31.8102 30.6034 33.4262 30.437C34.3617 30.3407 35.2319 29.9775 36.1548 29.8313C36.2949 29.8091 36.337 30.046 36.3844 30.1437C36.5282 30.4398 36.7026 30.6617 36.9676 30.8553C37.4752 31.2261 37.8824 31.6521 38.4533 31.931C39.1157 32.2545 39.7834 32.5929 40.4879 32.8083C42.2455 33.3456 44.0958 33.3436 45.8027 32.6372C46.4271 32.3788 47.0521 32.133 47.679 31.8821C47.8784 31.8022 48.4848 31.5068 48.7687 31.3676Z" fill="#E3E3E3"/>
</svg>
