<svg width="203" height="185" viewBox="0 0 203 185" fill="none" xmlns="http://www.w3.org/2000/svg">
<path d="M50.9573 54.5001C52.5573 56.1001 55.9573 61.8335 57.4573 64.5001C54.124 62.1667 47.1573 57.3 45.9573 56.5C44.4573 55.5 33.4573 49.0001 34.9573 44.5001C36.4573 40.0001 48.9573 52.5001 50.9573 54.5001Z" fill="#EFC700"/>
<path d="M38.0067 105.48C40.0613 105.65 47.2362 106.385 49.4165 106.776C46.5184 107.583 40.8238 109.943 39.8021 110.252C38.5251 110.639 29.2548 113.194 27.5511 110.24C25.8474 107.286 35.9397 105.309 38.0067 105.48Z" fill="#EFC700"/>
<path d="M88.957 22.5C89.6996 24.357 93.6237 33 95.957 37C95.7904 33.3333 95.4571 25.3 95.4571 22.5C95.4571 19 92.957 7.5 88.957 7.5C84.957 7.5 87.9573 20 88.957 22.5Z" fill="#EFC700"/>
<path d="M56.5533 32.6703C58.4663 34.9614 67.9408 45.4068 72.9573 50C70.767 44.8707 66.0071 33.6181 64.4899 29.6419C62.5934 24.6717 53.3095 9.50564 48.4255 11.3692C43.5415 13.2328 53.978 29.5859 56.5533 32.6703Z" fill="#EFC700"/>
<path d="M24.4573 82.5002C28.464 82.1963 41.4573 82.5002 48.4576 82.0001C42.9576 79.5001 34.5752 76.0758 30.4576 75.0001C25.3105 73.6554 1.94664 71.7933 0.625319 76.851C-0.696002 81.9088 20.4506 82.8041 24.4573 82.5002Z" fill="#EFC700"/>
<path d="M50.7192 144.711C53.8274 140.715 61.1416 127.336 63.6082 121.612C59.3894 124.927 48.81 133.024 46.2792 135.831C43.1156 139.339 29.9549 156.255 33.4025 159.364C36.8501 162.472 48.5285 147.528 50.7192 144.711Z" fill="#EFC700"/>
<path d="M118.957 26.5C117.757 32.1 118.457 39.5 118.957 42.5L123.457 30.5L133.457 13.5C136.124 9 140.657 0 137.457 0C134.257 0 129.124 7 126.957 10.5C124.791 13.5 120.157 20.9 118.957 26.5Z" fill="#EFC700"/>
<path d="M143.269 46.3669C141.183 49.5061 139.789 54.1992 139.352 56.1534L144.97 49.8862L155.088 41.8718C157.778 39.755 162.681 35.3308 160.775 34.568C158.869 33.8051 154.098 36.8631 151.95 38.4874C149.925 39.8059 145.354 43.2276 143.269 46.3669Z" fill="#EFC700"/>
<path d="M166.94 66.5825C161.419 69.3194 155.604 74.8215 153.387 77.2304L166.468 72.9566L187.349 69.8921C192.889 69.0971 203.451 66.8472 201.377 64.2075C199.304 61.5679 190.047 61.9919 185.678 62.5338C181.733 62.743 172.462 63.8456 166.94 66.5825Z" fill="#EFC700"/>
<path d="M163.457 96C160.154 95.3115 155.727 96.0989 153.957 96.3865L160.957 99.5L170.957 105C173.612 106.531 179.029 108.845 179.028 107.006C179.028 105.168 175.522 101.744 173.457 100.5C171.687 99.2559 166.761 96.6884 163.457 96Z" fill="#EFC700"/>
<path d="M72.82 147.081C73.7345 145.565 76.6562 141.672 78.0027 139.915C77.7366 143.447 77.098 150.973 76.6714 152.821C76.1383 155.132 73.9665 159.446 70.6498 158.526C67.3331 157.606 71.6768 148.977 72.82 147.081Z" fill="#EFC700"/>
<path d="M126.401 145.273C125.64 143.674 123.999 139.091 123.274 137C126.076 139.167 132.005 143.846 133.313 145.22C134.948 146.937 137.353 151.126 134.758 153.388C132.163 155.649 127.354 147.271 126.401 145.273Z" fill="#EFC700"/>
<path d="M98.2819 152.425C98.7632 148.766 100.174 143.057 100.819 140.66C101.596 144.795 103.209 153.352 103.454 154.501C103.76 155.938 105.963 165.535 105.908 169.715C105.853 173.896 104.344 181.609 102.583 183.704C100.823 185.799 99.5984 180.054 98.8658 178.096C98.1332 176.138 98.7897 167.383 98.5438 165.489C98.2978 163.596 97.6803 157 98.2819 152.425Z" fill="#EFC700"/>
<path d="M146.983 128.415C145.129 125.672 142.629 121.034 141.611 119.058C144.491 121.441 150.455 126.368 151.273 127.014C152.295 127.822 159.217 133.134 161.63 136C164.043 138.865 167.656 144.915 167.834 147.292C168.013 149.669 163.211 147.43 161.63 146.5C160.049 145.57 154.457 140.5 153.457 138.5C152.696 136.978 149.301 131.844 146.983 128.415Z" fill="#EFC700"/>
<path d="M140.957 92C137.457 115.5 123.365 132 101.665 132C79.9641 132 64.9573 114.091 64.9573 92C68.5763 70.1818 79.4573 56.5 101.665 52C123.365 52 140.957 69.9086 140.957 92Z" fill="#EFC700"/>
<path d="M77.6963 75.3452C73.4067 82.5576 72.0226 93.6473 72.7546 98.955C74.4018 95.8436 78.6367 89.6105 83.0291 83.461C87.4216 77.3116 94.9617 72.1435 102.404 69.3055C112.793 65.3437 121.375 64.8409 117.229 62.7169C111.24 59.6497 99.6803 59.5555 93.6407 61.2026C87.601 62.8497 83.0289 66.3789 77.6963 75.3452Z" fill="#E7C000"/>
</svg>
