<svg width="203" height="185" viewBox="0 0 203 185" fill="none" xmlns="http://www.w3.org/2000/svg">
<path d="M46.946 76.4822C48.7908 77.3424 53.4287 81.1427 55.5171 82.9354C51.9815 81.9885 44.5953 80.0181 43.3349 79.711C41.7593 79.3272 30.4613 77.2172 30.3448 72.9519C30.2282 68.6866 44.6401 75.407 46.946 76.4822Z" fill="#EFC700"/>
<path d="M51.6837 123.56C53.4727 123.071 59.7637 121.485 61.7271 121.145C59.5257 122.719 55.4381 126.466 54.6697 127.041C53.7091 127.761 46.6593 132.773 44.3103 130.8C41.9612 128.827 49.8838 124.051 51.6837 123.56Z" fill="#EFC700"/>
<path d="M69.2218 37.7415C70.4209 39.0828 76.397 45.1814 79.6 47.8446C78.331 44.7965 75.5777 38.1085 74.7163 35.7417C73.6395 32.7832 67.9881 23.8315 64.6069 25.0622C61.2258 26.2928 67.6076 35.9359 69.2218 37.7415Z" fill="#EFC700"/>
<path d="M44.9603 56.3079C47.2822 57.656 58.5046 63.5705 64.1581 65.9097C60.7286 62.2479 53.2431 54.2005 50.7373 51.3063C47.6051 47.6884 35.0914 37.725 31.5364 40.8029C27.9813 43.8808 41.8344 54.493 44.9603 56.3079Z" fill="#EFC700"/>
<path d="M33.1605 108.304C36.4539 106.814 47.5305 103.073 53.2939 100.497C47.8756 100.076 39.7366 99.7601 35.925 100.118C31.1606 100.565 10.8383 106.179 11.2775 110.86C11.7167 115.542 29.8672 109.793 33.1605 108.304Z" fill="#EFC700"/>
<path d="M74.4994 152.81C75.8972 148.476 77.9637 134.917 78.2877 129.32C75.7414 133.419 69.2899 143.519 68.0141 146.67C66.4193 150.609 60.4991 168.957 64.3697 170.524C68.2404 172.091 73.5142 155.865 74.4994 152.81Z" fill="#EFC700"/>
<path d="M95.8115 31.8932C96.52 36.996 99.3884 43.0358 100.734 45.4178L100.846 33.8899L104.069 16.4433C104.938 11.819 106.001 2.81667 103.296 3.80119C100.591 4.78571 98.4059 12.2821 97.6513 15.9072C96.7428 19.1097 95.1029 26.7903 95.8115 31.8932Z" fill="#EFC700"/>
<path d="M122.474 41.2067C121.677 44.5019 121.942 48.8981 122.174 50.6842L124.995 43.6582L131.081 33.7709C132.704 31.154 135.488 25.9056 133.642 25.8473C131.796 25.7889 128.704 29.8416 127.388 31.8752C126.082 33.6127 123.271 37.9115 122.474 41.2067Z" fill="#EFC700"/>
<path d="M148.703 51.0117C144.878 55.0239 141.655 61.4638 140.522 64.1822L150.265 56.5448L166.973 47.5302C171.411 45.1537 179.647 40.0024 177.082 38.4092C174.517 36.8159 166.823 40.0221 163.296 41.8244C160.026 43.2151 152.528 46.9995 148.703 51.0117Z" fill="#EFC700"/>
<path d="M154.809 76.9501C151.805 77.3844 148.305 79.412 146.898 80.1995L153.773 80.6778L163.918 82.2503C166.633 82.7277 171.923 83.0168 171.358 81.4633C170.792 79.9098 166.775 78.0936 164.647 77.6773C162.768 77.1702 157.813 76.5157 154.809 76.9501Z" fill="#EFC700"/>
<path d="M93.9101 148.014C94.2166 146.451 95.4884 142.261 96.086 140.361C96.9478 143.429 98.7234 149.987 98.9315 151.681C99.1917 153.798 98.6833 158.113 95.5967 158.355C92.5101 158.598 93.527 149.968 93.9101 148.014Z" fill="#EFC700"/>
<path d="M138.646 130.001C137.51 128.884 134.713 125.515 133.457 123.97C136.492 124.94 142.944 127.07 144.472 127.829C146.382 128.778 149.704 131.579 148.206 134.289C146.709 136.999 140.066 131.397 138.646 130.001Z" fill="#EFC700"/>
<path d="M117.077 144.697C116.358 141.456 115.794 136.196 115.602 133.971C117.53 137.228 121.527 143.965 122.088 144.861C122.788 145.981 127.603 153.415 128.843 156.966C130.083 160.517 131.18 167.501 130.336 169.814C129.493 172.126 126.69 167.647 125.468 166.217C124.247 164.788 122.108 157.185 121.318 155.66C120.527 154.135 117.976 148.749 117.077 144.697Z" fill="#EFC700"/>
<path d="M150.857 109.419C148.446 107.671 144.906 104.519 143.437 103.162C146.604 104.29 153.162 106.621 154.052 106.915C155.164 107.284 162.65 109.644 165.571 111.324C168.492 113.004 173.408 117.006 174.29 118.961C175.172 120.915 170.424 120.499 168.802 120.2C167.18 119.9 160.893 117.335 159.432 115.952C158.32 114.899 153.871 111.605 150.857 109.419Z" fill="#EFC700"/>
<path d="M135 93C131.822 114.15 119.028 129 99.3265 129C79.6246 129 66 112.882 66 93C69.2857 73.3636 79.1645 61.05 99.3265 57C119.028 57 135 73.1177 135 93Z" fill="#EFC700"/>
<path d="M77.8804 82.1811C73.5907 89.3936 72.2067 100.483 72.9387 105.791C74.5859 102.68 78.8208 96.4464 83.2132 90.297C87.6057 84.1475 95.1457 78.9795 102.588 76.1415C112.978 72.1796 121.559 71.6768 117.413 69.5528C111.424 66.4856 99.8644 66.3915 93.8247 68.0386C87.7851 69.6857 83.213 73.2149 77.8804 82.1811Z" fill="#E7C000"/>
</svg>
