<svg width="203" height="186" viewBox="0 0 203 186" fill="none" xmlns="http://www.w3.org/2000/svg">
<path d="M151.133 130.905C149.533 129.305 146.133 123.571 144.633 120.905C147.967 123.238 154.933 128.105 156.133 128.905C157.633 129.905 168.633 136.405 167.133 140.905C165.633 145.405 153.133 132.905 151.133 130.905Z" fill="#EFC700"/>
<path d="M164.084 79.9245C162.029 79.7543 154.854 79.0195 152.674 78.628C155.572 77.8209 161.267 75.4613 162.288 75.152C163.565 74.7655 172.836 72.21 174.539 75.1641C176.243 78.1182 166.151 80.0956 164.084 79.9245Z" fill="#EFC700"/>
<path d="M113.134 162.905C112.391 161.048 108.467 152.405 106.134 148.405C106.3 152.071 106.634 160.105 106.634 162.905C106.634 166.405 109.134 177.905 113.134 177.905C117.134 177.905 114.133 165.405 113.134 162.905Z" fill="#EFC700"/>
<path d="M145.537 152.735C143.624 150.443 134.15 139.998 129.133 135.405C131.324 140.534 136.083 151.787 137.601 155.763C139.497 160.733 148.781 175.899 153.665 174.036C158.549 172.172 148.113 155.819 145.537 152.735Z" fill="#EFC700"/>
<path d="M177.633 102.905C173.627 103.208 160.633 102.905 153.633 103.405C159.133 105.905 167.515 109.329 171.633 110.405C176.78 111.749 200.144 113.611 201.465 108.554C202.787 103.496 181.64 102.601 177.633 102.905Z" fill="#EFC700"/>
<path d="M151.371 40.6936C148.263 44.69 140.949 58.069 138.482 63.7925C142.701 60.4779 153.281 52.3809 155.811 49.5741C158.975 46.0657 172.136 29.1499 168.688 26.0411C165.24 22.9324 153.562 37.8769 151.371 40.6936Z" fill="#EFC700"/>
<path d="M83.1333 158.905C84.3333 153.305 83.6333 145.905 83.1333 142.905L78.6333 154.905L68.6333 171.905C65.9666 176.405 61.4333 185.405 64.6333 185.405C67.8333 185.405 72.9666 178.405 75.1333 174.905C77.3 171.905 81.9333 164.505 83.1333 158.905Z" fill="#EFC700"/>
<path d="M58.8219 139.038C60.9075 135.899 62.302 131.206 62.7386 129.251L57.1207 135.519L47.003 143.533C44.3131 145.65 39.4097 150.074 41.3158 150.837C43.2218 151.6 47.9929 148.542 50.1402 146.917C52.1651 145.599 56.7363 142.177 58.8219 139.038Z" fill="#EFC700"/>
<path d="M35.1503 118.822C40.6717 116.085 46.4865 110.583 48.7038 108.174L35.6224 112.448L14.7412 115.513C9.20117 116.308 -1.36053 118.558 0.713232 121.197C2.787 123.837 12.0433 123.413 16.4123 122.871C20.3577 122.662 29.6289 121.559 35.1503 118.822Z" fill="#EFC700"/>
<path d="M38.6333 89.4048C41.9366 90.0933 46.3637 89.3059 48.1332 89.0183L41.1333 85.9048L31.1333 80.4048C28.4787 78.8737 23.062 76.5603 23.0625 78.3983C23.0629 80.2363 26.5686 83.6608 28.6333 84.9048C30.4031 86.1489 35.33 88.7164 38.6333 89.4048Z" fill="#EFC700"/>
<path d="M129.271 38.3238C128.356 39.8402 125.434 43.7336 124.088 45.4907C124.354 41.9587 124.993 34.4327 125.419 32.5843C125.952 30.2737 128.124 25.9593 131.441 26.8794C134.757 27.7995 130.414 36.4283 129.271 38.3238Z" fill="#EFC700"/>
<path d="M75.6891 40.1314C76.4511 41.7299 78.0913 46.3129 78.8163 48.4046C76.0149 46.2371 70.0852 41.5587 68.7774 40.1846C67.1425 38.467 64.7378 34.2779 67.3326 32.0165C69.9273 29.755 74.7368 38.1332 75.6891 40.1314Z" fill="#EFC700"/>
<path d="M103.809 32.9797C103.327 36.6392 101.916 42.348 101.271 44.745C100.495 40.6099 98.8813 32.0524 98.6365 30.9033C98.3303 29.467 96.1274 19.8703 96.1822 15.6893C96.2371 11.5084 97.7465 3.79592 99.5071 1.70073C101.268 -0.394461 102.492 5.35079 103.225 7.30855C103.957 9.2663 103.301 18.0216 103.547 19.9154C103.793 21.8091 104.41 28.4053 103.809 32.9797Z" fill="#EFC700"/>
<path d="M55.1074 56.9892C56.9615 59.7324 59.4613 64.3704 60.4795 66.3464C57.5996 63.9635 51.6353 59.0361 50.8177 58.3899C49.7956 57.582 42.8731 52.2698 40.4606 49.4045C38.048 46.5392 34.435 40.489 34.2565 38.1119C34.0781 35.7348 38.88 37.9746 40.4606 38.9045C42.0411 39.8344 47.6333 44.9045 48.6333 46.9045C49.3944 48.4267 52.7899 53.5601 55.1074 56.9892Z" fill="#EFC700"/>
<path d="M140.957 92.9365C137.457 116.437 123.365 132.937 101.665 132.937C79.9641 132.937 64.9573 115.028 64.9573 92.9365C68.5763 71.1183 79.4573 57.4365 101.665 52.9365C123.365 52.9365 140.957 70.8451 140.957 92.9365Z" fill="#EFC700"/>
<path d="M77.6963 76.3452C73.4067 83.5576 72.0226 94.6473 72.7546 99.955C74.4018 96.8436 78.6367 90.6105 83.0291 84.461C87.4216 78.3116 94.9617 73.1435 102.404 70.3055C112.793 66.3437 121.375 65.8409 117.229 63.7169C111.24 60.6497 99.6803 60.5555 93.6407 62.2026C87.601 63.8497 83.0289 67.3789 77.6963 76.3452Z" fill="#E7C000"/>
</svg>
